<svg width="20" height="20" viewBox="0 0 20 20" fill="none" xmlns="http://www.w3.org/2000/svg">
<g clip-path="url(#clip0_2635_7381)">
<path d="M10 0C4.47719 0 0 4.47711 0 10C0 15.5229 4.47719 20 10 20C15.5229 20 20 15.5229 20 10C20 4.47711 15.5229 0 10 0ZM16.7468 5.27398C17.4412 6.26086 17.9056 7.38215 18.1124 8.57098L15.1181 7.87996L16.7468 5.27398ZM14.7259 3.25316L12.12 4.88188L11.429 1.88758C12.6178 2.09441 13.7391 2.55875 14.7259 3.25316ZM8.57102 1.88758L7.88 4.88188L5.27406 3.25324C6.26094 2.55883 7.38219 2.09441 8.57102 1.88758ZM3.25316 5.27406L4.88188 7.88L1.88758 8.57102C2.09441 7.38219 2.55883 6.26094 3.25316 5.27406ZM3.25316 14.7259C2.55883 13.7391 2.09434 12.6178 1.88758 11.4289L4.88188 12.12L3.25316 14.7259ZM5.27398 16.7467L7.88 15.118L8.57102 18.1124C7.38211 17.9056 6.2609 17.4412 5.27398 16.7467ZM10 16.4566L9.04313 12.3101L5.43449 14.5655L7.68984 10.9569L3.54336 10L7.68988 9.04313L5.43441 5.43449L9.04313 7.68984L10 3.54336L10.9569 7.68984L14.5655 5.43441L12.31 9.04313L16.4566 10L12.3101 10.9569L14.5655 14.5655L10.9569 12.3102L10 16.4566ZM11.429 18.1125L12.12 15.1181L14.7259 16.7468C13.7391 17.4412 12.6178 17.9057 11.429 18.1125ZM16.7468 14.7259L15.118 12.12L18.1124 11.429C17.9056 12.6178 17.4412 13.7391 16.7468 14.7259Z" fill="white"/>
<path d="M10.3128 10.0004C10.3128 9.32341 10.8051 8.76158 11.4513 8.65318C11.1437 8.39287 10.7463 8.23572 10.3128 8.23572C9.33974 8.23572 8.5481 9.02732 8.5481 10.0004C8.5481 10.9735 9.33974 11.7651 10.3128 11.7651C10.7463 11.7651 11.1437 11.6079 11.4513 11.3476C10.8051 11.2392 10.3128 10.6773 10.3128 10.0004Z" fill="white"/>
</g>
<defs>
<clipPath id="clip0_2635_7381">
<rect width="20" height="20" fill="white"/>
</clipPath>
</defs>
</svg>
