<svg width="20" height="20" viewBox="0 0 20 20" fill="none" xmlns="http://www.w3.org/2000/svg">
<path d="M15.0835 10.512C15.0755 9.03718 15.7426 7.92403 17.0928 7.10423C16.3373 6.02323 15.196 5.42848 13.6891 5.31195C12.2625 5.19942 10.7032 6.14379 10.1326 6.14379C9.52982 6.14379 8.14743 5.35213 7.06241 5.35213C4.82003 5.3883 2.43701 7.1404 2.43701 10.7049C2.43701 11.7578 2.6299 12.8468 3.01569 13.968C3.53007 15.4428 5.38666 19.0595 7.32361 18.9993C8.3363 18.9751 9.05161 18.2799 10.3697 18.2799C11.6476 18.2799 12.3107 18.9993 13.4399 18.9993C15.3929 18.9711 17.0727 15.6839 17.563 14.2051C14.9429 12.9714 15.0835 10.5884 15.0835 10.512V10.512ZM12.809 3.91348C13.9061 2.61145 13.8056 1.42597 13.7734 1C12.805 1.05626 11.6838 1.65905 11.0448 2.40249C10.3416 3.19817 9.92766 4.18272 10.0161 5.29185C11.0649 5.37222 12.0213 4.83373 12.809 3.91348V3.91348Z" fill="white"/>
</svg>
