<svg width="20" height="20" viewBox="0 0 20 20" fill="none" xmlns="http://www.w3.org/2000/svg">
<path d="M10 3C14.4 3 18 5.864 18 9.4C18 12.936 14.4 15.8 10 15.8C9.008 15.8 8.056 15.656 7.176 15.4C4.84 17.4 2 17.4 2 17.4C3.864 15.536 4.16 14.28 4.2 13.8C2.84 12.656 2 11.104 2 9.4C2 5.864 5.6 3 10 3ZM14 10.2V8.6H12.4V10.2H14ZM10.8 10.2V8.6H9.2V10.2H10.8ZM7.6 10.2V8.6H6V10.2H7.6Z" fill="url(#paint0_linear_2176_27905)"/>
<defs>
<linearGradient id="paint0_linear_2176_27905" x1="10" y1="3" x2="10" y2="17.4" gradientUnits="userSpaceOnUse">
<stop stop-color="#26CD6F"/>
<stop offset="1" stop-color="#13B19F"/>
</linearGradient>
</defs>
</svg>
