<svg width="20" height="20" viewBox="0 0 20 20" fill="none" xmlns="http://www.w3.org/2000/svg">
<g clip-path="url(#clip0_2635_7389)">
<path d="M13.1165 0C11.5665 0 10.1416 0.64166 9.16657 1.72498C8.19158 0.64166 6.7666 0 5.21661 0C2.34164 0 0 2.24164 0 4.99995C0 12.0582 8.38325 17.1665 8.74158 17.3832C8.86657 17.4582 9.01657 17.4998 9.16657 17.4998C9.23324 17.4998 9.29157 17.4915 9.35824 17.4748C8.71658 16.5332 8.33325 15.3915 8.33325 14.1665C8.33325 10.9499 10.9499 8.33325 14.1665 8.33325C15.3332 8.33325 16.4165 8.67491 17.3248 9.26657C17.9415 7.94992 18.3331 6.52493 18.3331 4.99995C18.3331 2.24164 15.9915 0 13.1165 0Z" fill="white"/>
<path d="M19.7557 18.5772L17.6391 16.4606C18.0757 15.8014 18.3332 15.0139 18.3332 14.1664C18.3332 11.8689 16.4641 9.9998 14.1666 9.9998C11.8691 9.9998 10 11.8689 10 14.1664C10 16.4639 11.8691 18.333 14.1666 18.333C15.0141 18.333 15.8016 18.0755 16.4608 17.6389L18.5774 19.7555C18.9032 20.0814 19.4299 20.0814 19.7557 19.7555C20.0816 19.4297 20.0816 18.903 19.7557 18.5772ZM14.1666 16.6664C12.7883 16.6664 11.6666 15.5447 11.6666 14.1664C11.6666 12.7881 12.7883 11.6664 14.1666 11.6664C15.5449 11.6664 16.6666 12.7881 16.6666 14.1664C16.6666 15.5447 15.5449 16.6664 14.1666 16.6664Z" fill="white"/>
</g>
<defs>
<clipPath id="clip0_2635_7389">
<rect width="20" height="20" fill="white"/>
</clipPath>
</defs>
</svg>
