<svg width="72" height="72" viewBox="0 0 72 72" fill="none" xmlns="http://www.w3.org/2000/svg">
<g clip-path="url(#clip0_2543_109396)">
<path d="M0 36C0 16.1163 16.115 0 36 0C55.8836 0 72 16.115 72 36C72 55.8837 55.885 72 36 72C16.1163 72 0 55.885 0 36ZM3.6 36C3.6 53.8967 18.1045 68.4 36 68.4C53.8967 68.4 68.4 53.8955 68.4 36C68.4 18.1033 53.8955 3.6 36 3.6C18.1033 3.6 3.6 18.1045 3.6 36ZM36 28.8C36.9158 28.7781 37.8 29.3785 37.8 30.6V50.4H43.2C45.6 50.4 45.6 54 43.2 54H28.8C26.4 54 26.4 50.4 28.8 50.4H34.2V32.4L34.1922 32.4H32.4C30 32.4 30 28.8 32.4 28.8H36ZM36 18C37.9882 18 39.6 19.6118 39.6 21.6C39.6 23.5882 37.9882 25.2 36 25.2C34.0118 25.2 32.4 23.5882 32.4 21.6C32.4 19.6118 34.0118 18 36 18Z" fill="#CA4040"/>
</g>
<defs>
<clipPath id="clip0_2543_109396">
<rect width="72" height="72" fill="white"/>
</clipPath>
</defs>
</svg>
