<svg width="24" height="24" viewBox="0 0 24 24" fill="none" xmlns="http://www.w3.org/2000/svg">
<path d="M12.0005 4.59499C10.8965 3.58899 9.48847 3.03699 8.00447 3.03699C6.42647 3.03699 4.93247 3.65999 3.79147 4.79499C1.43847 7.15799 1.43947 10.854 3.79347 13.207L11.1255 20.539C11.2955 20.838 11.6235 21.031 12.0005 21.031C12.3225 21.031 12.6095 20.868 12.7925 20.622L20.2075 13.207C22.5615 10.853 22.5615 7.15799 20.2055 4.79099C19.0685 3.65999 17.5745 3.03699 15.9965 3.03699C14.5135 3.03699 13.1045 3.58899 12.0005 4.59499ZM18.7915 6.20499C20.3545 7.77599 20.3555 10.23 18.7935 11.793L12.0005 18.586L5.20747 11.793C3.64547 10.23 3.64647 7.77599 5.20547 6.20899C5.96547 5.45299 6.95947 5.03699 8.00447 5.03699C9.04947 5.03699 10.0395 5.45299 10.7935 6.20699L11.2935 6.70699C11.6845 7.09799 12.3165 7.09799 12.7075 6.70699L13.2075 6.20699C14.7195 4.69799 17.2815 4.70199 18.7915 6.20499Z" fill="#FFF"/>
</svg>
