<svg width="20" height="20" viewBox="0 0 20 20" fill="none" xmlns="http://www.w3.org/2000/svg">
<path d="M4.98915 11.8776L4.3626 14.2166L2.07257 14.265C1.38819 12.9956 1 11.5433 1 9.99995C1 8.50754 1.36295 7.10018 2.00631 5.86096H2.0068L4.04556 6.23474L4.93867 8.26127C4.75174 8.80623 4.64986 9.39122 4.64986 9.99995C4.64993 10.6606 4.7696 11.2936 4.98915 11.8776Z" fill="#4064B4"/>
<path d="M18.8426 8.3186C18.9459 8.86303 18.9998 9.42528 18.9998 9.9999C18.9998 10.6442 18.9321 11.2728 18.803 11.879C18.3649 13.9421 17.2201 15.7436 15.6343 17.0184L15.6338 17.0179L13.0659 16.8869L12.7024 14.6181C13.7547 14.0009 14.5771 13.0352 15.0103 11.879H10.1978V8.3186H15.0805H18.8426Z" fill="#518EF8"/>
<path d="M15.6337 17.018L15.6342 17.0185C14.0919 18.2582 12.1326 19 9.99987 19C6.57248 19 3.59262 17.0843 2.07251 14.2651L4.98909 11.8777C5.74913 13.9061 7.70587 15.3501 9.99987 15.3501C10.9859 15.3501 11.9097 15.0835 12.7023 14.6182L15.6337 17.018Z" fill="#28B446"/>
<path d="M15.7446 3.07195L12.829 5.45891C12.0087 4.94612 11.0389 4.6499 9.99998 4.6499C7.65406 4.6499 5.66071 6.16009 4.93875 8.26126L2.00684 5.86095H2.00635C3.5042 2.97306 6.52164 1 9.99998 1C12.1837 1 14.1859 1.77786 15.7446 3.07195Z" fill="#F14336"/>
</svg>
