<svg width="24" height="24" viewBox="0 0 24 24" fill="none" xmlns="http://www.w3.org/2000/svg">
<path d="M7.83964 3.04652C7.64388 3.094 7.32575 3.26664 7.16669 3.40906C7.00356 3.55149 6.77516 3.92267 6.69767 4.16436C6.66504 4.27226 6.33061 5.54116 5.95539 6.99134C5.06221 10.4614 5.13562 10.2068 5.02142 10.2068C4.87052 10.2068 3.72039 10.4139 3.20243 10.5348C2.05638 10.8024 1.36304 11.0958 1.10609 11.4195C0.412754 12.2914 3.1698 13.1287 7.85188 13.4653C14.1735 13.9185 21.3149 13.2538 22.7709 12.0756C22.9422 11.9375 23.036 11.7173 22.9871 11.5792C22.8321 11.152 21.8533 10.7333 20.2912 10.4269C19.6019 10.2888 19.1166 10.2068 19.0065 10.2068C18.9371 10.2068 18.8882 10.1722 18.8637 10.1075C18.8393 10.0557 18.6231 9.23565 18.3784 8.28614C18.1337 7.33662 17.8564 6.26625 17.7625 5.91234C17.6687 5.55411 17.5668 5.16567 17.5382 5.04914C17.2527 3.92698 17.216 3.84066 16.8898 3.49107C16.5105 3.08968 16.0333 2.92999 15.5194 3.03789C15.3848 3.0681 14.8832 3.25369 14.4101 3.45654C13.9329 3.66371 13.4108 3.86224 13.2518 3.9054C12.7624 4.0392 12.0772 4.09099 11.5347 4.03488C10.874 3.97014 10.56 3.87519 9.62193 3.46949C8.51667 2.99473 8.27604 2.93862 7.83964 3.04652Z" fill="#A7A7A7"/>
<path d="M4.6095 14.635C4.52385 14.6954 4.43412 14.7688 4.40557 14.799C4.31177 14.8982 4.22204 15.1227 4.22204 15.2651C4.22204 15.5888 4.60134 16.8232 4.90722 17.5051C5.27429 18.3165 5.5557 18.6402 6.21233 19.0027C7.59901 19.771 9.56483 20.1983 10.352 19.9091C10.4417 19.8746 10.7354 19.6717 11.0086 19.4516C11.2819 19.2358 11.5878 19.0286 11.6856 18.9898C11.7794 18.9553 11.9915 18.9251 12.1506 18.9251C12.5217 18.9251 12.7053 19.0157 13.3129 19.5034C13.5658 19.7063 13.8513 19.8962 13.9451 19.9264C14.2265 20.017 15.1809 19.9911 15.6825 19.8746C16.8123 19.6199 17.9175 19.1495 18.4681 18.6963C18.6924 18.5107 18.9208 18.1654 19.1696 17.6389C19.5856 16.7541 19.9608 15.4766 19.8997 15.1442C19.867 14.9673 19.6509 14.6824 19.4714 14.5832C19.3409 14.5141 19.0146 14.5055 18.5782 14.5659C18.1051 14.635 16.3718 14.7731 15.3359 14.8335C14.0797 14.9026 9.97268 14.9026 8.70835 14.8335C7.55415 14.7688 5.83304 14.6306 5.42111 14.5659C4.95209 14.4968 4.78079 14.5098 4.6095 14.635ZM9.21408 16.3614C9.91966 16.452 10.2459 16.5858 10.3764 16.8404C10.5314 17.1512 10.2826 17.695 9.87072 17.954C9.11212 18.4201 7.50113 18.0964 7.07697 17.3886C6.8445 16.9958 6.83226 16.6376 7.04842 16.4865C7.32575 16.2966 8.28012 16.2405 9.21408 16.3614ZM16.8775 16.3916C17.1549 16.4865 17.2323 16.5728 17.2323 16.78C17.2323 17.6044 15.862 18.3553 14.769 18.1309C14.2918 18.0316 14.0022 17.8245 13.8105 17.436C13.7208 17.2505 13.6963 16.944 13.7657 16.8102C13.8187 16.7023 14.1042 16.5297 14.3366 16.4606C14.9239 16.2923 16.4574 16.2491 16.8775 16.3916Z" fill="#A7A7A7"/>
</svg>
