<svg width="24" height="24" viewBox="0 0 24 24" fill="none" xmlns="http://www.w3.org/2000/svg">
<path fill-rule="evenodd" clip-rule="evenodd" d="M12.0002 3.00006C8.5172 3.00006 5.7002 5.81706 5.7002 9.30006C5.7002 13.0531 9.67819 18.2281 11.3162 20.1991C11.6762 20.6311 12.3332 20.6311 12.6932 20.1991C14.3222 18.2281 18.3002 13.0531 18.3002 9.30006C18.3002 5.81706 15.4832 3.00006 12.0002 3.00006ZM12.0002 11.5501C10.7582 11.5501 9.7502 10.5421 9.7502 9.30006C9.7502 8.05806 10.7582 7.05006 12.0002 7.05006C13.2422 7.05006 14.2502 8.05806 14.2502 9.30006C14.2502 10.5421 13.2422 11.5501 12.0002 11.5501Z" fill="#E65B7E"/>
</svg>
