<svg width="20" height="21" viewBox="0 0 20 21" fill="none" xmlns="http://www.w3.org/2000/svg">
<path d="M10 2.625C5.02891 2.625 1 5.89805 1 9.9375C1 11.6812 1.75234 13.2773 3.00391 14.5324C2.56445 16.3043 1.09492 17.8828 1.07734 17.9004C1 17.9812 0.978906 18.1008 1.02461 18.2063C1.07031 18.3117 1.16875 18.375 1.28125 18.375C3.61211 18.375 5.35938 17.257 6.22422 16.568C7.37383 17.0004 8.65 17.25 10 17.25C14.9711 17.25 19 13.977 19 9.9375C19 5.89805 14.9711 2.625 10 2.625ZM8.57266 13.5445L6.87812 13.7344C6.64961 13.759 6.45977 13.5656 6.48438 13.3406L6.67422 11.6461L10.0598 8.26055L11.9582 10.159L8.57266 13.5445ZM13.8707 8.24648L12.7527 9.36445L10.8543 7.46602L11.9723 6.34805C12.25 6.07031 12.7 6.07031 12.9777 6.34805L13.8707 7.24102C14.1484 7.51875 14.1484 7.96875 13.8707 8.24648Z" fill="#2BAEEC"/>
</svg>
