<svg width="65" height="64" viewBox="0 0 65 64" fill="none" xmlns="http://www.w3.org/2000/svg">
<g clip-path="url(#clip0_19_8195)">
<path d="M3.75168 14.2712C3.43913 17.9609 3.28261 21.9962 3.28261 26.3763C3.28261 30.8824 3.44827 35.0237 3.77909 38.7995C4.08046 42.2392 6.80941 44.9484 10.218 45.1918C17.678 45.7246 24.199 46.0119 29.779 46.0541C30.5473 46.06 31.1656 46.6941 31.1598 47.4706C31.1541 48.247 30.5265 48.8718 29.7581 48.866C24.1149 48.8233 17.5367 48.5334 10.0219 47.9967C5.24977 47.6559 1.42924 43.863 1.00732 39.0475C0.668943 35.1855 0.5 30.962 0.5 26.3763C0.5 20.7567 0.753711 15.6807 1.26214 11.147C1.63812 7.79428 4.31843 5.18439 7.64793 4.92902C16.754 4.23059 24.5582 3.8811 31.0635 3.8811C37.5738 3.8811 45.4074 4.23113 54.5674 4.93064C57.8979 5.18496 60.5794 7.79527 60.9555 11.149C61.4638 15.6822 61.7174 20.7575 61.7174 26.3763C61.7174 26.8955 61.7152 27.41 61.7109 27.9199C61.7043 28.6964 61.0761 29.3204 60.3077 29.3138C59.5393 29.3071 58.9218 28.6723 58.9284 27.8958C58.9327 27.394 58.9348 26.8875 58.9348 26.3763C58.9348 21.9962 58.7783 17.9609 58.4657 14.2712C58.1344 14.586 57.7575 14.8629 57.3382 15.0913L34.5124 27.5282C33.4323 28.1167 32.3017 28.3979 31.1087 28.3682C29.9157 28.3979 28.7851 28.1167 27.705 27.5282L4.87919 15.0913C4.45991 14.8629 4.08303 14.586 3.75168 14.2712ZM5.35334 8.83001C5.32365 8.87496 5.28655 8.93028 5.24029 8.99902C5.19887 9.06094 5.14215 9.14795 5.16149 9.1117C4.49052 10.3692 4.95539 11.9383 6.19979 12.6163L29.0256 25.0532C29.6891 25.4147 30.3465 25.5769 31.0553 25.5568C31.087 25.5556 31.1191 25.5555 31.1514 25.5565C31.1549 25.5565 31.1585 25.5567 31.1621 25.5568C31.8709 25.5769 32.5283 25.4147 33.1918 25.0532L56.0176 12.6163C57.262 11.9383 57.7269 10.3692 57.0559 9.1117C57.0752 9.14795 57.0185 9.06094 56.9795 9.00265C56.9333 8.93402 56.8964 8.87894 56.8668 8.83417C56.1955 8.21096 55.3219 7.80817 54.3577 7.73454C45.2627 7.04 37.4969 6.693 31.0635 6.693C24.6353 6.693 16.8993 7.03944 7.85853 7.73285C6.89602 7.80668 6.02393 8.20845 5.35334 8.83001ZM36.6739 44.6536C36.6739 51.6431 42.2795 57.3072 49.1957 57.3072C56.1123 57.3072 61.7174 51.6426 61.7174 44.6536C61.7174 37.6642 56.1118 32.0001 49.1957 32.0001C42.279 32.0001 36.6739 37.6647 36.6739 44.6536ZM33.8913 44.6536C33.8913 36.1118 40.7422 29.1882 49.1957 29.1882C57.6486 29.1882 64.5 36.1112 64.5 44.6536C64.5 53.1955 57.6491 60.1191 49.1957 60.1191C40.7427 60.1191 33.8913 53.1961 33.8913 44.6536ZM47.8043 48.8715V39.0298C47.8043 37.1552 50.587 37.1552 50.587 39.0298V48.8715C50.587 50.7461 47.8043 50.7461 47.8043 48.8715ZM48.2119 54.0835C47.6685 53.5344 47.6685 52.6442 48.2119 52.0952C48.7552 51.5461 49.6361 51.5461 50.1795 52.0952C50.7228 52.6442 50.7228 53.5344 50.1795 54.0835C49.6361 54.6326 48.7552 54.6326 48.2119 54.0835Z" fill="#bdbdbd"/>
</g>
<defs>
<clipPath id="clip0_19_8195">
<rect width="64" height="64" fill="white" transform="translate(0.5)"/>
</clipPath>
</defs>
</svg>
