<svg width="186" height="186" viewBox="0 0 186 186" fill="none" xmlns="http://www.w3.org/2000/svg">
<path d="M161.926 134.804C164.866 131.412 166.486 127.068 166.486 122.571C166.486 112.264 158.101 103.878 147.794 103.878C142.367 103.878 137.217 106.232 133.662 110.338C130.722 113.731 129.103 118.076 129.103 122.571C129.103 132.878 137.488 141.263 147.794 141.263C153.222 141.263 158.373 138.908 161.926 134.804ZM134.556 122.571C134.556 119.388 135.703 116.311 137.785 113.908L137.785 113.908C140.303 110.999 143.951 109.331 147.794 109.331C155.094 109.331 161.033 115.271 161.033 122.572C161.033 125.756 159.887 128.832 157.804 131.234C155.286 134.142 151.638 135.81 147.794 135.81C140.495 135.809 134.556 129.871 134.556 122.571Z" fill="#E65B7E"/>
<path d="M172.982 97.5805C166.462 91.0087 157.821 87.2702 148.65 87.0544C138.99 86.827 129.874 90.4136 122.973 97.154C116.07 103.896 112.268 112.923 112.268 122.571C112.268 127.186 113.148 131.687 114.883 135.948C115.45 137.343 117.041 138.013 118.436 137.446C119.83 136.878 120.501 135.287 119.933 133.893C118.466 130.287 117.722 126.478 117.722 122.571C117.722 114.404 120.94 106.763 126.783 101.055C132.625 95.3499 140.348 92.3103 148.521 92.5065C156.277 92.6889 163.589 95.8552 169.11 101.421C174.632 106.987 177.74 114.325 177.863 122.083C177.969 128.774 175.922 135.139 171.925 140.517L157.098 160.962C154.427 164.646 152.584 168.77 151.623 173.217L150.514 178.353C150.239 179.624 149.095 180.546 147.795 180.546C146.494 180.546 145.351 179.624 145.076 178.352L143.966 173.217C143.005 168.769 141.163 164.646 138.491 160.961L125.68 143.297C124.796 142.078 123.091 141.806 121.872 142.691C120.653 143.575 120.381 145.279 121.265 146.499L134.076 164.163C136.301 167.231 137.835 170.665 138.636 174.369L139.746 179.505C140.559 183.269 143.944 186 147.794 186C151.644 186 155.03 183.268 155.843 179.505L156.953 174.369C157.753 170.665 159.287 167.232 161.512 164.163L176.32 143.744C181.022 137.419 183.44 129.899 183.315 121.996C183.17 112.822 179.501 104.151 172.982 97.5805Z" fill="#E65B7E"/>
<path d="M31.6684 44.66C36.1717 44.66 40.446 42.7059 43.3933 39.3012C45.8335 36.4865 47.1776 32.8821 47.1776 29.1508C47.1776 26.8868 46.697 24.6995 45.7489 22.6491C45.1167 21.2821 43.4961 20.6863 42.1298 21.3184C40.7628 21.9502 40.1674 23.5708 40.7991 24.9375C41.4127 26.2652 41.7244 27.6831 41.7244 29.1508C41.7244 31.5695 40.8536 33.9058 39.2715 35.7302C37.3592 37.9393 34.5881 39.2068 31.6684 39.2068C26.1237 39.2068 21.6128 34.6959 21.6128 29.1512C21.6128 26.7328 22.4836 24.3954 24.0657 22.57C25.978 20.3608 28.7491 19.0933 31.6688 19.0933C32.1839 19.0933 32.7009 19.1326 33.2058 19.2096C34.6946 19.4385 36.0856 18.4155 36.3133 16.9267C36.5411 15.4384 35.5192 14.0466 34.0305 13.8192C33.2534 13.7004 32.4589 13.6401 31.6684 13.6401C27.1652 13.6401 22.8908 15.5942 19.9428 19C17.503 21.8161 16.1592 25.4213 16.1592 29.1512C16.1596 37.7024 23.1168 44.66 31.6684 44.66Z" fill="#E65B7E"/>
<path d="M20.2451 62.7709C21.9823 65.166 23.1797 67.8463 23.8045 70.738L24.6931 74.8503C25.3979 78.1123 28.3313 80.4794 31.6688 80.4794C35.0063 80.4794 37.9398 78.1119 38.6445 74.8503L39.5331 70.7384C40.158 67.8463 41.3557 65.166 43.0926 62.7712L54.9453 46.4272C58.7816 41.2672 60.7553 35.1306 60.6532 28.6816C60.5348 21.1959 57.5406 14.1202 52.2218 8.75893C46.9019 3.3969 39.851 0.346787 32.3667 0.170232C24.4849 -0.0168577 17.0464 2.91155 11.4152 8.41127C5.78284 13.9124 2.68042 21.2776 2.68042 29.1499C2.68042 35.4267 4.65558 41.4012 8.3734 46.4014L20.2451 62.7709ZM15.2256 12.3122C19.6606 7.98042 25.4781 5.61509 31.6648 5.61509C31.8548 5.61509 32.047 5.61727 32.2377 5.622C38.306 5.76477 44.028 8.24271 48.3496 12.5992C52.6712 16.9556 55.1041 22.6973 55.2 28.7677C55.2828 34.0048 53.6811 38.9861 50.5496 43.1995L38.678 59.5689C36.4946 62.5798 34.9888 65.95 34.2031 69.5857L33.3145 73.6977C33.1481 74.4674 32.456 75.0258 31.6692 75.0258C30.8823 75.0258 30.1899 74.4674 30.0239 73.698L29.1353 69.586C28.3495 65.9507 26.8441 62.5805 24.66 59.5693L12.7695 43.1737C9.73752 39.0951 8.13473 34.2457 8.13473 29.1499C8.13364 22.7587 10.6526 16.7787 15.2256 12.3122Z" fill="#E65B7E"/>
<path d="M156.708 31.229C155.692 32.3407 155.77 34.0655 156.882 35.0813C157.405 35.5594 158.063 35.7948 158.72 35.7948C159.459 35.7948 160.196 35.4958 160.734 34.9073L160.781 34.8564C160.847 34.7856 160.912 34.7144 160.972 34.6446C163.039 32.2611 164.177 29.2085 164.177 26.049C164.177 18.8066 158.285 12.9142 151.044 12.9142C147.261 12.9142 143.661 14.5475 141.166 17.3957C140.173 18.5284 140.287 20.2511 141.42 21.2432C142.553 22.2357 144.275 22.122 145.268 20.9889C146.727 19.3229 148.833 18.3671 151.044 18.3671C155.279 18.3671 158.724 21.8132 158.724 26.0487C158.724 27.8959 158.059 29.6796 156.849 31.0757L156.708 31.229Z" fill="#E65B7E"/>
<path d="M130.504 14.6757C131.726 15.5544 133.431 15.2747 134.309 14.0519C138.289 8.51079 144.733 5.29211 151.542 5.45886C156.852 5.58383 161.86 7.75262 165.642 11.5649C169.424 15.3775 171.553 20.4024 171.637 25.714C171.71 30.2968 170.308 34.6565 167.565 38.3471L164.747 42.2338C163.862 43.4526 164.134 45.1575 165.353 46.0417C165.836 46.3927 166.396 46.5612 166.951 46.5612C167.795 46.5612 168.627 46.1703 169.16 45.4351L171.96 41.5741C175.407 36.9368 177.181 31.4226 177.089 25.6275C176.983 18.9003 174.292 12.5418 169.513 7.72428C164.733 2.90645 158.397 0.165489 151.671 0.00709841C143.057 -0.193433 134.912 3.86515 129.88 10.8707C129.639 11.206 128.924 12.9141 130.07 14.287C130.198 14.4286 130.342 14.5598 130.504 14.6757Z" fill="#E65B7E"/>
<path d="M126.045 163.281C126.049 162.526 125.743 161.773 125.135 161.231C124.011 160.228 122.287 160.327 121.286 161.451C119.554 163.393 117.749 165.173 115.914 166.752C112.066 168.083 108.131 169.097 104.124 169.797C107.164 163.254 109.773 154.257 111.765 143.364C112.037 141.883 111.055 140.463 109.574 140.192C108.095 139.921 106.673 140.901 106.402 142.383C104.156 154.66 101.033 164.616 97.5506 170.657C95.2746 170.855 92.9794 170.959 90.6653 170.959C88.3428 170.959 86.0462 170.851 83.7753 170.649C79.7585 163.699 76.441 152.076 74.1829 137.856C79.5798 138.294 85.0919 138.52 90.6653 138.52C95.8272 138.52 101.038 138.325 106.154 137.94C107.655 137.826 108.781 136.517 108.668 135.016C108.555 133.514 107.243 132.391 105.744 132.502C100.765 132.877 95.6917 133.067 90.6653 133.067C84.8027 133.067 79.0178 132.809 73.3746 132.317C71.9029 121.302 71.0394 109.004 70.9311 96.2712H115.148C116.654 96.2712 117.875 95.0506 117.875 93.5444C117.875 92.2831 117.017 91.2248 115.855 90.9135C115.756 78.3229 114.95 66.2511 113.553 55.3443C122.653 56.4113 131.304 58.106 139.207 60.3572C140.885 66.404 142.111 72.7502 142.827 79.2206C142.981 80.6156 144.162 81.6473 145.533 81.6473C145.633 81.6473 145.735 81.6419 145.837 81.6306C147.334 81.4649 148.412 80.1172 148.247 78.6204C147.631 73.0528 146.651 67.5683 145.344 62.2681C152.753 64.7849 159.347 67.8281 164.839 71.329C166.209 75.9093 167.16 80.6352 167.66 85.4541C167.806 86.8564 168.989 87.8994 170.369 87.8994C170.463 87.8994 170.558 87.8946 170.654 87.8845C172.152 87.729 173.24 86.3888 173.085 84.891C170.981 64.625 161.475 45.8928 146.319 32.1459C131.055 18.3013 111.29 10.6764 90.6657 10.6764C82.2517 10.6764 73.9489 11.934 65.9883 14.4142C64.5505 14.8621 63.748 16.3908 64.1959 17.8286C64.6438 19.2661 66.1714 20.0675 67.6104 19.6211C70.7571 18.6406 73.9624 17.8671 77.2083 17.2982C73.5929 25.0884 70.6107 36.308 68.5556 49.7672C65.4499 50.1076 62.3759 50.5119 59.3512 50.9966C57.8643 51.2349 56.8522 52.6335 57.0905 54.1204C57.3288 55.6077 58.7274 56.618 60.2143 56.3811C62.7039 55.9819 65.2254 55.6342 67.7731 55.3359C67.3372 58.7392 66.9576 62.2637 66.6397 65.894C66.5082 67.394 67.6176 68.717 69.1176 68.8482C69.1987 68.8554 69.2789 68.8587 69.3589 68.8587C70.7571 68.8587 71.9476 67.7892 72.0718 66.3699C72.422 62.3752 72.8533 58.5016 73.3539 54.7743C79.0301 54.2799 84.8143 54.0216 90.6657 54.0216C96.5283 54.0216 102.313 54.2795 107.956 54.7718C109.428 65.7868 110.292 78.0846 110.4 90.8176H70.9351C70.9711 86.4746 71.0881 82.1356 71.2941 77.8833C71.3667 76.379 70.2068 75.1006 68.7028 75.028C67.1922 74.9593 65.92 76.1156 65.8474 77.6192C65.6374 81.959 65.5182 86.3863 65.4823 90.8172H37.7498C37.7676 90.0257 37.7919 89.2141 37.825 88.3669C37.8838 86.8622 36.7119 85.5947 35.2071 85.5355C33.7093 85.4708 32.4346 86.6482 32.3757 88.1533C32.3398 89.0742 32.3129 89.9574 32.2944 90.8169H13.3009C13.5519 83.6018 14.7955 76.4953 17.0133 69.6543C17.4776 68.2219 16.6925 66.6841 15.2601 66.2198C13.8273 65.7556 12.2899 66.5406 11.8256 67.973C9.15334 76.2184 7.7983 84.8213 7.7983 93.5437C7.7983 115.678 16.4179 136.488 32.0695 152.14C47.7215 167.792 68.5309 176.411 90.666 176.411C103.169 176.411 115.189 173.693 126.391 168.333C127.749 167.683 128.324 166.055 127.674 164.697C127.336 163.993 126.734 163.502 126.045 163.281ZM112.772 49.7745C110.737 36.4377 107.777 25.1709 104.128 17.3091C108.151 18.0164 112.099 19.0398 115.939 20.3647C122.74 26.2251 128.757 34.5036 133.356 44.3514C134.821 47.4876 136.142 50.7888 137.311 54.2145C129.642 52.2248 121.386 50.7252 112.772 49.7745ZM161.992 63.4106C156.541 60.5657 150.357 58.078 143.613 55.996C142.121 51.1095 140.344 46.4261 138.297 42.0439C135.559 36.1809 132.331 30.829 128.738 26.1343C133.695 28.9374 138.366 32.297 142.654 36.1867C151.09 43.837 157.65 53.1388 161.992 63.4106ZM90.6653 48.5695C85.0991 48.5695 79.5878 48.794 74.1683 49.2303C76.4599 34.9087 79.8344 23.2735 83.7815 16.4358C86.0636 16.2349 88.3596 16.1307 90.6653 16.1307C92.9751 16.1307 95.2728 16.2356 97.5538 16.4384C101.571 23.3883 104.89 35.014 107.148 49.2365C101.751 48.7983 96.2395 48.5695 90.6653 48.5695ZM77.2043 169.786C73.1468 169.072 69.1983 168.038 65.3831 166.716C56.1412 158.754 48.8026 146.909 44.012 132.879C51.6827 134.868 59.9433 136.365 68.5585 137.316C70.5937 150.655 73.5548 161.923 77.2043 169.786ZM67.7779 131.746C58.6719 130.678 50.0167 128.982 42.1099 126.729C39.4826 117.238 37.9681 106.931 37.7468 96.2719H65.4772C65.5796 108.828 66.3843 120.866 67.7779 131.746ZM13.3042 96.2719H32.2936C32.4923 106.173 33.7693 115.804 35.9947 124.824C28.5893 122.31 21.9986 119.269 16.5072 115.771C14.6432 109.56 13.5392 103.025 13.3042 96.2719ZM19.3634 123.694C24.8097 126.534 30.9916 129.015 37.7283 131.094C41.202 142.453 46.2335 152.636 52.5328 160.895C37.7846 152.513 26.0419 139.429 19.3634 123.694Z" fill="#E65B7E"/>
</svg>
