<svg width="187" height="186" viewBox="0 0 187 186" fill="none" xmlns="http://www.w3.org/2000/svg">
<path d="M149.402 151.536C149.024 150.601 148.812 149.573 148.812 148.499C148.812 147.426 149.024 146.398 149.402 145.463C149.796 144.527 150.356 143.668 151.052 142.962L151.098 142.901C151.491 142.502 151.945 142.119 152.43 141.827C152.687 141.659 152.959 141.505 153.262 141.367V128.76H140.381C139.987 131.521 138.686 134.005 136.809 135.923C134.462 138.3 131.208 139.772 127.621 139.772H119.855V174.159H142.636C142.757 173.96 142.878 173.761 143.015 173.561C143.287 173.162 143.59 172.794 143.923 172.457C144.634 171.736 145.497 171.138 146.466 170.739C147.389 170.356 148.403 170.141 149.463 170.141C150.507 170.141 151.537 170.356 152.46 170.739C153.429 171.138 154.276 171.736 155.003 172.457C155.714 173.178 156.305 174.052 156.698 175.034C157.077 175.969 157.289 176.997 157.289 178.07C157.289 179.129 157.077 180.141 156.698 181.107C156.305 182.089 155.714 182.963 155.003 183.684C154.292 184.405 153.429 185.003 152.46 185.402C151.537 185.785 150.522 186 149.463 186C148.434 186 147.45 185.801 146.526 185.417L146.466 185.402C145.497 185.003 144.649 184.405 143.923 183.684C143.484 183.239 143.09 182.718 142.757 182.181C142.576 181.874 142.409 181.537 142.273 181.215H116.374C115.405 181.215 114.542 180.816 113.907 180.172C113.256 179.512 112.862 178.638 112.862 177.656V139.772H95.9092V170.969C96.1665 171.107 96.4238 171.245 96.6812 171.414C97.1504 171.705 97.5894 172.073 97.9678 172.457C98.6943 173.193 99.2695 174.052 99.6631 175.034C100.042 175.969 100.253 176.997 100.253 178.07C100.253 179.113 100.057 180.11 99.6782 181.046L99.6631 181.107C99.2695 182.089 98.6792 182.948 97.9678 183.684C97.2563 184.405 96.3936 185.003 95.4248 185.402C94.5015 185.785 93.4873 186 92.4277 186C91.3833 186 90.3691 185.785 89.4307 185.402C88.4619 185.003 87.5991 184.405 86.8877 183.684C86.1763 182.963 85.5859 182.089 85.1924 181.107C84.814 180.172 84.6021 179.144 84.6021 178.07C84.6021 177.027 84.7988 176.031 85.1772 175.095L85.1924 175.034C85.5859 174.052 86.1763 173.193 86.8877 172.457C87.2661 172.073 87.6748 171.736 88.1289 171.445L88.1895 171.399C88.4316 171.261 88.689 171.122 88.9463 170.984V139.772H66.332V155.938C66.332 156.92 65.9385 157.794 65.3027 158.438C64.667 159.082 63.8042 159.481 62.8354 159.481H46.7905C46.6694 159.727 46.5332 159.957 46.3818 160.202C46.1094 160.616 45.7915 161.015 45.4282 161.383L45.3677 161.444C44.6562 162.165 43.7935 162.763 42.8247 163.162C41.9014 163.546 40.8872 163.76 39.8276 163.76C38.7983 163.76 37.8145 163.561 36.8911 163.178L36.8306 163.162C35.8618 162.763 35.0142 162.165 34.2876 161.444C33.5762 160.724 32.9858 159.849 32.5923 158.868C32.2139 157.932 32.002 156.904 32.002 155.831C32.002 154.772 32.2139 153.745 32.5923 152.794C32.9858 151.812 33.5762 150.938 34.2876 150.217C35.0293 149.512 35.9072 148.914 36.876 148.515C37.7993 148.131 38.8135 147.917 39.873 147.917C40.9326 147.917 41.9468 148.131 42.8701 148.515C43.7935 148.914 44.6411 149.481 45.3374 150.202L45.3979 150.248C45.7915 150.647 46.1699 151.107 46.4575 151.598C46.6089 151.858 46.7754 152.134 46.9116 152.441H59.354V139.481C56.8867 138.929 54.6768 137.671 52.9663 135.938C50.6807 133.622 49.2729 130.462 49.2729 126.996V118.576H12.1274V141.659C12.3242 141.781 12.521 141.904 12.7178 142.042C13.1113 142.318 13.4595 142.625 13.8076 142.962C14.519 143.683 15.1094 144.558 15.5029 145.539C15.8813 146.475 16.0933 147.502 16.0933 148.576C16.0933 149.634 15.8813 150.677 15.5029 151.613C15.1094 152.595 14.519 153.453 13.8076 154.19C13.0962 154.911 12.2334 155.509 11.2646 155.907C10.3413 156.291 9.32715 156.506 8.26758 156.506C7.22314 156.506 6.22412 156.291 5.27051 155.907C4.30176 155.509 3.43896 154.911 2.72754 154.19C2.01611 153.469 1.42578 152.595 1.03223 151.613C0.638672 150.647 0.426758 149.619 0.426758 148.545C0.426758 147.502 0.623535 146.505 1.00195 145.57L1.01709 145.509C1.41064 144.527 2.00098 143.668 2.7124 142.932C3.15137 142.487 3.66602 142.088 4.1958 141.751C4.4834 141.567 4.83154 141.398 5.14941 141.26V115.033C5.14941 114.051 5.54297 113.177 6.17871 112.533C6.82959 111.873 7.69238 111.474 8.66113 111.474H49.2729V94.296H15.2759C15.1396 94.5568 15.0034 94.8175 14.8369 95.0783C14.5493 95.5537 14.186 95.9985 13.8076 96.382C13.0811 97.1182 12.2334 97.701 11.2646 98.0998C10.3413 98.4832 9.32715 98.698 8.26758 98.698C7.23828 98.698 6.25439 98.4986 5.33105 98.1151L5.27051 98.0998C4.30176 97.701 3.4541 97.1028 2.72754 96.382C2.01611 95.6611 1.42578 94.7868 1.03223 93.8052C0.653809 92.8696 0.441895 91.842 0.441895 90.7684C0.441895 89.7101 0.653809 88.6824 1.03223 87.7315C1.42578 86.7499 2.01611 85.8757 2.72754 85.1548C3.43896 84.4339 4.30176 83.8357 5.27051 83.437C6.20898 83.0382 7.20801 82.8235 8.28271 82.8235C9.31201 82.8235 10.2959 83.0228 11.2192 83.4063L11.2798 83.4216C12.2485 83.8204 13.0962 84.4186 13.8228 85.1394C14.2012 85.5229 14.5342 85.937 14.8369 86.3971L14.8823 86.4585C15.0186 86.7039 15.1548 86.9646 15.291 87.2254H49.2729V65.8907C49.2729 65.3692 49.3032 64.8477 49.3638 64.3262H30.1099C29.1411 64.3262 28.2783 63.9274 27.6426 63.2833C27.0068 62.6391 26.6133 61.7648 26.6133 60.7832V44.5253C26.3711 44.4026 26.144 44.2645 25.9019 44.1112C25.4932 43.8351 25.0996 43.513 24.7363 43.1449L24.6758 43.0835C23.9644 42.3627 23.374 41.4884 22.9805 40.5068C22.6021 39.5712 22.3901 38.5436 22.3901 37.4699C22.3901 36.427 22.5869 35.43 22.9653 34.4944L22.9805 34.4331C23.374 33.4515 23.9644 32.5926 24.6758 31.8564C25.3872 31.1355 26.25 30.5373 27.2188 30.1385C28.1421 29.7551 29.1562 29.5404 30.2158 29.5404C31.2603 29.5404 32.2744 29.7551 33.2129 30.1385C34.1816 30.5373 35.0444 31.1355 35.7559 31.8564C36.4521 32.6079 37.0425 33.4975 37.436 34.4791C37.8145 35.4147 38.0264 36.4423 38.0264 37.516C38.0264 38.5896 37.8145 39.6172 37.436 40.5528C37.0425 41.4884 36.4824 42.3473 35.7861 43.0529L35.7407 43.1142C35.3472 43.513 34.8931 43.8964 34.3936 44.1878C34.1362 44.3412 33.8638 44.5099 33.561 44.648V57.2556H52.5576V57.3476C52.6787 57.2095 52.8149 57.0715 52.936 56.9488C55.2822 54.5715 58.5366 53.099 62.124 53.099H69.4048V11.856H46.6543C46.5332 12.0554 46.4121 12.2548 46.2759 12.4542C46.0034 12.853 45.7007 13.2057 45.3677 13.5585C44.6562 14.2794 43.7935 14.8775 42.8247 15.2763C41.9014 15.6598 40.8872 15.8745 39.8276 15.8745C38.7832 15.8745 37.7539 15.6598 36.8306 15.2763C35.8618 14.8775 35.0142 14.2794 34.2876 13.5585C33.5762 12.8376 32.9858 11.9634 32.5923 10.9818C32.2139 10.0308 32.002 9.01855 32.002 7.92958C32.002 6.87128 32.2139 5.85899 32.5923 4.89272C32.9858 3.91111 33.5762 3.03686 34.2876 2.31599C34.999 1.59512 35.8618 0.996949 36.8306 0.598169C37.7539 0.214727 38.7681 0 39.8276 0C40.8569 0 41.8408 0.19939 42.7642 0.582832L42.8247 0.598169C43.7935 0.996949 44.6411 1.59512 45.3677 2.31599C45.8066 2.76078 46.2002 3.28226 46.5332 3.81908C46.7148 4.1105 46.8813 4.46326 47.0327 4.78536H72.9014C73.8701 4.78536 74.7329 5.18413 75.3687 5.82832C76.0195 6.48784 76.4131 7.36209 76.4131 8.3437V53.099H93.3662V15.0463C93.1089 14.9082 92.8516 14.7702 92.5942 14.6015C92.125 14.3101 91.686 13.9419 91.3076 13.5585C90.5811 12.8223 90.0059 11.9634 89.6123 10.9818C89.2339 10.0462 89.022 9.01855 89.022 7.94492C89.022 6.90195 89.2188 5.90501 89.5972 4.96941L89.6123 4.90806C90.0059 3.92645 90.5962 3.06754 91.3076 2.33133C92.019 1.61046 92.8818 1.01229 93.8506 0.613507C94.7739 0.230065 95.7881 0.0153377 96.8477 0.0153377C97.8921 0.0153377 98.9062 0.230065 99.8447 0.613507C100.813 1.01229 101.676 1.61046 102.388 2.33133C103.099 3.0522 103.689 3.92645 104.083 4.90806C104.461 5.84366 104.673 6.87128 104.673 7.94492C104.673 8.98788 104.477 9.98483 104.098 10.9204L104.083 10.9818C103.689 11.9634 103.099 12.8223 102.388 13.5585C102.009 13.9419 101.601 14.2794 101.146 14.5861L101.086 14.6321C100.844 14.7702 100.586 14.9082 100.329 15.0463V53.0837H122.928V30.0772C122.928 29.0956 123.322 28.2213 123.958 27.5771C124.593 26.933 125.456 26.5342 126.425 26.5342H142.485C142.606 26.2888 142.742 26.0587 142.894 25.8133C143.166 25.3992 143.484 25.0004 143.847 24.6323L143.908 24.571C144.619 23.8501 145.482 23.2519 146.451 22.8531C147.374 22.4697 148.388 22.255 149.448 22.255C150.477 22.255 151.461 22.4544 152.384 22.8378L152.445 22.8531C153.414 23.2519 154.261 23.8501 154.988 24.571C155.699 25.2918 156.29 26.1661 156.683 27.1477C157.062 28.0833 157.273 29.1109 157.273 30.1845C157.273 31.2428 157.062 32.2705 156.683 33.2214C156.29 34.203 155.699 35.0773 154.988 35.7981C154.231 36.5037 153.368 37.1018 152.399 37.5006C151.476 37.8841 150.462 38.0988 149.402 38.0988C148.343 38.0988 147.329 37.8841 146.405 37.5006C145.482 37.1018 144.634 36.5343 143.938 35.8288L143.877 35.7828C143.484 35.384 143.105 34.9239 142.818 34.4331C142.651 34.1723 142.5 33.8963 142.364 33.5895H129.921V53.2831C132.601 53.7586 134.992 55.0776 136.824 56.9335C139.109 59.2494 140.517 62.409 140.517 65.8753V67.4551H174.726V44.3719C174.529 44.2492 174.333 44.1265 174.136 43.9885C173.742 43.7124 173.394 43.4056 173.061 43.0682C172.35 42.3473 171.759 41.4731 171.366 40.4915C170.987 39.5559 170.775 38.5282 170.775 37.4546C170.775 36.3963 170.987 35.3533 171.366 34.4177C171.759 33.4361 172.35 32.5772 173.061 31.841C173.772 31.1201 174.635 30.522 175.604 30.1232C176.527 29.7398 177.542 29.525 178.601 29.525C179.646 29.525 180.66 29.7398 181.598 30.1232C182.567 30.522 183.43 31.1201 184.141 31.841C184.853 32.5619 185.443 33.4361 185.836 34.4177C186.215 35.3533 186.427 36.381 186.427 37.4546C186.427 38.4976 186.23 39.4945 185.852 40.4301L185.836 40.4915C185.443 41.4731 184.853 42.332 184.141 43.0682C183.702 43.513 183.188 43.9118 182.658 44.2492C182.355 44.4333 182.022 44.602 181.704 44.7553V70.9674C181.704 71.949 181.311 72.8233 180.675 73.4675C180.024 74.127 179.161 74.5258 178.192 74.5258H140.517V91.704H171.578C171.714 91.4432 171.85 91.1825 172.017 90.9217C172.319 90.4463 172.667 90.0015 173.046 89.618C173.772 88.8818 174.62 88.299 175.589 87.9002C176.512 87.5168 177.526 87.3021 178.586 87.3021C179.615 87.3021 180.599 87.5014 181.522 87.8849L181.583 87.9002C182.552 88.299 183.399 88.8972 184.126 89.618C184.837 90.3389 185.428 91.2132 185.821 92.1948C186.2 93.1304 186.412 94.158 186.412 95.2316C186.412 96.2899 186.2 97.3176 185.821 98.2685C185.428 99.2501 184.837 100.124 184.126 100.845C183.415 101.566 182.552 102.164 181.583 102.563C180.66 102.946 179.646 103.161 178.586 103.161C177.557 103.161 176.573 102.962 175.649 102.578L175.589 102.563C174.62 102.164 173.772 101.566 173.046 100.845C172.667 100.462 172.334 100.048 172.032 99.5875L171.986 99.5262C171.85 99.2808 171.714 99.02 171.578 98.7593H140.517V121.658H156.744C157.712 121.658 158.575 122.057 159.211 122.701C159.847 123.346 160.24 124.22 160.24 125.201V141.475C160.482 141.597 160.709 141.735 160.952 141.904C161.36 142.18 161.754 142.502 162.117 142.87L162.178 142.932C162.889 143.653 163.479 144.527 163.873 145.509C164.251 146.444 164.463 147.472 164.463 148.545C164.463 149.588 164.267 150.585 163.888 151.521L163.873 151.582C163.479 152.564 162.889 153.423 162.178 154.159C161.466 154.88 160.604 155.478 159.635 155.877C158.711 156.26 157.697 156.475 156.638 156.475C155.593 156.475 154.579 156.26 153.641 155.877C152.672 155.478 151.809 154.88 151.098 154.159C150.401 153.407 149.796 152.518 149.402 151.536ZM81.3931 79.9706H108.397C110.501 79.9706 112.211 81.7038 112.211 83.8357V109.036C112.211 111.167 110.501 112.901 108.397 112.901H81.3931C79.2891 112.901 77.5786 111.167 77.5786 109.036V83.8357C77.5786 81.7038 79.2891 79.9706 81.3931 79.9706ZM127.636 59.9396H62.1392C60.6406 59.9396 59.2632 60.5685 58.2642 61.5961C57.1895 62.6851 56.5234 64.2035 56.5234 65.8907V126.981C56.5234 128.668 57.1895 130.186 58.2642 131.275C59.2783 132.303 60.6406 132.932 62.1392 132.932H127.636C129.134 132.932 130.512 132.303 131.511 131.275C132.585 130.186 133.251 128.668 133.251 126.981V65.8907C133.251 64.2035 132.585 62.6851 131.511 61.5961C130.512 60.5685 129.134 59.9396 127.636 59.9396Z" fill="#E65B7E"/>
</svg>
