<svg width="188" height="186" viewBox="0 0 188 186" fill="none" xmlns="http://www.w3.org/2000/svg">
<path d="M92.1377 171.151L82.5548 177.541L9.03833 133.432V42.6249C9.03833 41.5972 8.63007 40.6115 7.90337 39.8848C7.17667 39.1581 6.19104 38.7499 5.16333 38.7499C4.13562 38.7499 3.14999 39.1581 2.42329 39.8848C1.69659 40.6115 1.28833 41.5972 1.28833 42.6249V135.625C1.28846 136.294 1.4616 136.951 1.79093 137.533C2.12025 138.115 2.59455 138.601 3.16771 138.946L80.6677 185.446C81.2699 185.809 81.96 186.001 82.6633 186C83.4286 185.999 84.1765 185.772 84.814 185.349L96.439 177.599C96.8623 177.316 97.2259 176.953 97.509 176.53C97.7921 176.107 97.9891 175.633 98.0888 175.134C98.1884 174.635 98.1888 174.121 98.0899 173.622C97.991 173.122 97.7948 172.648 97.5123 172.224C97.2299 171.801 96.8669 171.437 96.4439 171.154C96.021 170.871 95.5464 170.674 95.0473 170.574C94.5482 170.475 94.0344 170.474 93.5352 170.573C93.0359 170.672 92.5611 170.868 92.1377 171.151Z" fill="#E65B7E"/>
<path d="M5.16333 31H144.663C145.691 31 146.677 30.5917 147.403 29.865C148.13 29.1383 148.538 28.1527 148.538 27.125C148.538 26.0973 148.13 25.1117 147.403 24.385C146.677 23.6583 145.691 23.25 144.663 23.25H9.03833V11.625C9.03833 10.5973 9.44659 9.61166 10.1733 8.88496C10.9 8.15826 11.8856 7.75 12.9133 7.75H152.413C153.441 7.75 154.427 8.15826 155.153 8.88496C155.88 9.61166 156.288 10.5973 156.288 11.625V85.25C156.288 86.2777 156.697 87.2633 157.423 87.99C158.15 88.7167 159.136 89.125 160.163 89.125C161.191 89.125 162.177 88.7167 162.903 87.99C163.63 87.2633 164.038 86.2777 164.038 85.25V11.625C164.038 8.54186 162.814 5.58499 160.633 3.40488C158.453 1.22477 155.496 0 152.413 0H12.9133C9.83019 0 6.87332 1.22477 4.69321 3.40488C2.5131 5.58499 1.28833 8.54186 1.28833 11.625V27.125C1.28833 28.1527 1.69659 29.1383 2.42329 29.865C3.14999 30.5917 4.13562 31 5.16333 31Z" fill="#E65B7E"/>
<path d="M24.5381 38.7499C23.5103 38.7499 22.5247 39.1581 21.798 39.8848C21.0713 40.6116 20.6631 41.5972 20.6631 42.6249V124C20.6632 124.669 20.8363 125.326 21.1657 125.908C21.495 126.49 21.9693 126.976 22.5424 127.321L80.6674 162.196C81.5473 162.703 82.5911 162.845 83.5742 162.59C84.5574 162.336 85.4014 161.705 85.9245 160.835C86.4476 159.964 86.6081 158.923 86.3713 157.936C86.1346 156.948 85.5196 156.093 84.6587 155.554L28.4131 121.807V42.6249C28.4131 41.5972 28.0048 40.6116 27.2781 39.8848C26.5514 39.1581 25.5658 38.7499 24.5381 38.7499Z" fill="#E65B7E"/>
<path d="M109.789 92.9999C110.816 92.9999 111.802 92.5916 112.529 91.8649C113.255 91.1382 113.664 90.1526 113.664 89.1249V77.4999C113.664 74.4167 112.439 71.4599 110.259 69.2798C108.079 67.0997 105.122 65.8749 102.039 65.8749V58.1249C102.084 56.5861 101.814 55.0543 101.245 53.6235C100.677 52.1928 99.8225 50.8932 98.7339 49.8046C97.6453 48.716 96.3458 47.8614 94.915 47.2931C93.4842 46.7248 91.9524 46.4549 90.4136 46.4999H74.9136C73.3748 46.4549 71.843 46.7248 70.4122 47.2931C68.9814 47.8614 67.6819 48.716 66.5933 49.8046C65.5047 50.8932 64.6501 52.1928 64.0818 53.6235C63.5135 55.0543 63.2436 56.5861 63.2886 58.1249V65.8749C60.2055 65.8749 57.2486 67.0997 55.0685 69.2798C52.8884 71.4599 51.6636 74.4167 51.6636 77.4999V108.5C51.6636 111.583 52.8884 114.54 55.0685 116.72C57.2486 118.9 60.2055 120.125 63.2886 120.125H86.5386C87.5663 120.125 88.5519 119.717 89.2786 118.99C90.0053 118.263 90.4136 117.278 90.4136 116.25C90.4136 115.222 90.0053 114.237 89.2786 113.51C88.5519 112.783 87.5663 112.375 86.5386 112.375H63.2886C62.2609 112.375 61.2753 111.967 60.5486 111.24C59.8219 110.513 59.4136 109.528 59.4136 108.5V77.4999C59.4136 76.4722 59.8219 75.4866 60.5486 74.7598C61.2753 74.0331 62.2609 73.6249 63.2886 73.6249H82.6636C83.6913 73.6249 84.6769 73.2166 85.4036 72.4899C86.1303 71.7632 86.5386 70.7776 86.5386 69.7499C86.5386 68.7222 86.1303 67.7366 85.4036 67.0099C84.6769 66.2832 83.6913 65.8749 82.6636 65.8749H71.0386V58.1714C70.9829 57.6468 71.0444 57.1164 71.2188 56.6185C71.3931 56.1205 71.6759 55.6676 72.0467 55.2923C72.4176 54.9171 72.8671 54.6289 73.3629 54.4486C73.8587 54.2683 74.3884 54.2005 74.9136 54.2499H90.3671C90.8917 54.1942 91.4221 54.2557 91.9201 54.4301C92.418 54.6044 92.8709 54.8872 93.2462 55.2581C93.6214 55.6289 93.9096 56.0784 94.0899 56.5742C94.2702 57.07 94.3381 57.5997 94.2886 58.1249V69.7499C94.2886 70.7776 94.6969 71.7632 95.4236 72.4899C96.1503 73.2166 97.1359 73.6249 98.1636 73.6249H102.039C103.066 73.6249 104.052 74.0331 104.779 74.7598C105.505 75.4866 105.914 76.4722 105.914 77.4999V89.1249C105.914 90.1526 106.322 91.1382 107.049 91.8649C107.775 92.5916 108.761 92.9999 109.789 92.9999Z" fill="#E65B7E"/>
<path d="M82.6633 104.625C83.691 104.625 84.6767 104.217 85.4034 103.49C86.1301 102.763 86.5383 101.778 86.5383 100.75V89.125H90.4133C91.441 89.125 92.4267 88.7167 93.1534 87.99C93.8801 87.2633 94.2883 86.2777 94.2883 85.25C94.2883 84.2223 93.8801 83.2367 93.1534 82.51C92.4267 81.7833 91.441 81.375 90.4133 81.375H74.9133C73.8856 81.375 72.9 81.7833 72.1733 82.51C71.4466 83.2367 71.0383 84.2223 71.0383 85.25C71.0383 86.2777 71.4466 87.2633 72.1733 87.99C72.9 88.7167 73.8856 89.125 74.9133 89.125H78.7883V100.75C78.7883 101.778 79.1966 102.763 79.9233 103.49C80.65 104.217 81.6356 104.625 82.6633 104.625Z" fill="#E65B7E"/>
<path d="M140.788 93C131.592 93 122.601 95.7272 114.954 100.837C107.307 105.946 101.347 113.208 97.8279 121.705C94.3085 130.202 93.3876 139.552 95.1818 148.572C96.9761 157.592 101.405 165.877 107.908 172.38C114.411 178.884 122.697 183.312 131.717 185.107C140.737 186.901 150.086 185.98 158.583 182.46C167.08 178.941 174.342 172.981 179.452 165.334C184.561 157.687 187.288 148.697 187.288 139.5C187.275 127.172 182.372 115.352 173.654 106.634C164.937 97.9167 153.117 93.0133 140.788 93ZM140.788 178.25C133.124 178.25 125.632 175.977 119.26 171.719C112.888 167.462 107.921 161.41 104.988 154.329C102.055 147.248 101.288 139.457 102.783 131.94C104.278 124.423 107.969 117.519 113.388 112.1C118.807 106.68 125.712 102.99 133.229 101.495C140.745 99.9994 148.537 100.767 155.617 103.7C162.698 106.633 168.75 111.599 173.008 117.972C177.266 124.344 179.538 131.836 179.538 139.5C179.527 149.774 175.441 159.623 168.176 166.888C160.912 174.153 151.062 178.239 140.788 178.25Z" fill="#E65B7E"/>
<path d="M157.424 121.26L129.163 149.52L124.153 144.51C123.422 143.804 122.443 143.414 121.427 143.423C120.411 143.431 119.439 143.839 118.721 144.557C118.002 145.276 117.595 146.248 117.586 147.264C117.577 148.28 117.968 149.259 118.674 149.989L126.424 157.739C127.15 158.466 128.136 158.874 129.163 158.874C130.191 158.874 131.176 158.466 131.903 157.739L162.903 126.739C163.609 126.009 163.999 125.03 163.991 124.014C163.982 122.998 163.574 122.026 162.856 121.307C162.137 120.589 161.165 120.181 160.149 120.173C159.133 120.164 158.155 120.554 157.424 121.26Z" fill="#E65B7E"/>
<path d="M136.913 42.6249V81.3749C136.913 82.4026 137.321 83.3883 138.048 84.115C138.775 84.8417 139.761 85.2499 140.788 85.2499C141.816 85.2499 142.802 84.8417 143.528 84.115C144.255 83.3883 144.663 82.4026 144.663 81.3749V42.6249C144.663 41.5972 144.255 40.6116 143.528 39.8848C142.802 39.1581 141.816 38.7499 140.788 38.7499C139.761 38.7499 138.775 39.1581 138.048 39.8848C137.321 40.6116 136.913 41.5972 136.913 42.6249Z" fill="#E65B7E"/>
</svg>
