<svg width="24" height="24" viewBox="0 0 24 24" fill="none" xmlns="http://www.w3.org/2000/svg">
<path d="M17.4145 10.7536V7.42131C17.4154 6.68758 17.2671 5.96132 16.9787 5.28664C16.6903 4.61196 16.2678 4.00292 15.7369 3.49651C15.2059 2.9901 14.5776 2.59688 13.89 2.34072C13.2025 2.08456 12.47 1.9708 11.7372 2.00636C10.3292 2.09999 9.01052 2.72937 8.05221 3.76514C7.09391 4.80092 6.56873 6.16442 6.58462 7.57542V7.62957C6.58462 7.90575 6.69434 8.17062 6.88962 8.36591C7.08491 8.5612 7.34978 8.67091 7.62596 8.67091C7.90214 8.67091 8.16701 8.5612 8.36229 8.36591C8.55758 8.17062 8.66729 7.90575 8.66729 7.62957V7.53794C8.65335 6.67742 8.96556 5.84351 9.5412 5.20374C10.1168 4.56396 10.9133 4.16572 11.7705 4.08903C12.227 4.05757 12.685 4.12046 13.1161 4.27378C13.5473 4.4271 13.9422 4.66756 14.2763 4.98019C14.6104 5.29281 14.8766 5.67089 15.0582 6.09088C15.2398 6.51086 15.3329 6.96374 15.3318 7.42131V10.7536H6.58462C6.03227 10.7536 5.50253 10.973 5.11195 11.3636C4.72138 11.7542 4.50195 12.2839 4.50195 12.8363L4.50195 19.9173C4.50195 20.1908 4.55582 20.4617 4.66049 20.7143C4.76515 20.967 4.91856 21.1966 5.11195 21.39C5.30535 21.5834 5.53494 21.7368 5.78762 21.8415C6.0403 21.9461 6.31112 22 6.58462 22H17.4145C17.688 22 17.9588 21.9461 18.2115 21.8415C18.4642 21.7368 18.6938 21.5834 18.8872 21.39C19.0806 21.1966 19.234 20.967 19.3386 20.7143C19.4433 20.4617 19.4972 20.1908 19.4972 19.9173V12.8363C19.4972 12.2839 19.2778 11.7542 18.8872 11.3636C18.4966 10.973 17.9669 10.7536 17.4145 10.7536ZM11.9996 18.0429C11.67 18.0429 11.3479 17.9452 11.0739 17.7621C10.7999 17.5791 10.5864 17.3188 10.4603 17.0144C10.3342 16.7099 10.3012 16.3749 10.3654 16.0517C10.4297 15.7285 10.5884 15.4317 10.8214 15.1987C11.0544 14.9656 11.3513 14.807 11.6745 14.7427C11.9977 14.6784 12.3327 14.7114 12.6372 14.8375C12.9416 14.9636 13.2018 15.1771 13.3849 15.4511C13.568 15.7251 13.6657 16.0473 13.6657 16.3768C13.6657 16.8187 13.4902 17.2425 13.1777 17.5549C12.8652 17.8674 12.4415 18.0429 11.9996 18.0429Z" fill="white"/>
</svg>
