<svg width="32" height="32" viewBox="0 0 32 32" fill="none" xmlns="http://www.w3.org/2000/svg">
<g clip-path="url(#clip0_2292_4820)">
<path d="M20 21.3326V18.6659C20.6 18.3686 22.316 16.3259 22.496 14.7299C22.968 14.6939 23.7093 14.2606 23.928 12.5499C24.0453 11.6313 23.5787 11.1153 23.296 10.9526C23.296 10.9526 24 9.61528 24 8.00061C24 4.76328 22.7293 2.00061 20 2.00061C20 2.00061 19.052 0.000610352 16 0.000610352C10.344 0.000610352 8 3.62861 8 8.00061C8 9.47261 8.704 10.9526 8.704 10.9526C8.42133 11.1153 7.95467 11.6326 8.072 12.5499C8.29067 14.2606 9.032 14.6939 9.504 14.7299C9.684 16.3259 11.4 18.3686 12 18.6659V21.3326C10.6667 25.3326 0 22.6659 0 31.9993H32C32 22.6659 21.3333 25.3326 20 21.3326Z" fill="black" fill-opacity="0.08"/>
</g>
<defs>
<clipPath id="clip0_2292_4820">
<rect width="32" height="32" fill="white"/>
</clipPath>
</defs>
</svg>
