<svg width="24" height="24" viewBox="0 0 24 24" fill="none" xmlns="http://www.w3.org/2000/svg">
<path d="M17.4167 10.75V7.41667C17.4167 5.98008 16.846 4.60233 15.8302 3.5865C14.8143 2.57068 13.4366 2 12 2C10.5634 2 9.18566 2.57068 8.16984 3.5865C7.15402 4.60233 6.58333 5.98008 6.58333 7.41667V10.75C6.0308 10.75 5.50089 10.9695 5.11019 11.3602C4.71949 11.7509 4.5 12.2808 4.5 12.8333L4.5 19.9167C4.5 20.1903 4.55389 20.4612 4.65858 20.7139C4.76328 20.9667 4.91674 21.1963 5.11019 21.3898C5.30365 21.5833 5.53331 21.7367 5.78608 21.8414C6.03884 21.9461 6.30975 22 6.58333 22H17.4167C17.6903 22 17.9612 21.9461 18.2139 21.8414C18.4667 21.7367 18.6964 21.5833 18.8898 21.3898C19.0833 21.1963 19.2367 20.9667 19.3414 20.7139C19.4461 20.4612 19.5 20.1903 19.5 19.9167V12.8333C19.5 12.2808 19.2805 11.7509 18.8898 11.3602C18.4991 10.9695 17.9692 10.75 17.4167 10.75ZM12 18.0417C11.6704 18.0417 11.3481 17.9439 11.074 17.7608C10.8 17.5776 10.5863 17.3173 10.4602 17.0128C10.3341 16.7083 10.301 16.3732 10.3654 16.0498C10.4297 15.7265 10.5884 15.4296 10.8215 15.1965C11.0546 14.9634 11.3515 14.8047 11.6748 14.7404C11.9982 14.676 12.3333 14.7091 12.6378 14.8352C12.9423 14.9613 13.2026 15.175 13.3858 15.449C13.5689 15.7231 13.6667 16.0454 13.6667 16.375C13.6667 16.817 13.4911 17.2409 13.1785 17.5535C12.866 17.8661 12.442 18.0417 12 18.0417ZM15.3333 10.75H8.66667V7.41667C8.66667 6.53261 9.01786 5.68477 9.64298 5.05964C10.2681 4.43452 11.1159 4.08333 12 4.08333C12.8841 4.08333 13.7319 4.43452 14.357 5.05964C14.9821 5.68477 15.3333 6.53261 15.3333 7.41667V10.75Z" fill="#E65B7E"/>
</svg>
