<svg width="24" height="24" viewBox="0 0 24 24" fill="none" xmlns="http://www.w3.org/2000/svg">
<path d="M20.7923 11.2385C19.0303 8.2484 15.7441 6.25 12 6.25C8.25438 6.25 4.96889 8.24981 3.2077 11.2385C3.07172 11.4692 3 11.7322 3 12C3 12.2678 3.07172 12.5308 3.2077 12.7616C4.96973 15.7516 8.25594 17.75 12 17.75C15.7456 17.75 19.0311 15.7502 20.7923 12.7615C20.9283 12.5308 21 12.2678 21 12C21 11.7322 20.9283 11.4692 20.7923 11.2385ZM12 16.25C9.65119 16.25 7.75001 14.3491 7.75001 12C7.75001 9.65118 9.65082 7.75 12 7.75C14.3488 7.75 16.25 9.65081 16.25 12C16.25 14.3488 14.3492 16.25 12 16.25ZM15.25 12C15.25 13.7949 13.7949 15.25 12 15.25C10.2051 15.25 8.75001 13.7949 8.75001 12C8.75001 11.4466 8.88847 10.9256 9.13238 10.4696L9.13235 10.4706C9.13235 11.2097 9.7315 11.8088 10.4706 11.8088C11.2097 11.8088 11.8088 11.2096 11.8088 10.4706C11.8088 9.73149 11.2097 9.13234 10.4706 9.13234L10.4696 9.13237C10.9257 8.88846 11.4466 8.75 12 8.75C13.7949 8.75 15.25 10.2051 15.25 12Z" fill="#E65B7E"/>
</svg>
