<svg width="24" height="24" viewBox="0 0 24 24" fill="none" xmlns="http://www.w3.org/2000/svg">
<path d="M11.9592 16.2495L12.9773 17.7039C12.6524 17.7346 12.3263 17.7499 12 17.75C8.25595 17.75 4.96973 15.7516 3.2077 12.7615C3.07172 12.5308 3 12.2678 3 12C3 11.7321 3.07172 11.4692 3.2077 11.2384C3.95842 9.96449 4.98623 8.87046 6.20845 8.03415L7.99211 10.5822C7.83551 11.0256 7.75001 11.5027 7.75001 12C7.75001 14.3355 9.62923 16.2276 11.9592 16.2495ZM20.7923 12.7615C19.8027 14.4408 18.3315 15.8071 16.5681 16.6826L16.5684 16.6831L17.8644 18.5331C18.1019 18.8725 18.0194 19.34 17.68 19.5775L17.2703 19.8643C16.9309 20.1018 16.4634 20.0193 16.2259 19.68L6.13564 5.46687C5.89814 5.12749 5.98064 4.65999 6.32001 4.42249L6.7297 4.13562C7.06908 3.89812 7.53658 3.98062 7.77408 4.31999L9.36901 6.58927C10.2088 6.36799 11.0908 6.24999 12 6.24999C15.7441 6.24999 19.0303 8.2484 20.7923 11.2385C20.9283 11.4692 21 11.7322 21 12C21 12.2678 20.9283 12.5308 20.7923 12.7615ZM16.25 12C16.25 9.6508 14.3488 7.74999 12 7.74999C11.4394 7.74999 10.9045 7.85852 10.4147 8.05537L11.0178 8.90093C11.8262 8.64559 12.7379 8.70834 13.5303 9.13249H13.5294C12.7903 9.13249 12.1913 9.73156 12.1913 10.4706C12.1913 11.2089 12.7896 11.8087 13.5294 11.8087C14.2684 11.8087 14.8675 11.2097 14.8675 10.4706V10.4697C15.4444 11.5475 15.3773 12.9045 14.6097 13.9369V13.9372L15.2133 14.7828C15.8593 14.0375 16.25 13.0648 16.25 12ZM11.188 15.1477L8.76514 11.6866C8.60845 13.3236 9.6812 14.7601 11.188 15.1477Z" fill="#B7B7B7"/>
</svg>
