<svg width="20" height="20" viewBox="0 0 20 20" fill="none" xmlns="http://www.w3.org/2000/svg">
<path d="M10.3864 13.0537C11.2697 11.9994 11.6992 11.0333 11.6992 10.1003C11.6992 8.39846 10.3146 7.01388 8.61271 7.01388C7.72387 7.01388 6.87745 7.39837 6.29041 8.06873L5.84958 8.57218L5.40876 8.06873C4.82176 7.39837 3.9753 7.01388 3.08645 7.01388C1.38459 7.01388 0 8.39846 0 10.1003C0 11.0333 0.429421 11.9994 1.31275 13.0537C2.28172 14.2102 3.80709 15.457 5.84958 16.7624C7.89208 15.457 9.41745 14.2102 10.3864 13.0537Z" fill="#E65B7E"/>
<path d="M15.0345 2.54468C13.5443 2.54468 12.2085 3.20195 11.2984 4.24131C10.3883 3.20195 9.05248 2.54468 7.56238 2.54468C5.40352 2.54468 3.56689 3.92255 2.88289 5.84672C3.94303 5.79653 5.04144 6.17173 5.84954 6.86119C6.61561 6.20759 7.5939 5.84172 8.61267 5.84172C10.9607 5.84172 12.871 7.75199 12.871 10.1001C12.871 11.3028 12.3373 12.5497 11.2847 13.8061C10.6961 14.5085 9.94949 15.2191 9.03072 15.9492C9.72179 16.4388 10.4762 16.9407 11.2984 17.4555C17.6739 13.4637 20 10.2471 20 7.51015C20 4.76784 17.7768 2.54468 15.0345 2.54468Z" fill="#E65B7E"/>
</svg>
