<svg width="36" height="37" viewBox="0 0 36 37" fill="none" xmlns="http://www.w3.org/2000/svg">
<rect y="0.92334" width="36" height="36" rx="6" fill="#848484"/>
<path d="M24.4 16.1233L18 20.1233L11.6 16.1233V14.5233L18 18.5233L24.4 14.5233V16.1233ZM24.4 12.9233H11.6C10.712 12.9233 10 13.6353 10 14.5233V24.1233C10 24.5477 10.1686 24.9546 10.4686 25.2547C10.7687 25.5548 11.1757 25.7233 11.6 25.7233H24.4C24.8243 25.7233 25.2313 25.5548 25.5314 25.2547C25.8314 24.9546 26 24.5477 26 24.1233V14.5233C26 13.6353 25.28 12.9233 24.4 12.9233Z" fill="white"/>
</svg>
