<svg width="36" height="37" viewBox="0 0 36 37" fill="none" xmlns="http://www.w3.org/2000/svg">
<rect y="0.92334" width="36" height="36" rx="6" fill="#1DA1F2"/>
<path d="M24.6201 15.8378C24.6307 15.995 24.6307 16.1521 24.6307 16.3093C24.6307 21.1029 21.1938 26.6263 14.912 26.6263C12.9767 26.6263 11.1789 26.0313 9.66663 24.9985C9.94159 25.0322 10.206 25.0434 10.4915 25.0434C12.0883 25.0434 13.5583 24.4709 14.7322 23.4942C13.2305 23.4605 11.972 22.4165 11.5384 20.9795C11.75 21.0131 11.9615 21.0356 12.1836 21.0356C12.4902 21.0356 12.7969 20.9907 13.0825 20.9121C11.5173 20.5753 10.3434 19.1159 10.3434 17.3534V17.3085C10.7981 17.5779 11.327 17.7463 11.8874 17.7687C10.9673 17.1176 10.3646 16.0062 10.3646 14.7488C10.3646 14.0753 10.5338 13.4578 10.8299 12.9189C12.5114 15.1193 15.0389 16.5562 17.873 16.7134C17.8202 16.444 17.7884 16.1634 17.7884 15.8827C17.7884 13.8844 19.3113 12.2566 21.2043 12.2566C22.1878 12.2566 23.0761 12.6944 23.7 13.4017C24.472 13.2445 25.2123 12.9414 25.868 12.526C25.6142 13.368 25.0748 14.0753 24.3663 14.5243C25.0537 14.4458 25.7199 14.2436 26.3333 13.963C25.8681 14.6815 25.2864 15.3213 24.6201 15.8378V15.8378Z" fill="white"/>
</svg>
