<svg width="48" height="48" viewBox="0 0 48 48" fill="none" xmlns="http://www.w3.org/2000/svg">
<g clip-path="url(#clip0_2559_109455)">
<path d="M12.0891 3.75113L14.2808 3.68438C14.7301 3.67069 14.9332 3.11625 14.5992 2.8155L13.2035 1.55897C12.5945 1.01063 12.9824 0 13.8019 0H19.3742H28.8139C32.5317 0 35.5455 3.01378 35.5455 6.73153V16.2369H12.6427V8.42363C12.6427 7.82269 12.5012 7.23019 12.2294 6.69413L11.3602 4.97963C11.0798 4.42669 11.4695 3.77006 12.0891 3.75113V3.75113Z" fill="#365E7D"/>
<path d="M28.8138 0H26.7224C30.4402 0 33.4539 3.01378 33.4539 6.73153V16.2369H35.5453V6.73153C35.5453 3.01378 32.5315 0 28.8138 0V0Z" fill="#2B4D66"/>
<path d="M37.4341 47.9874H10.5658C10.1745 47.9874 9.8573 47.6702 9.8573 47.279V33.7025C9.8573 28.5172 14.0609 24.3136 19.2462 24.3136H28.7537C33.9391 24.3136 38.1426 28.5172 38.1426 33.7025V47.279C38.1426 47.6703 37.8255 47.9874 37.4341 47.9874Z" fill="#61A2F9"/>
<path d="M28.7538 24.3136H26.0961C31.2814 24.3136 35.4849 28.5172 35.4849 33.7025V47.9874H37.4342C37.8255 47.9874 38.1427 47.6702 38.1427 47.279V33.7025C38.1427 28.5172 33.9391 24.3136 28.7538 24.3136Z" fill="#5490F9"/>
<path d="M23.9999 31.5653L21.3848 33.4736C21.1406 33.6519 20.7937 33.5439 20.6938 33.2586L17.5114 24.1759L19.4185 22.3097L20.7092 25.8656L23.9999 31.5653Z" fill="#F6F1F1"/>
<path d="M24 31.5653L26.6151 33.4736C26.8593 33.6519 27.2062 33.5439 27.3061 33.2586L30.4885 24.1759L28.5814 22.3097L27.2907 25.8656L24 31.5653Z" fill="#F6F1F1"/>
<path d="M24 31.5653L27.2906 25.8657H20.7094L24 31.5653Z" fill="#E2A770"/>
<path d="M24 27.5632C18.9514 27.5632 14.8588 23.4706 14.8588 18.422V10.5065C14.8588 9.85441 15.0354 9.24963 15.3405 8.73269C16.2918 7.12132 18.4655 6.75869 19.9518 7.8955C22.6794 9.98163 25.6595 10.6534 28.9564 9.55094C30.9296 8.89113 33.0442 10.2428 33.1375 12.3213C33.1398 12.3738 33.1411 12.4267 33.1411 12.4798V18.422C33.1412 23.4706 29.0485 27.5632 24 27.5632V27.5632Z" fill="#F1D0A5"/>
<path d="M33.1376 12.3213C33.0442 10.2428 30.9297 8.89107 28.9565 9.55098C28.9394 9.5567 28.9224 9.56166 28.9052 9.56729C30.0459 9.96948 30.9257 10.9974 30.9852 12.3213C30.9875 12.3739 30.9887 12.4268 30.9887 12.4798V18.4221C30.9887 23.1065 27.4651 26.9672 22.9237 27.4999C23.2768 27.5413 23.6357 27.5633 23.9999 27.5633C29.0484 27.5633 33.1411 23.4706 33.1411 18.4221V12.4798C33.1412 12.4267 33.14 12.3739 33.1376 12.3213Z" fill="#F1B986"/>
<path d="M19.8073 16.2649C19.4073 16.2649 19.0831 15.9407 19.0831 15.5408V14.5324C19.0831 14.1325 19.4073 13.8083 19.8073 13.8083C20.2072 13.8083 20.5314 14.1325 20.5314 14.5324V15.5408C20.5314 15.9407 20.2072 16.2649 19.8073 16.2649Z" fill="#2B4D66"/>
<path d="M28.1925 16.2649C27.7926 16.2649 27.4684 15.9407 27.4684 15.5408V14.5324C27.4684 14.1325 27.7926 13.8083 28.1925 13.8083C28.5924 13.8083 28.9166 14.1325 28.9166 14.5324V15.5408C28.9167 15.9407 28.5925 16.2649 28.1925 16.2649Z" fill="#2B4D66"/>
<path d="M23.9999 23.2504C23.3349 23.2504 22.6699 23.0503 22.0232 22.65C21.6832 22.4394 21.5782 21.9931 21.7888 21.653C21.9993 21.3129 22.4457 21.2081 22.7857 21.4186C23.6142 21.9315 24.3859 21.9313 25.2144 21.4186C25.5543 21.2084 26.0008 21.313 26.2113 21.653C26.4219 21.9931 26.3168 22.4394 25.9768 22.65C25.3301 23.0502 24.665 23.2504 23.9999 23.2504V23.2504Z" fill="#DD636E"/>
<path d="M14.8587 17.5692H13.393C12.3762 17.5692 11.5519 16.7448 11.5519 15.728C11.5519 14.7112 12.3762 13.8868 13.393 13.8868H14.8587V17.5692Z" fill="#E2A770"/>
<path d="M33.6237 22.8053H27.4045C27.0046 22.8053 26.6804 22.4811 26.6804 22.0812C26.6804 21.6813 27.0046 21.3571 27.4045 21.3571H33.6237C33.9114 21.3571 34.1455 21.1231 34.1455 20.8355V17.3667C34.1455 16.9668 34.4696 16.6426 34.8696 16.6426C35.2695 16.6426 35.5937 16.9668 35.5937 17.3667V20.8355C35.5938 21.9216 34.7099 22.8053 33.6237 22.8053V22.8053Z" fill="#2B4D66"/>
<path d="M27.5112 23.1919H25.6155C25.1256 23.1919 24.7285 22.7948 24.7285 22.3049V21.9009C24.7285 21.411 25.1256 21.0139 25.6155 21.0139H27.5112C28.001 21.0139 28.3982 21.411 28.3982 21.9009V22.3049C28.3982 22.7949 28.001 23.1919 27.5112 23.1919Z" fill="#365E7D"/>
<path d="M33.9436 48H14.0564L12.2934 38.5424C12.1222 37.6234 12.8274 36.7745 13.7623 36.7745H34.2377C35.1726 36.7745 35.8778 37.6234 35.7066 38.5424L33.9436 48Z" fill="#365E7D"/>
<path d="M34.2376 36.7744H32.2766C33.2115 36.7744 33.9168 37.6233 33.7455 38.5423L31.9825 48H33.9435L35.7065 38.5423C35.8778 37.6233 35.1725 36.7744 34.2376 36.7744V36.7744Z" fill="#2B4D66"/>
<path d="M24 46.2784C25.1364 46.2784 26.0576 45.3572 26.0576 44.2209C26.0576 43.0845 25.1364 42.1633 24 42.1633C22.8637 42.1633 21.9425 43.0845 21.9425 44.2209C21.9425 45.3572 22.8637 46.2784 24 46.2784Z" fill="#F6F1F1"/>
<path d="M23.9999 42.1633C23.7264 42.1633 23.4658 42.2178 23.2271 42.3147C23.9801 42.6204 24.5117 43.3581 24.5117 44.2209C24.5117 45.0836 23.9801 45.8213 23.2271 46.127C23.4658 46.2239 23.7264 46.2784 23.9999 46.2784C25.1363 46.2784 26.0575 45.3572 26.0575 44.2209C26.0575 43.0845 25.1363 42.1633 23.9999 42.1633Z" fill="#DAE4EA"/>
<path d="M33.4308 36.7744H28.4822V35.2011C28.4822 34.7333 28.8614 34.3541 29.3291 34.3541H32.5837C33.0515 34.3541 33.4307 34.7333 33.4307 35.2011V36.7744H33.4308Z" fill="#F6F1F1"/>
<path d="M33.1411 18.3322H34.8696C36.2316 18.3322 37.3358 17.2281 37.3358 15.866V15.5899C37.3358 14.2279 36.2317 13.1237 34.8696 13.1237H33.1411V18.3322Z" fill="#61A2F9"/>
<path d="M34.8696 13.1237H33.1411V13.1242C34.494 13.1349 35.5875 14.2345 35.5875 15.5898V15.8659C35.5875 17.2212 34.494 18.3209 33.1411 18.3315V18.332H34.8696C36.2316 18.332 37.3358 17.2279 37.3358 15.8658V15.5897C37.3358 14.2278 36.2316 13.1237 34.8696 13.1237Z" fill="#5490F9"/>
</g>
<defs>
<clipPath id="clip0_2559_109455">
<rect width="48" height="48" fill="white"/>
</clipPath>
</defs>
</svg>
