<svg width="36" height="37" viewBox="0 0 36 37" fill="none" xmlns="http://www.w3.org/2000/svg">
<rect y="0.92334" width="36" height="36" rx="6" fill="#CB2027"/>
<path d="M18.4328 9.92334C14.7326 9.92334 11.0757 12.3901 11.0757 16.3825C11.0757 18.9214 12.5038 20.364 13.3694 20.364C13.7264 20.364 13.932 19.3686 13.932 19.0873C13.932 18.7519 13.0773 18.0378 13.0773 16.6421C13.0773 13.7426 15.2844 11.6869 18.1407 11.6869C20.5967 11.6869 22.4143 13.0826 22.4143 15.6468C22.4143 17.5618 21.6461 21.1538 19.1577 21.1538C18.2597 21.1538 17.4915 20.5046 17.4915 19.5742C17.4915 18.2109 18.4436 16.891 18.4436 15.4845C18.4436 13.097 15.0572 13.5298 15.0572 16.4149C15.0572 17.0208 15.1329 17.6916 15.4034 18.2434C14.9057 20.3856 13.8887 23.5773 13.8887 25.7844C13.8887 26.4661 13.9861 27.1369 14.051 27.8185C14.1736 27.9555 14.1123 27.9411 14.2998 27.8726C16.1175 25.3841 16.0526 24.8973 16.8748 21.6407C17.3184 22.4846 18.4653 22.939 19.3741 22.939C23.2041 22.939 24.9244 19.2063 24.9244 15.8415C24.9244 12.2603 21.8301 9.92334 18.4328 9.92334Z" fill="white"/>
</svg>
