<svg width="72" height="72" viewBox="0 0 72 72" fill="none" xmlns="http://www.w3.org/2000/svg">
<path d="M61.8164 15.8896C62.6053 26.1613 63 34.8472 63 41.9513C63 47.9068 58.7353 54.4633 51.9829 60.3374C46.2422 65.3314 39.5375 69 36 69C32.4602 69 25.7515 65.3708 20.0218 60.4282C13.2637 54.5984 9 48.0699 9 42.0971C9 34.9667 9.39525 26.2334 10.1851 15.8931C10.4166 12.8632 12.4535 10.2723 15.3432 9.33226C28.9442 4.90765 35.099 3 36 3C36.9136 3 43.0852 4.91255 56.6603 9.33232C59.5481 10.2725 61.5839 12.8615 61.8164 15.8896ZM58.8252 16.1193C58.6857 14.3024 57.4643 12.7491 55.7316 12.1849C43.6759 8.25987 36.3835 6 36 6C35.6291 6 28.3221 8.2648 16.2712 12.1851C14.5374 12.7491 13.3153 14.3036 13.1764 16.1216C12.3919 26.3913 12 35.0511 12 42.0971C12 46.9925 15.82 52.8416 21.9814 58.1566C27.211 62.6678 33.3706 66 36 66C38.6185 66 44.7753 62.6313 50.0139 58.074C56.1745 52.7148 60 46.8334 60 41.9513C60 34.932 59.6086 26.32 58.8252 16.1193ZM34.5 38.3787L45.4393 27.4393C46.8536 26.0251 48.9749 28.1464 47.5607 29.5607L35.5607 41.5607L35.5601 41.5612C35.2795 41.8416 34.9 42.023 34.5 42.027C34.1465 42.0235 33.8088 41.8813 33.5414 41.6546C33.513 41.6306 33.4855 41.6056 33.4588 41.5798C33.4523 41.5736 33.4458 41.5672 33.4393 41.5607L25.9393 34.0607C24.5251 32.6464 26.6464 30.5251 28.0607 31.9393L34.5 38.3787Z" fill="#23C554"/>
</svg>
