<svg width="36" height="37" viewBox="0 0 36 37" fill="none" xmlns="http://www.w3.org/2000/svg">
<rect y="0.92334" width="36" height="36" rx="6" fill="#E65B7E"/>
<path d="M20.7777 18.9234C20.7777 18.1566 20.5065 17.502 19.9639 16.9594C19.4214 16.4169 18.7667 16.1456 18 16.1456C17.2332 16.1456 16.5785 16.4169 16.036 16.9594C15.4934 17.502 15.2222 18.1566 15.2222 18.9234C15.2222 19.6902 15.4934 20.3449 16.036 20.8874C16.5785 21.4299 17.2332 21.7012 18 21.7012C18.7667 21.7012 19.4214 21.4299 19.9639 20.8874C20.5065 20.3449 20.7777 19.6902 20.7777 18.9234ZM22.2751 18.9234C22.2751 20.1098 21.8592 21.1189 21.0273 21.9508C20.1954 22.7827 19.1863 23.1986 18 23.1986C16.8136 23.1986 15.8045 22.7827 14.9726 21.9508C14.1407 21.1189 13.7248 20.1098 13.7248 18.9234C13.7248 17.7371 14.1407 16.728 14.9726 15.8961C15.8045 15.0642 16.8136 14.6482 18 14.6482C19.1863 14.6482 20.1954 15.0642 21.0273 15.8961C21.8592 16.728 22.2751 17.7371 22.2751 18.9234ZM23.447 14.4746C23.447 14.7495 23.3494 14.9846 23.154 15.1799C22.9587 15.3752 22.7236 15.4729 22.4487 15.4729C22.1739 15.4729 21.9388 15.3752 21.7434 15.1799C21.5481 14.9846 21.4505 14.7495 21.4505 14.4746C21.4505 14.1998 21.5481 13.9647 21.7434 13.7693C21.9388 13.574 22.1739 13.4764 22.4487 13.4764C22.7236 13.4764 22.9587 13.574 23.154 13.7693C23.3494 13.9647 23.447 14.1998 23.447 14.4746ZM18 12.0875C17.9493 12.0875 17.6726 12.0857 17.1699 12.0821C16.6671 12.0784 16.2855 12.0784 16.0251 12.0821C15.7647 12.0857 15.4157 12.0965 14.978 12.1146C14.5404 12.1327 14.1679 12.1689 13.8604 12.2231C13.553 12.2774 13.2944 12.3443 13.0846 12.4239C12.7229 12.5685 12.4046 12.7783 12.1297 13.0532C11.8548 13.3281 11.6451 13.6464 11.5004 14.0081C11.4208 14.2178 11.3539 14.4764 11.2997 14.7839C11.2454 15.0913 11.2092 15.4639 11.1911 15.9015C11.1731 16.3391 11.1622 16.6882 11.1586 16.9486C11.155 17.209 11.155 17.5906 11.1586 18.0933C11.1622 18.5961 11.164 18.8728 11.164 18.9234C11.164 18.9741 11.1622 19.2508 11.1586 19.7535C11.155 20.2562 11.155 20.6378 11.1586 20.8982C11.1622 21.1587 11.1731 21.5077 11.1911 21.9453C11.2092 22.383 11.2454 22.7555 11.2997 23.063C11.3539 23.3704 11.4208 23.629 11.5004 23.8388C11.6451 24.2005 11.8548 24.5188 12.1297 24.7936C12.4046 25.0685 12.7229 25.2783 13.0846 25.423C13.2944 25.5026 13.553 25.5695 13.8604 25.6237C14.1679 25.678 14.5404 25.7141 14.978 25.7322C15.4157 25.7503 15.7647 25.7612 16.0251 25.7648C16.2855 25.7684 16.6671 25.7684 17.1699 25.7648C17.6726 25.7612 17.9493 25.7594 18 25.7594C18.0506 25.7594 18.3273 25.7612 18.83 25.7648C19.3328 25.7684 19.7144 25.7684 19.9748 25.7648C20.2352 25.7612 20.5842 25.7503 21.0219 25.7322C21.4595 25.7141 21.8321 25.678 22.1395 25.6237C22.4469 25.5695 22.7055 25.5026 22.9153 25.423C23.277 25.2783 23.5953 25.0685 23.8702 24.7936C24.1451 24.5188 24.3549 24.2005 24.4995 23.8388C24.5791 23.629 24.646 23.3704 24.7003 23.063C24.7545 22.7555 24.7907 22.383 24.8088 21.9453C24.8269 21.5077 24.8377 21.1587 24.8413 20.8982C24.8449 20.6378 24.8449 20.2562 24.8413 19.7535C24.8377 19.2508 24.8359 18.9741 24.8359 18.9234C24.8359 18.8728 24.8377 18.5961 24.8413 18.0933C24.8449 17.5906 24.8449 17.209 24.8413 16.9486C24.8377 16.6882 24.8269 16.3391 24.8088 15.9015C24.7907 15.4639 24.7545 15.0913 24.7003 14.7839C24.646 14.4764 24.5791 14.2178 24.4995 14.0081C24.3549 13.6464 24.1451 13.3281 23.8702 13.0532C23.5953 12.7783 23.277 12.5685 22.9153 12.4239C22.7055 12.3443 22.4469 12.2774 22.1395 12.2231C21.8321 12.1689 21.4595 12.1327 21.0219 12.1146C20.5842 12.0965 20.2352 12.0857 19.9748 12.0821C19.7144 12.0784 19.3328 12.0784 18.83 12.0821C18.3273 12.0857 18.0506 12.0875 18 12.0875ZM26.3333 18.9234C26.3333 20.58 26.3152 21.7265 26.279 22.3631C26.2067 23.8677 25.7582 25.0324 24.9336 25.857C24.1089 26.6817 22.9443 27.1302 21.4396 27.2025C20.8031 27.2387 19.6565 27.2568 18 27.2568C16.3434 27.2568 15.1969 27.2387 14.5603 27.2025C13.0557 27.1302 11.891 26.6817 11.0664 25.857C10.2417 25.0324 9.79322 23.8677 9.72088 22.3631C9.68471 21.7265 9.66663 20.58 9.66663 18.9234C9.66663 17.2669 9.68471 16.1203 9.72088 15.4838C9.79322 13.9791 10.2417 12.8145 11.0664 11.9898C11.891 11.1652 13.0557 10.7167 14.5603 10.6443C15.1969 10.6082 16.3434 10.5901 18 10.5901C19.6565 10.5901 20.8031 10.6082 21.4396 10.6443C22.9443 10.7167 24.1089 11.1652 24.9336 11.9898C25.7582 12.8145 26.2067 13.9791 26.279 15.4838C26.3152 16.1203 26.3333 17.2669 26.3333 18.9234Z" fill="white"/>
</svg>
