<svg width="72" height="72" viewBox="0 0 72 72" fill="none" xmlns="http://www.w3.org/2000/svg">
<g clip-path="url(#clip0_2543_109390)">
<path d="M0 36C0 16.1163 16.115 0 36 0C55.8837 0 72 16.115 72 36C72 55.8837 55.885 72 36 72C16.1163 72 0 55.885 0 36ZM3.6 36C3.6 53.8967 18.1045 68.4 36 68.4C53.8967 68.4 68.4 53.8955 68.4 36C68.4 18.1033 53.8955 3.6 36 3.6C18.1033 3.6 3.6 18.1045 3.6 36ZM30.6 42.4544L50.9272 22.1272C52.6243 20.4301 55.1698 22.9757 53.4728 24.6728L31.8728 46.2728L31.8722 46.2734C31.5354 46.6099 31.0799 46.8276 30.6 46.8324C30.1419 46.8279 29.7062 46.6293 29.3746 46.3186C29.3656 46.3102 29.3566 46.3017 29.3478 46.2931C29.341 46.2865 29.3341 46.2797 29.3272 46.2728L18.5272 35.4728C16.8302 33.7757 19.3757 31.2301 21.0728 32.9272L30.6 42.4544Z" fill="#23C554"/>
</g>
<defs>
<clipPath id="clip0_2543_109390">
<rect width="72" height="72" fill="white"/>
</clipPath>
</defs>
</svg>
