<svg width="48" height="48" viewBox="0 0 48 48" fill="none" xmlns="http://www.w3.org/2000/svg">
<g id="164-e-commerce 1" clip-path="url(#clip0_13_2718)">
<g id="num sample name tags">
<g id="164 &#226;&#128;&#147; e commerce">
<g id="icon">
<path id="Shape" fill-rule="evenodd" clip-rule="evenodd" d="M32.8861 35.1488C32.3231 36.1017 32 37.2131 32 38.4C32 41.9346 34.8654 44.8 38.4 44.8C39.5869 44.8 40.6983 44.4769 41.6511 43.9139L32.8861 35.1488ZM35.1488 32.8861L43.9139 41.6511C44.4769 40.6983 44.8 39.5869 44.8 38.4C44.8 34.8654 41.9346 32 38.4 32C37.2131 32 36.1017 32.3231 35.1488 32.8861ZM30.0843 43.2C29.2675 41.7879 28.8 40.1486 28.8 38.4C28.8 33.098 33.0981 28.8 38.4 28.8C43.7019 28.8 48 33.098 48 38.4C48 43.7019 43.7019 48 38.4 48C36.3059 48 34.3684 47.3295 32.7904 46.1914C32.5573 46.3242 32.2875 46.4 32 46.4H8.68248C8.3996 46.4 8.11703 46.3812 7.83663 46.3438C4.33301 45.8767 1.87147 42.6577 2.33862 39.1541L2.92678 34.7429C3.18687 32.7922 4.61131 31.1979 6.52051 30.7206L14.0119 28.8477C14.8692 28.6334 15.7379 29.1546 15.9522 30.0119C16.1665 30.8692 15.6453 31.7379 14.7881 31.9522L7.29662 33.8251C6.66022 33.9842 6.18541 34.5156 6.09871 35.1658L5.51055 39.5771C5.27697 41.3289 6.50775 42.9383 8.25955 43.1719C8.39975 43.1906 8.54104 43.2 8.68248 43.2H30.0843ZM30.1416 8.6708L29.2065 8.20322C28.959 8.07952 28.6652 8.09244 28.4295 8.23741C26.953 9.14579 25.4765 9.59998 24 9.59998C22.5235 9.59998 21.047 9.14579 19.5704 8.23741C19.3348 8.09242 19.0409 8.0795 18.7935 8.20324L17.8595 8.67022C17.3075 9.82255 17.0733 11.1432 17.2547 12.5043L18.3401 20.6447C18.7183 23.4814 21.1381 25.6 24 25.6C26.8619 25.6 29.2817 23.4814 29.6599 20.6447L30.7453 12.5043C30.785 12.2062 30.805 11.9057 30.805 11.6049C30.805 10.5543 30.5668 9.55922 30.1416 8.6708ZM24 1.59998C29.5256 1.59998 34.005 6.07935 34.005 11.6049C34.005 12.0472 33.9756 12.4889 33.9172 12.9272L32.8318 21.0676C32.2416 25.4941 28.4657 28.8 24 28.8C19.5343 28.8 15.7584 25.4941 15.1682 21.0676L14.0828 12.9272C13.3525 7.45011 17.2006 2.41802 22.6777 1.68774C23.116 1.62929 23.5578 1.59998 24 1.59998Z" fill="#CA4040"/>
</g>
</g>
</g>
</g>
<defs>
<clipPath id="clip0_13_2718">
<rect width="48" height="48" fill="white"/>
</clipPath>
</defs>
</svg>
