<svg width="40" height="40" viewBox="0 0 40 40" fill="none" xmlns="http://www.w3.org/2000/svg">
<g clip-path="url(#clip0_2510_70189)">
<path d="M7.69899 10.6673C7.04718 9.71489 6.66658 8.56897 6.66658 7.33398C6.66658 4.01174 9.42085 1.33398 12.7999 1.33398C14.8153 1.33398 17.1656 2.72766 19.9999 5.4537C22.8342 2.72766 25.1845 1.33398 27.1999 1.33398C30.579 1.33398 33.3333 4.01174 33.3333 7.33398C33.3333 8.56897 32.9527 9.71489 32.3008 10.6673H35.9999C37.4727 10.6673 38.6666 11.8612 38.6666 13.334V18.6673C38.6666 20.1401 37.4727 21.334 35.9999 21.334H35.9013L34.9467 33.743C34.733 36.5217 32.416 38.6673 29.6291 38.6673H10.3707C7.58385 38.6673 5.26683 36.5217 5.05309 33.743L4.09854 21.334H3.99992C2.52716 21.334 1.33325 20.1401 1.33325 18.6673V13.334C1.33325 11.8612 2.52716 10.6673 3.99992 10.6673H7.69899ZM18.383 10.6673H21.6168C21.0958 10.2348 20.5572 9.75029 19.9999 9.21427C19.4426 9.75029 18.904 10.2348 18.383 10.6673ZM3.99992 18.6673H35.9999V13.334H3.99992V18.6673ZM6.77309 21.334L7.7119 33.5385C7.81877 34.9278 8.97728 36.0006 10.3707 36.0006H29.6291C31.0226 36.0006 32.1811 34.9278 32.2879 33.5385L33.2267 21.334H6.77309ZM27.1999 10.6673C29.1228 10.6673 30.6666 9.1664 30.6666 7.33398C30.6666 5.50157 29.1228 4.00065 27.1999 4.00065C26.0517 4.00065 24.2355 5.09237 21.8928 7.33398C24.2355 9.5756 26.0517 10.6673 27.1999 10.6673ZM12.7999 10.6673C13.9481 10.6673 15.7643 9.5756 18.107 7.33398C15.7643 5.09237 13.9481 4.00065 12.7999 4.00065C10.8771 4.00065 9.33325 5.50157 9.33325 7.33398C9.33325 9.1664 10.8771 10.6673 12.7999 10.6673Z" fill="#E65B7E"/>
</g>
<defs>
<clipPath id="clip0_2510_70189">
<rect width="40" height="40" fill="white"/>
</clipPath>
</defs>
</svg>
