<svg width="40" height="40" viewBox="0 0 40 40" fill="none" xmlns="http://www.w3.org/2000/svg">
<g clip-path="url(#clip0_2510_70185)">
<path d="M9.89282 26.3254L7.23538 30.7544C11.1381 32.4732 15.3889 33.3333 19.9998 33.3333C24.6107 33.3333 28.8615 32.4732 32.7642 30.7544L30.1068 26.3254C27.0916 27.4436 23.7205 28 19.9998 28C16.2791 28 12.9079 27.4436 9.89282 26.3254ZM10.7702 23.8066C13.489 24.8226 16.5633 25.3333 19.9998 25.3333C23.421 25.3333 26.4834 24.8271 29.1932 23.8201L27.9021 15.1054C27.2973 11.0232 23.7933 8 19.6665 8C15.6017 8 12.1869 11.0564 11.738 15.0963L10.7702 23.8066ZM16.4427 5.83131C16.1596 5.2826 15.9998 4.65997 15.9998 4C15.9998 1.79086 17.7907 0 19.9998 0C22.2089 0 23.9998 1.79086 23.9998 4C23.9998 4.73153 23.8034 5.4172 23.4605 6.00716C27.1429 7.36215 29.9361 10.6385 30.54 14.7146L31.9465 24.2085L35.435 30.0227C35.4853 30.1097 35.4853 30.1097 35.5296 30.2C36 31.1994 35.571 32.391 34.5716 32.8613C31.6415 34.2403 28.5314 35.1646 25.2455 35.6348C24.7901 38.1181 22.6147 40 19.9998 40C17.3849 40 15.2095 38.1181 14.7541 35.6348C11.4682 35.1646 8.35812 34.2403 5.42796 32.8613C5.3377 32.8169 5.3377 32.8169 5.25061 32.7666C4.30344 32.1983 3.99631 30.9698 4.56462 30.0226L8.04009 24.2302L9.08769 14.8018C9.56286 10.5252 12.5289 7.07472 16.4427 5.83131ZM17.6502 35.9289C18.1003 36.765 18.9837 37.3333 19.9998 37.3333C21.0159 37.3333 21.8993 36.765 22.3494 35.9289C21.5753 35.9763 20.7921 36 19.9998 36C19.2075 36 18.4243 35.9763 17.6502 35.9289ZM19.9998 5.33333C20.7362 5.33333 21.3331 4.73638 21.3331 4C21.3331 3.26362 20.7362 2.66667 19.9998 2.66667C19.2634 2.66667 18.6665 3.26362 18.6665 4C18.6665 4.73638 19.2634 5.33333 19.9998 5.33333Z" fill="#E65B7E"/>
</g>
<defs>
<clipPath id="clip0_2510_70185">
<rect width="40" height="40" fill="white"/>
</clipPath>
</defs>
</svg>
