<svg width="40" height="40" viewBox="0 0 40 40" fill="none" xmlns="http://www.w3.org/2000/svg">
<path d="M40 9.31264C40 9.3247 40 9.33677 40 9.34882V30.6665C40 33.612 37.6121 35.9998 34.6666 35.9998H5.33341C2.38791 35.9998 0 33.612 0 30.6665V9.34882C0 9.33677 0 9.3247 0 9.31264C0.0112808 6.37664 2.3948 4 5.33341 4H34.6666C37.6052 4 39.9887 6.37664 40 9.31264ZM37.2578 8.70102C36.9739 7.53347 35.9215 6.66665 34.6666 6.66665H5.33341C4.07851 6.66665 3.02607 7.53347 2.74217 8.70102L19.225 20.4745C19.6886 20.8056 20.3114 20.8056 20.775 20.4745L37.2578 8.70102ZM37.3332 11.9242L22.3249 22.6444C20.9342 23.6378 19.0658 23.6378 17.6751 22.6444L2.66676 11.9242V30.6665C2.66676 32.1393 3.86066 33.3332 5.33341 33.3332H34.6666C36.1393 33.3332 37.3332 32.1393 37.3332 30.6665V11.9242Z" fill="#E65B7E"/>
</svg>
