<svg width="40" height="40" viewBox="0 0 40 40" fill="none" xmlns="http://www.w3.org/2000/svg">
<g clip-path="url(#clip0_2510_70188)">
<path fill-rule="evenodd" clip-rule="evenodd" d="M27.4051 29.2914C26.9359 30.0854 26.6667 31.0116 26.6667 32.0007C26.6667 34.9462 29.0545 37.334 32 37.334C32.9891 37.334 33.9153 37.0647 34.7093 36.5956L27.4051 29.2914ZM29.2908 27.4057L36.5949 34.7099C37.0641 33.9159 37.3334 32.9897 37.3334 32.0007C37.3334 29.0551 34.9456 26.6673 32 26.6673C31.011 26.6673 30.0848 26.9366 29.2908 27.4057ZM25.0703 36.0007C24.3896 34.824 24 33.4578 24 32.0007C24 27.5824 27.5818 24.0007 32 24.0007C36.4183 24.0007 40 27.5824 40 32.0007C40 36.4189 36.4183 40.0007 32 40.0007C30.2549 40.0007 28.6403 39.4419 27.3254 38.4935C27.1311 38.6041 26.9063 38.6673 26.6667 38.6673H7.23544C6.99971 38.6673 6.76423 38.6517 6.53057 38.6205C3.61089 38.2312 1.5596 35.5488 1.94889 32.6291L2.43903 28.9531C2.65577 27.3275 3.8428 25.9989 5.4338 25.6012L11.6767 24.0405C12.3911 23.8619 13.115 24.2962 13.2936 25.0106C13.4722 25.725 13.0378 26.4489 12.3234 26.6275L6.08056 28.1882C5.55023 28.3208 5.15455 28.7637 5.0823 29.3055L4.59217 32.9815C4.39752 34.4414 5.42316 35.7826 6.883 35.9773C6.99984 35.9928 7.11757 36.0007 7.23544 36.0007H25.0703ZM25.1181 7.22634L24.3388 6.83669C24.1326 6.73361 23.8877 6.74437 23.6913 6.86518C22.4609 7.62216 21.2305 8.00065 20 8.00065C18.7696 8.00065 17.5392 7.62216 16.3087 6.86518C16.1124 6.74436 15.8675 6.73359 15.6613 6.8367L14.883 7.22585C14.4229 8.18613 14.2278 9.28669 14.379 10.4209L15.2835 17.2046C15.5987 19.5685 17.6152 21.334 20 21.334C22.3849 21.334 24.4014 19.5685 24.7166 17.2046L25.6211 10.4209C25.6542 10.1725 25.6708 9.9221 25.6708 9.67145C25.6708 8.79589 25.4724 7.96669 25.1181 7.22634ZM20 1.33398C24.6047 1.33398 28.3375 5.06679 28.3375 9.67145C28.3375 10.04 28.3131 10.4081 28.2644 10.7734L27.3599 17.557C26.868 21.2458 23.7215 24.0007 20 24.0007C16.2786 24.0007 13.132 21.2458 12.6402 17.557L11.7357 10.7734C11.1271 6.2091 14.3339 2.01569 18.8981 1.40712C19.2634 1.35842 19.6315 1.33398 20 1.33398Z" fill="#E65B7E"/>
</g>
<defs>
<clipPath id="clip0_2510_70188">
<rect width="40" height="40" fill="white"/>
</clipPath>
</defs>
</svg>
