<svg width="40" height="40" viewBox="0 0 40 40" fill="none" xmlns="http://www.w3.org/2000/svg">
<g clip-path="url(#clip0_2510_70187)">
<path d="M29.4427 18.6673L30.5343 6.66667H9.43455L11.1839 27.0638C11.2236 27.5263 11.5011 27.9349 11.9165 28.1425L16.5825 30.4741C17.2415 30.8034 17.5087 31.6043 17.1791 32.263C16.8496 32.9216 16.0483 33.1886 15.3892 32.8592L10.7232 30.5276C9.47692 29.9048 8.64442 28.679 8.52542 27.2915L6.77607 6.8944C6.76958 6.81866 6.76633 6.74268 6.76633 6.66667C6.76633 5.19391 7.96093 4 9.43455 4H30.5343C30.615 4 30.6956 4.00365 30.7759 4.01095C32.2435 4.14429 33.325 5.44138 33.1916 6.9081L32.0892 19.0273C32.5943 19.1622 33.0845 19.3332 33.5572 19.5373L35.4051 5.68577C35.5999 4.22593 34.5736 2.8847 33.1129 2.69006C32.996 2.67448 32.8782 2.66667 32.7603 2.66667H7.20303C5.72941 2.66667 4.5348 3.86057 4.5348 5.33333C4.5348 5.44867 4.54229 5.56388 4.55722 5.67824L7.51121 28.3123C7.74068 30.0706 8.82946 31.5998 10.4163 32.3928L19.3916 36.8778C19.7672 37.0655 20.2093 37.0655 20.5848 36.8778L21.3967 36.4721C19.6918 34.5817 18.6541 32.0787 18.6541 29.3333C18.6541 23.4423 23.4325 18.6667 29.327 18.6667C29.3656 18.6667 29.4042 18.6669 29.4427 18.6673ZM23.5629 38.3121C23.4724 38.3957 23.3688 38.4681 23.2531 38.5259L21.7781 39.263C20.6513 39.826 19.3251 39.826 18.1983 39.263L9.22304 34.7779C6.84277 33.5885 5.2096 31.2946 4.8654 28.6572L1.9114 6.02314C1.88155 5.79442 1.86658 5.564 1.86658 5.33333C1.86658 2.38781 4.25579 0 7.20303 0H32.7603C32.9962 0 33.2318 0.0156291 33.4656 0.0467845C36.387 0.436075 38.4394 3.11853 38.0499 6.03821L36.0476 21.0465C38.4589 23.0022 39.9999 25.9879 39.9999 29.3333C39.9999 35.2244 35.2215 40 29.327 40C27.2038 40 25.2253 39.3804 23.5629 38.3121ZM29.327 37.3333C33.7479 37.3333 37.3317 33.7516 37.3317 29.3333C37.3317 24.9151 33.7479 21.3333 29.327 21.3333C24.9061 21.3333 21.3223 24.9151 21.3223 29.3333C21.3223 33.7516 24.9061 37.3333 29.327 37.3333ZM27.6021 29.0572L28.5703 30.0248L30.9703 27.1464C31.442 26.5807 32.2833 26.5043 32.8493 26.9757C33.4153 27.4471 33.4918 28.2879 33.0201 28.8536L29.7784 32.7414C29.735 32.7918 29.735 32.7918 29.6887 32.8396C29.1156 33.4123 28.1864 33.4123 27.6133 32.8396L25.7154 30.9428C25.1944 30.4221 25.1944 29.5779 25.7154 29.0572C26.2364 28.5365 27.0811 28.5365 27.6021 29.0572Z" fill="#E65B7E"/>
</g>
<defs>
<clipPath id="clip0_2510_70187">
<rect width="40" height="40" fill="white"/>
</clipPath>
</defs>
</svg>
