<svg width="40" height="40" viewBox="0 0 40 40" fill="none" xmlns="http://www.w3.org/2000/svg">
<g clip-path="url(#clip0_2510_70190)">
<path d="M20 31.1111L13.3333 37.7778M20 31.1111L26.6667 37.7778M20 31.1111V20M20 31.1111V40M20 20V8.88889M20 20L10.3775 14.4443M20 20L29.6225 25.5553M20 20L10.3775 25.5553M20 20L29.6225 14.4443M20 8.88889L13.3333 2.22222M20 8.88889L26.6667 2.22222M20 8.88889V0M10.3775 14.4443L1.27063 16.8844M10.3775 14.4443L7.9373 5.33749M10.3775 14.4443L2.67959 10M29.6225 25.5553L32.0627 34.6622M29.6225 25.5553L38.7293 23.1153M29.6225 25.5553L37.3207 30M10.3775 25.5553L7.9373 34.6622M10.3775 25.5553L1.27063 23.1153M10.3775 25.5553L2.67959 30M29.6225 14.4443L38.7293 16.8844M29.6225 14.4443L32.0627 5.33749M29.6225 14.4443L37.3207 10" stroke="#E65B7E" stroke-width="3" stroke-linecap="round" stroke-linejoin="round"/>
</g>
<defs>
<clipPath id="clip0_2510_70190">
<rect width="40" height="40" fill="white"/>
</clipPath>
</defs>
</svg>
