<svg width="40" height="20" viewBox="0 0 40 20" fill="none" xmlns="http://www.w3.org/2000/svg">
<path d="M3.04395 20C3.04395 15.6522 7.39177 16.5217 8.26134 14.1678V13.0591C5.11264 13.0591 4.23873 11.7626 4.23873 11.7626C5.88395 10.3939 2.77264 0.869565 8.37438 0.869565C8.37438 0.869565 9.1309 0 10.1083 0C16.957 0 13.8666 10.3417 15.6379 11.7957C15.6379 11.7957 14.9039 13.0478 11.7396 13.0478V14.1678C12.6092 16.5217 16.957 15.6522 16.957 20H3.04395Z" fill="#E65B7E"/>
<g clip-path="url(#clip0_2984_16354)">
<path d="M32.5 13.333V11.6663C32.875 11.4805 33.9475 10.2038 34.06 9.20632C34.355 9.18382 34.8183 8.91299 34.955 7.84382C35.0283 7.26966 34.7367 6.94716 34.56 6.84549C34.56 6.84549 35 6.00966 35 5.00049C35 2.97716 34.2058 1.25049 32.5 1.25049C32.5 1.25049 31.9075 0.000488281 30 0.000488281C26.465 0.000488281 25 2.26799 25 5.00049C25 5.92049 25.44 6.84549 25.44 6.84549C25.2633 6.94716 24.9717 7.27049 25.045 7.84382C25.1817 8.91299 25.645 9.18382 25.94 9.20632C26.0525 10.2038 27.125 11.4805 27.5 11.6663V13.333C26.6667 15.833 20 14.1663 20 19.9997H40C40 14.1663 33.3333 15.833 32.5 13.333Z" fill="#2BAEEC"/>
</g>
<defs>
<clipPath id="clip0_2984_16354">
<rect width="20" height="20" fill="white" transform="translate(20)"/>
</clipPath>
</defs>
</svg>
