<svg width="22" height="22" viewBox="0 0 22 22" fill="none" xmlns="http://www.w3.org/2000/svg">
<path d="M8.78119 3.30008C7.238 3.29192 5.73564 4.77795 6.4215 6.62324H3.8332C3.4001 6.62324 2.98474 6.79529 2.67849 7.10153C2.37224 7.40778 2.2002 7.82314 2.2002 8.25624V9.88924C2.2002 10.1058 2.28622 10.3135 2.43934 10.4666C2.59247 10.6197 2.80015 10.7057 3.0167 10.7057H10.3652V8.25624H11.9982V10.7057H19.3467C19.5632 10.7057 19.7709 10.6197 19.924 10.4666C20.0772 10.3135 20.1632 10.1058 20.1632 9.88924V8.25624C20.1632 7.82314 19.9911 7.40778 19.6849 7.10153C19.3787 6.79529 18.9633 6.62324 18.5302 6.62324H15.9419C16.8972 3.95328 13.3046 2.06717 11.6471 4.3697L11.1817 4.99024L10.7163 4.35337C10.2019 3.62668 9.49154 3.30825 8.78119 3.30008ZM8.73219 4.99024C9.45888 4.99024 9.8263 5.87206 9.31191 6.38645C8.79751 6.90085 7.91569 6.53342 7.91569 5.80674C7.91569 5.59019 8.00172 5.38251 8.15484 5.22939C8.30797 5.07626 8.51565 4.99024 8.73219 4.99024V4.99024ZM13.6312 4.99024C14.3579 4.99024 14.7253 5.87206 14.2109 6.38645C13.6965 6.90085 12.8147 6.53342 12.8147 5.80674C12.8147 5.59019 12.9007 5.38251 13.0538 5.22939C13.207 5.07626 13.4146 4.99024 13.6312 4.99024V4.99024ZM3.0167 11.5222V18.0542C3.0167 18.4873 3.18874 18.9027 3.49499 19.2089C3.80124 19.5152 4.2166 19.6872 4.6497 19.6872H17.7137C18.1468 19.6872 18.5622 19.5152 18.8684 19.2089C19.1746 18.9027 19.3467 18.4873 19.3467 18.0542V11.5222H11.9982V18.0542H10.3652V11.5222H3.0167Z" fill="#B7B7B7"/>
</svg>
