<svg width="22" height="22" viewBox="0 0 22 22" fill="none" xmlns="http://www.w3.org/2000/svg">
<path d="M20.9001 11.0001C20.9001 9.54217 19.9836 8.29693 18.6919 7.81354C19.2604 6.56057 19.0322 5.03303 17.9997 4.00049C16.9672 2.96795 15.4396 2.73979 14.1867 3.30826C13.7033 2.01662 12.458 1.1001 11.0001 1.1001C9.54217 1.1001 8.29693 2.01662 7.81354 3.30826C6.56057 2.73979 5.02916 2.96795 4.00049 4.00049C2.96795 5.03303 2.73979 6.56057 3.30826 7.81354C2.01662 8.29693 1.1001 9.54217 1.1001 11.0001C1.1001 12.458 2.01662 13.7033 3.30826 14.1867C2.73979 15.4396 2.96795 16.971 4.00049 17.9997C5.02916 19.0284 6.5567 19.2643 7.81354 18.6919C8.29693 19.9797 9.54217 20.9001 11.0001 20.9001C12.458 20.9001 13.7033 19.9836 14.1867 18.6919C15.4474 19.2643 16.971 19.0284 17.9997 17.9997C19.0322 16.9672 19.2604 15.4396 18.6919 14.1867C19.9836 13.7033 20.9001 12.458 20.9001 11.0001V11.0001ZM11.9282 14.6523V15.3313C11.9282 15.6732 11.6513 15.9501 11.3095 15.9501H10.6907C10.3489 15.9501 10.072 15.6732 10.072 15.3313V14.6457C9.63034 14.5935 9.21036 14.445 8.84298 14.2025C8.60244 14.0436 8.57924 13.6955 8.78304 13.4917L9.46057 12.8142C9.6052 12.6696 9.82061 12.6502 10.0062 12.7357C10.1292 12.7922 10.2638 12.8215 10.403 12.8215H11.6707C11.8509 12.8215 11.9971 12.6754 11.9971 12.4959C11.9971 12.3509 11.8996 12.2221 11.7604 12.1823L9.82409 11.6293C8.96364 11.3837 8.27682 10.6737 8.16468 9.7858C8.00805 8.54559 8.9006 7.48753 10.072 7.34754V6.66885C10.072 6.32699 10.3489 6.0501 10.6907 6.0501H11.3095C11.6513 6.0501 11.9282 6.32699 11.9282 6.66885V7.3545C12.3699 7.40671 12.7898 7.55521 13.1572 7.79768C13.3978 7.95662 13.421 8.30467 13.2172 8.50847L12.5396 9.186C12.395 9.33063 12.1796 9.34997 11.994 9.2645C11.8695 9.20757 11.7341 9.17829 11.5972 9.17865H10.3295C10.1493 9.17865 10.0031 9.32483 10.0031 9.50427C10.0031 9.64929 10.1006 9.77807 10.2398 9.8179L12.1761 10.3709C13.0366 10.6169 13.7234 11.3265 13.8355 12.2144C13.9921 13.4542 13.0996 14.5123 11.9282 14.6523V14.6523Z" fill="#B7B7B7"/>
</svg>
