<svg width="22" height="22" viewBox="0 0 22 22" fill="none" xmlns="http://www.w3.org/2000/svg">
<path d="M11.0002 3.30005C15.8402 3.30005 19.8002 6.45045 19.8002 10.34C19.8002 14.2296 15.8402 17.38 11.0002 17.38C9.90899 17.38 8.8618 17.2216 7.8938 16.94C5.3242 19.14 2.2002 19.14 2.2002 19.14C4.2506 17.0896 4.5762 15.708 4.6202 15.18C3.1242 13.9216 2.2002 12.2144 2.2002 10.34C2.2002 6.45045 6.1602 3.30005 11.0002 3.30005ZM15.4002 11.22V9.46005H13.6402V11.22H15.4002ZM11.8802 11.22V9.46005H10.1202V11.22H11.8802ZM8.36019 11.22V9.46005H6.60019V11.22H8.36019Z" fill="#B7B7B7"/>
</svg>
