<svg width="22" height="22" viewBox="0 0 22 22" fill="none" xmlns="http://www.w3.org/2000/svg">
<path d="M4.0701 10.0101C5.16219 10.0101 6.0501 9.12216 6.0501 8.03007C6.0501 6.93797 5.16219 6.05007 4.0701 6.05007C2.978 6.05007 2.0901 6.93797 2.0901 8.03007C2.0901 9.12216 2.978 10.0101 4.0701 10.0101ZM17.9301 10.0101C19.0222 10.0101 19.9101 9.12216 19.9101 8.03007C19.9101 6.93797 19.0222 6.05007 17.9301 6.05007C16.838 6.05007 15.9501 6.93797 15.9501 8.03007C15.9501 9.12216 16.838 10.0101 17.9301 10.0101ZM18.9201 11.0001H16.9401C16.3956 11.0001 15.9037 11.2197 15.5448 11.5755C16.7916 12.2592 17.6764 13.4936 17.8682 14.9601H19.9101C20.4577 14.9601 20.9001 14.5177 20.9001 13.9701V12.9801C20.9001 11.888 20.0122 11.0001 18.9201 11.0001ZM11.0001 11.0001C12.9151 11.0001 14.4651 9.4501 14.4651 7.53507C14.4651 5.62004 12.9151 4.07007 11.0001 4.07007C9.08507 4.07007 7.5351 5.62004 7.5351 7.53507C7.5351 9.4501 9.08507 11.0001 11.0001 11.0001ZM13.3761 11.9901H13.1193C12.4758 12.2994 11.7612 12.4851 11.0001 12.4851C10.239 12.4851 9.52747 12.2994 8.88088 11.9901H8.6241C6.65647 11.9901 5.0601 13.5864 5.0601 15.5541V16.4451C5.0601 17.2649 5.72525 17.9301 6.5451 17.9301H15.4551C16.2749 17.9301 16.9401 17.2649 16.9401 16.4451V15.5541C16.9401 13.5864 15.3437 11.9901 13.3761 11.9901ZM6.45538 11.5755C6.0965 11.2197 5.6046 11.0001 5.0601 11.0001H3.0801C1.988 11.0001 1.1001 11.888 1.1001 12.9801V13.9701C1.1001 14.5177 1.5425 14.9601 2.0901 14.9601H4.12888C4.32379 13.4936 5.2086 12.2592 6.45538 11.5755Z" fill="#B7B7B7"/>
</svg>
