<svg width="22" height="22" viewBox="0 0 22 22" fill="none" xmlns="http://www.w3.org/2000/svg">
<path d="M19.9312 11.3035L11.6812 2.1368C11.3338 1.74997 10.6664 1.74997 10.319 2.1368L2.06902 11.3035C1.8261 11.5721 1.7656 11.9589 1.91319 12.2898C2.05985 12.6207 2.38802 12.8334 2.7501 12.8334H4.58344V19.2501C4.58344 19.7561 4.99319 20.1667 5.5001 20.1667H8.2501C8.75702 20.1667 9.16677 19.7561 9.16677 19.2501V15.5834H12.8334V19.2501C12.8334 19.7561 13.2432 20.1667 13.7501 20.1667H16.5001C17.007 20.1667 17.4168 19.7561 17.4168 19.2501V12.8334H19.2501C19.6122 12.8334 19.9404 12.6207 20.087 12.2898C20.2346 11.9589 20.1741 11.573 19.9312 11.3035Z" fill="#B7B7B7"/>
</svg>
