<svg width="22" height="22" viewBox="0 0 22 22" fill="none" xmlns="http://www.w3.org/2000/svg">
<path d="M7.90859 18.6703C7.90898 18.9136 7.9809 19.1518 8.11587 19.3544L8.77675 20.3479C8.88965 20.5177 9.04278 20.657 9.22252 20.7533C9.40226 20.8497 9.60302 20.9001 9.80695 20.9001H12.1933C12.3973 20.9001 12.598 20.8497 12.7778 20.7533C12.9575 20.657 13.1106 20.5177 13.2235 20.3479L13.8844 19.3544C14.0193 19.1517 14.0914 18.9138 14.0917 18.6703L14.0933 17.1873H7.90666L7.90859 18.6703ZM10.9787 1.10013C7.03385 1.11212 4.19385 4.30867 4.19385 7.90624C4.19385 9.62207 4.82999 11.1875 5.87836 12.3836C6.5172 13.1125 7.51646 14.6354 7.89737 15.92C7.89892 15.9301 7.90008 15.9401 7.90163 15.9502H14.0983C14.0998 15.9401 14.101 15.9305 14.1025 15.92C14.4834 14.6354 15.4827 13.1125 16.1215 12.3836C17.1699 11.1875 17.8061 9.62207 17.8061 7.90624C17.8061 4.14006 14.7476 1.08853 10.9787 1.10013ZM11 13.4749C10.3166 13.4749 9.76248 12.9207 9.76248 12.2374C9.76248 11.5541 10.3166 10.9999 11 10.9999C11.6833 10.9999 12.2374 11.5541 12.2374 12.2374C12.2374 12.9207 11.6833 13.4749 11 13.4749ZM12.4787 4.2553L11.9837 9.2052C11.952 9.52153 11.686 9.76245 11.3681 9.76245H10.6318C10.3139 9.76245 10.0479 9.52153 10.0162 9.2052L9.52117 4.2553C9.48482 3.89102 9.7706 3.57508 10.1368 3.57508H11.8631C12.2293 3.57508 12.5151 3.89102 12.4787 4.2553V4.2553Z" fill="#B7B7B7"/>
</svg>
