<svg width="22" height="22" viewBox="0 0 22 22" fill="none" xmlns="http://www.w3.org/2000/svg">
<path d="M17.6002 8.06657V7.33324L15.4002 8.7999L13.2002 7.33324V8.06657L15.4002 9.53324L17.6002 8.06657ZM18.3335 4.3999H3.66686C3.27788 4.3999 2.90483 4.55443 2.62977 4.82948C2.35472 5.10453 2.2002 5.47758 2.2002 5.86657L2.2002 16.1332C2.2002 16.5222 2.35472 16.8953 2.62977 17.1703C2.90483 17.4454 3.27788 17.5999 3.66686 17.5999H18.3335C18.7225 17.5999 19.0956 17.4454 19.3706 17.1703C19.6457 16.8953 19.8002 16.5222 19.8002 16.1332V5.86657C19.8002 5.47758 19.6457 5.10453 19.3706 4.82948C19.0956 4.55443 18.7225 4.3999 18.3335 4.3999ZM8.06686 6.5999C8.65034 6.5999 9.20992 6.83169 9.6225 7.24427C10.0351 7.65685 10.2669 8.21643 10.2669 8.7999C10.2669 9.38338 10.0351 9.94296 9.6225 10.3555C9.20992 10.7681 8.65034 10.9999 8.06686 10.9999C7.48339 10.9999 6.92381 10.7681 6.51123 10.3555C6.09865 9.94296 5.86686 9.38338 5.86686 8.7999C5.86686 8.21643 6.09865 7.65685 6.51123 7.24427C6.92381 6.83169 7.48339 6.5999 8.06686 6.5999V6.5999ZM12.4669 15.3999H3.66686V14.6666C3.66686 13.1999 6.6002 12.3932 8.06686 12.3932C9.53353 12.3932 12.4669 13.1999 12.4669 14.6666V15.3999ZM18.3335 10.9999H12.4669V6.5999H18.3335" fill="#B7B7B7"/>
</svg>
