<svg width="22" height="22" viewBox="0 0 22 22" fill="none" xmlns="http://www.w3.org/2000/svg">
<g clip-path="url(#clip0_2562_109599)">
<path fill-rule="evenodd" clip-rule="evenodd" d="M8.80023 7.14999V14.85C8.80023 15.301 9.31723 15.565 9.68023 15.29L14.8172 11.44C15.1142 11.22 15.1142 10.78 14.8172 10.56L9.68023 6.70999C9.31723 6.43499 8.80023 6.69899 8.80023 7.14999ZM9.90023 1.35299C9.90023 0.64899 9.25123 0.10999 8.56923 0.26399C7.33723 0.54999 6.17123 1.03399 5.13723 1.69399C4.55423 2.06799 4.46623 2.90399 4.96123 3.39899C5.31323 3.75099 5.87423 3.83899 6.29223 3.57499C7.13923 3.03599 8.07423 2.63999 9.08624 2.41999C9.57024 2.30999 9.90023 1.85899 9.90023 1.35299ZM3.41023 4.96099C2.90423 4.46599 2.07923 4.54299 1.70523 5.13699C1.04523 6.17099 0.561234 7.33699 0.275234 8.56899C0.121234 9.25099 0.649234 9.89999 1.35323 9.89999C1.84823 9.89999 2.31023 9.56999 2.40923 9.08599C2.62923 8.08499 3.03623 7.13899 3.56423 6.30299C3.85023 5.87399 3.76223 5.31299 3.41023 4.96099ZM1.35323 12.1C0.649234 12.1 0.110234 12.749 0.264234 13.431C0.550234 14.663 1.03423 15.818 1.69423 16.863C2.06823 17.457 2.90423 17.534 3.39923 17.039C3.75123 16.687 3.83923 16.126 3.56423 15.708C3.02523 14.872 2.62923 13.937 2.40923 12.925C2.31023 12.43 1.85923 12.1 1.35323 12.1ZM5.13723 20.295C6.18223 20.955 7.33723 21.439 8.56923 21.725C9.25123 21.879 9.90023 21.34 9.90023 20.647C9.90023 20.152 9.57024 19.69 9.08624 19.591C8.08523 19.371 7.13923 18.964 6.30323 18.436C5.87423 18.172 5.32423 18.249 4.97223 18.612C4.46623 19.096 4.54323 19.921 5.13723 20.295ZM22.0002 11C22.0002 16.203 18.3702 20.581 13.4972 21.714C12.8152 21.879 12.1552 21.34 12.1552 20.636C12.1552 20.13 12.4962 19.69 12.9802 19.569C16.8852 18.667 19.8002 15.169 19.8002 11C19.8002 6.83099 16.8852 3.33299 12.9802 2.43099C12.4962 2.32099 12.1552 1.86999 12.1552 1.36399C12.1552 0.65999 12.8152 0.12099 13.4972 0.28599C18.3702 1.41899 22.0002 5.79699 22.0002 11Z" fill="#B7B7B7"/>
</g>
<defs>
<clipPath id="clip0_2562_109599">
<rect width="22" height="22" fill="white"/>
</clipPath>
</defs>
</svg>
