<svg width="34" height="34" viewBox="0 0 34 34" fill="none" xmlns="http://www.w3.org/2000/svg">
<path fill-rule="evenodd" clip-rule="evenodd" d="M5.49732 5.4978C1.72225 9.27287 1.72225 15.3935 5.49732 19.1685C9.27239 22.9436 15.393 22.9436 19.168 19.1685C22.9431 15.3935 22.9431 9.27287 19.168 5.4978C15.393 1.72274 9.27239 1.72274 5.49732 5.4978ZM4.08311 20.5827C-0.473011 16.0266 -0.473011 8.63971 4.08311 4.08359C8.63922 -0.472526 16.0261 -0.472525 20.5823 4.08359C25.1384 8.63971 25.1384 16.0266 20.5823 20.5827C16.0261 25.1389 8.63922 25.1389 4.08311 20.5827Z" fill="#E65B7E"/>
<path fill-rule="evenodd" clip-rule="evenodd" d="M13.9826 12.6498C14.4202 12.2122 14.666 11.6187 14.666 10.9998H16.666C16.666 12.1491 16.2095 13.2513 15.3968 14.064C14.5842 14.8766 13.482 15.3332 12.3327 15.3332V13.3332C12.9515 13.3332 13.545 13.0873 13.9826 12.6498Z" fill="#E65B7E"/>
<path fill-rule="evenodd" clip-rule="evenodd" d="M9.26856 6.60237C10.0812 5.78972 11.1834 5.33317 12.3327 5.33317C13.482 5.33317 14.5842 5.78972 15.3968 6.60237C16.2095 7.41503 16.666 8.51723 16.666 9.6665L16.666 10.9998L16.666 11.0019C16.6646 11.6724 16.5071 12.3333 16.2059 12.9323C15.9838 13.374 15.6881 13.773 15.3327 14.1129V15.0008L18.642 16.0772C19.1672 16.2481 19.4545 16.8123 19.2837 17.3375C19.1128 17.8627 18.5486 18.15 18.0234 17.9792L14.0234 16.6781C13.6115 16.5441 13.3327 16.1602 13.3327 15.7271V13.6514C13.3327 13.3358 13.4817 13.0387 13.7347 12.8499C14.0231 12.6347 14.2574 12.3553 14.4191 12.0338C14.5806 11.7126 14.6651 11.3582 14.666 10.9986V9.6665C14.666 9.04766 14.4202 8.45417 13.9826 8.01659C13.545 7.579 12.9515 7.33317 12.3327 7.33317C11.7139 7.33317 11.1204 7.579 10.6828 8.01659C10.2452 8.45417 9.99936 9.04766 9.99936 9.6665V10.9987C10.0003 11.3582 10.0848 11.7126 10.2463 12.0338C10.408 12.3553 10.6423 12.6347 10.9307 12.8499C11.1837 13.0387 11.3327 13.3358 11.3327 13.6514V15.7271C11.3327 16.1585 11.0561 16.5412 10.6466 16.6766L6.94829 17.8995C6.42393 18.0728 5.8583 17.7883 5.68491 17.264C5.51153 16.7396 5.79605 16.174 6.32042 16.0006L9.33269 15.0045V14.1129C8.97728 13.773 8.6816 13.374 8.45951 12.9323C8.15831 12.3333 8.00076 11.6724 7.99936 11.0019L7.99936 10.9998V9.6665C7.99936 8.51723 8.45591 7.41503 9.26856 6.60237Z" fill="#E65B7E"/>
<path fill-rule="evenodd" clip-rule="evenodd" d="M20.1101 18.2249C20.5006 17.8344 21.1338 17.8344 21.5243 18.2249L32.6493 29.3499C33.0869 29.7875 33.3327 30.381 33.3327 30.9998C33.3327 31.6187 33.0869 32.2122 32.6493 32.6498C32.2117 33.0873 31.6182 33.3332 30.9994 33.3332C30.3805 33.3332 29.787 33.0873 29.3495 32.6498L18.2244 21.5248C17.8339 21.1342 17.8339 20.5011 18.2244 20.1105C18.615 19.72 19.2481 19.72 19.6387 20.1105L30.7637 31.2355C30.8262 31.2981 30.911 31.3332 30.9994 31.3332C31.0878 31.3332 31.1726 31.2981 31.2351 31.2355C31.2976 31.173 31.3327 31.0883 31.3327 30.9998C31.3327 30.9114 31.2976 30.8267 31.2351 30.7641L20.1101 19.6391C19.7195 19.2486 19.7195 18.6155 20.1101 18.2249Z" fill="#E65B7E"/>
<path fill-rule="evenodd" clip-rule="evenodd" d="M7.38294 5.96921C7.77346 6.35974 7.77346 6.9929 7.38294 7.38342C6.07018 8.69618 5.33268 10.4767 5.33268 12.3332C5.33268 14.1897 6.07018 15.9702 7.38294 17.2829C7.77346 17.6734 7.77346 18.3066 7.38294 18.6971C6.99241 19.0877 6.35925 19.0877 5.96872 18.6971C4.2809 17.0093 3.33268 14.7201 3.33268 12.3332C3.33268 9.94622 4.2809 7.65704 5.96872 5.96921C6.35925 5.57869 6.99241 5.57869 7.38294 5.96921Z" fill="#E65B7E"/>
<path fill-rule="evenodd" clip-rule="evenodd" d="M1.66602 17.9998C2.2183 17.9998 2.66602 18.4476 2.66602 18.9998V25.9998H24.9993C25.5516 25.9998 25.9993 26.4476 25.9993 26.9998C25.9993 27.5521 25.5516 27.9998 24.9993 27.9998H1.66602C1.11373 27.9998 0.666016 27.5521 0.666016 26.9998V18.9998C0.666016 18.4476 1.11373 17.9998 1.66602 17.9998Z" fill="#E65B7E"/>
<path fill-rule="evenodd" clip-rule="evenodd" d="M0.666016 29.6665C0.666016 29.1142 1.11373 28.6665 1.66602 28.6665H27.666C28.2183 28.6665 28.666 29.1142 28.666 29.6665C28.666 30.2188 28.2183 30.6665 27.666 30.6665H1.66602C1.11373 30.6665 0.666016 30.2188 0.666016 29.6665Z" fill="#E65B7E"/>
<path fill-rule="evenodd" clip-rule="evenodd" d="M0.666016 32.3332C0.666016 31.7809 1.11373 31.3332 1.66602 31.3332H30.4438C30.9961 31.3332 31.4438 31.7809 31.4438 32.3332C31.4438 32.8855 30.9961 33.3332 30.4438 33.3332H1.66602C1.11373 33.3332 0.666016 32.8855 0.666016 32.3332Z" fill="#E65B7E"/>
<path fill-rule="evenodd" clip-rule="evenodd" d="M21.3327 3.6665C21.3327 3.11422 21.7804 2.6665 22.3327 2.6665H33.3327V27.9998H28.9993C28.4471 27.9998 27.9993 27.5521 27.9993 26.9998C27.9993 26.4475 28.4471 25.9998 28.9993 25.9998H31.3327V4.6665H22.3327C21.7804 4.6665 21.3327 4.21879 21.3327 3.6665Z" fill="#E65B7E"/>
<path fill-rule="evenodd" clip-rule="evenodd" d="M28.9993 8.6665H24.9993V6.6665H28.9993V8.6665Z" fill="#E65B7E"/>
<path fill-rule="evenodd" clip-rule="evenodd" d="M28.9993 11.3332H24.9993V9.33317H28.9993V11.3332Z" fill="#E65B7E"/>
<path fill-rule="evenodd" clip-rule="evenodd" d="M28.9993 13.9998H24.9993V11.9998H28.9993V13.9998Z" fill="#E65B7E"/>
</svg>
