<svg width="21" height="20" viewBox="0 0 21 20" fill="none" xmlns="http://www.w3.org/2000/svg">
<path d="M15.5835 10.512C15.5755 9.03718 16.2426 7.92403 17.5928 7.10423C16.8373 6.02323 15.696 5.42848 14.1891 5.31195C12.7625 5.19942 11.2032 6.14379 10.6326 6.14379C10.0298 6.14379 8.64743 5.35213 7.56241 5.35213C5.32003 5.3883 2.93701 7.1404 2.93701 10.7049C2.93701 11.7578 3.1299 12.8468 3.51569 13.968C4.03007 15.4428 5.88666 19.0595 7.82361 18.9993C8.8363 18.9751 9.55161 18.2799 10.8697 18.2799C12.1476 18.2799 12.8107 18.9993 13.9399 18.9993C15.8929 18.9711 17.5727 15.6839 18.063 14.2051C15.4429 12.9714 15.5835 10.5884 15.5835 10.512V10.512ZM13.309 3.91348C14.4061 2.61145 14.3056 1.42597 14.2734 1C13.305 1.05626 12.1838 1.65905 11.5448 2.40249C10.8416 3.19817 10.4277 4.18272 10.5161 5.29185C11.5649 5.37222 12.5213 4.83373 13.309 3.91348V3.91348Z" fill="#222222"/>
</svg>
