<svg width="24" height="24" viewBox="0 0 24 24" fill="none" xmlns="http://www.w3.org/2000/svg">
<path d="M19.2004 8.79999V7.99999L16.8004 9.59999L14.4004 7.99999V8.79999L16.8004 10.4L19.2004 8.79999ZM20.0004 4.79999H4.00039C3.57604 4.79999 3.16908 4.96856 2.86902 5.26862C2.56896 5.56868 2.40039 5.97564 2.40039 6.39999L2.40039 17.6C2.40039 18.0243 2.56896 18.4313 2.86902 18.7314C3.16908 19.0314 3.57604 19.2 4.00039 19.2H20.0004C20.4247 19.2 20.8317 19.0314 21.1318 18.7314C21.4318 18.4313 21.6004 18.0243 21.6004 17.6V6.39999C21.6004 5.97564 21.4318 5.56868 21.1318 5.26862C20.8317 4.96856 20.4247 4.79999 20.0004 4.79999ZM8.80039 7.19999C9.43691 7.19999 10.0474 7.45284 10.4974 7.90293C10.9475 8.35302 11.2004 8.96347 11.2004 9.59999C11.2004 10.2365 10.9475 10.847 10.4974 11.297C10.0474 11.7471 9.43691 12 8.80039 12C8.16387 12 7.55342 11.7471 7.10333 11.297C6.65325 10.847 6.40039 10.2365 6.40039 9.59999C6.40039 8.96347 6.65325 8.35302 7.10333 7.90293C7.55342 7.45284 8.16387 7.19999 8.80039 7.19999V7.19999ZM13.6004 16.8H4.00039V16C4.00039 14.4 7.20039 13.52 8.80039 13.52C10.4004 13.52 13.6004 14.4 13.6004 16V16.8ZM20.0004 12H13.6004V7.19999H20.0004" fill="#E65B7E"/>
</svg>
