<svg width="20" height="20" viewBox="0 0 20 20" fill="none" xmlns="http://www.w3.org/2000/svg">
<path d="M17.5 10C17.5 8.89551 16.8057 7.95215 15.8271 7.58594C16.2578 6.63672 16.085 5.47949 15.3027 4.69727C14.5205 3.91504 13.3633 3.74219 12.4141 4.17285C12.0479 3.19434 11.1045 2.5 10 2.5C8.89551 2.5 7.95215 3.19434 7.58594 4.17285C6.63672 3.74219 5.47656 3.91504 4.69727 4.69727C3.91504 5.47949 3.74219 6.63672 4.17285 7.58594C3.19434 7.95215 2.5 8.89551 2.5 10C2.5 11.1045 3.19434 12.0479 4.17285 12.4141C3.74219 13.3633 3.91504 14.5234 4.69727 15.3027C5.47656 16.082 6.63379 16.2607 7.58594 15.8271C7.95215 16.8027 8.89551 17.5 10 17.5C11.1045 17.5 12.0479 16.8057 12.4141 15.8271C13.3691 16.2607 14.5234 16.082 15.3027 15.3027C16.085 14.5205 16.2578 13.3633 15.8271 12.4141C16.8057 12.0479 17.5 11.1045 17.5 10ZM10.7031 12.7668V13.2812C10.7031 13.5402 10.4934 13.75 10.2344 13.75H9.76562C9.50664 13.75 9.29688 13.5402 9.29688 13.2812V12.7618C8.9623 12.7223 8.64414 12.6098 8.36582 12.4261C8.18359 12.3057 8.16602 12.042 8.32041 11.8876L8.83369 11.3743C8.94326 11.2647 9.10645 11.2501 9.24707 11.3148C9.34023 11.3576 9.44219 11.3799 9.54766 11.3799H10.508C10.6445 11.3799 10.7553 11.2691 10.7553 11.1332C10.7553 11.0233 10.6814 10.9258 10.576 10.8956L9.10908 10.4767C8.45723 10.2906 7.93691 9.75273 7.85195 9.08008C7.7333 8.14053 8.40947 7.33896 9.29688 7.23291V6.71875C9.29688 6.45977 9.50664 6.25 9.76562 6.25H10.2344C10.4934 6.25 10.7031 6.45977 10.7031 6.71875V7.23818C11.0377 7.27773 11.3559 7.39023 11.6342 7.57393C11.8164 7.69434 11.834 7.95801 11.6796 8.1124L11.1663 8.62568C11.0567 8.73525 10.8936 8.7499 10.7529 8.68516C10.6586 8.64203 10.5561 8.61984 10.4523 8.62012H9.49199C9.35547 8.62012 9.24473 8.73086 9.24473 8.8668C9.24473 8.97666 9.31855 9.07422 9.42402 9.10439L10.8909 9.52334C11.5428 9.70967 12.0631 10.2473 12.148 10.9199C12.2667 11.8592 11.5905 12.6607 10.7031 12.7668Z" fill="white"/>
</svg>
