<svg width="24" height="24" viewBox="0 0 24 24" fill="none" xmlns="http://www.w3.org/2000/svg">
<path d="M3.6932 3.03345C3.31125 3.03345 3 3.34469 3 3.72665V14.8178C3 15.1998 3.31125 15.511 3.6932 15.511H14.7844C15.1663 15.511 15.4776 15.1998 15.4776 14.8178V3.72665C15.4776 3.34469 15.1663 3.03345 14.7844 3.03345H3.6932ZM4.3864 4.41985H14.0912V12.7382H4.3864V4.41985ZM16.1708 5.04789V6.45577L17.4276 6.67275L16.1708 13.9513V14.8178C16.1708 15.5831 15.549 16.2042 14.7844 16.2042H7.44064L16.236 17.721C16.4169 17.7524 16.603 17.7106 16.7532 17.605C16.9035 17.4993 17.0056 17.3383 17.0373 17.1574L18.9006 6.21801C18.9164 6.12833 18.9143 6.03643 18.8944 5.94757C18.8746 5.8587 18.8375 5.77462 18.7851 5.70012C18.7328 5.62563 18.6663 5.56219 18.5894 5.51343C18.5125 5.46467 18.4267 5.43155 18.337 5.41597L16.1708 5.04789ZM9.2388 5.76257C8.44092 5.76257 7.76575 6.31159 7.76575 7.34446C7.76575 8.01963 8.0666 8.69758 8.48044 9.12043C8.64265 9.54329 8.36675 9.70411 8.30714 9.72698C7.47114 10.0292 6.48749 10.59 6.48749 11.1349V12.0236H11.9901V11.1356C11.9901 10.5741 11.0044 10.0167 10.1268 9.72698C10.0866 9.71381 9.83772 9.60221 9.99716 9.12043C10.4096 8.69758 10.7333 8.01617 10.7333 7.34446C10.7333 6.31159 10.0367 5.76257 9.2388 5.76257ZM19.225 8.51458L18.9873 9.87879L19.485 9.98693L17.5787 18.0891L17.2972 18.0239C17.1426 18.1762 16.9537 18.2892 16.7463 18.3532C16.5389 18.4173 16.3192 18.4306 16.1056 18.392L6.50967 16.7456L6.31349 17.5698C6.27265 17.7506 6.30419 17.9402 6.40135 18.098C6.49852 18.2558 6.6536 18.3693 6.83339 18.4142L17.6217 20.9492C17.8024 20.99 17.992 20.9585 18.1498 20.8613C18.3076 20.7642 18.4211 20.6091 18.466 20.4293L20.9802 9.63964C21.0682 9.26808 20.8554 8.88336 20.4825 8.79463L19.2257 8.51319L19.225 8.51458Z" fill="black"/>
</svg>
