<svg width="24" height="24" viewBox="0 0 24 24" fill="none" xmlns="http://www.w3.org/2000/svg">
<path d="M9.57965 3.60007C7.89618 3.59117 6.25724 5.21229 7.00545 7.22533H4.18185C3.70937 7.22533 3.25625 7.41302 2.92217 7.74711C2.58808 8.0812 2.40039 8.53432 2.40039 9.00679V10.7882C2.40039 11.0245 2.49423 11.251 2.66128 11.4181C2.82832 11.5851 3.05488 11.679 3.29112 11.679H11.3077V9.00679H13.0891V11.679H21.1057C21.3419 11.679 21.5685 11.5851 21.7355 11.4181C21.9025 11.251 21.9964 11.0245 21.9964 10.7882V9.00679C21.9964 8.53432 21.8087 8.0812 21.4746 7.74711C21.1405 7.41302 20.6874 7.22533 20.2149 7.22533H17.3913C18.4335 4.31266 14.5143 2.25508 12.7061 4.76693L12.1984 5.44388L11.6907 4.74911C11.1295 3.95636 10.3546 3.60898 9.57965 3.60007ZM9.52621 5.44388C10.319 5.44388 10.7198 6.40586 10.1586 6.96702C9.59747 7.52818 8.63548 7.12735 8.63548 6.33461C8.63548 6.09837 8.72933 5.87181 8.89637 5.70477C9.06341 5.53772 9.28997 5.44388 9.52621 5.44388V5.44388ZM14.8706 5.44388C15.6633 5.44388 16.0641 6.40586 15.503 6.96702C14.9418 7.52818 13.9798 7.12735 13.9798 6.33461C13.9798 6.09837 14.0737 5.87181 14.2407 5.70477C14.4078 5.53772 14.6343 5.44388 14.8706 5.44388V5.44388ZM3.29112 12.5697V19.6955C3.29112 20.168 3.47881 20.6211 3.81289 20.9552C4.14698 21.2893 4.6001 21.477 5.07257 21.477H19.3242C19.7967 21.477 20.2498 21.2893 20.5839 20.9552C20.918 20.6211 21.1057 20.168 21.1057 19.6955V12.5697H13.0891V19.6955H11.3077V12.5697H3.29112Z" fill="#E65B7E"/>
</svg>
