<svg width="24" height="24" viewBox="0 0 24 24" fill="none" xmlns="http://www.w3.org/2000/svg">
<path d="M16.7143 14.1429H6.42857L3 17.5714V3.85714C3 3.62981 3.09031 3.4118 3.25105 3.25105C3.4118 3.09031 3.62981 3 3.85714 3H16.7143C16.9416 3 17.1596 3.09031 17.3204 3.25105C17.4811 3.4118 17.5714 3.62981 17.5714 3.85714V13.2857C17.5714 13.513 17.4811 13.7311 17.3204 13.8918C17.1596 14.0526 16.9416 14.1429 16.7143 14.1429ZM21 9V21L17.5714 17.5714H8.14286C7.91553 17.5714 7.69751 17.4811 7.53677 17.3204C7.37602 17.1596 7.28571 16.9416 7.28571 16.7143V15.8571H19.2857V8.14286H20.1429C20.3702 8.14286 20.5882 8.23316 20.7489 8.39391C20.9097 8.55465 21 8.77267 21 9ZM8.30571 4.71429C7.56 4.71429 6.96 4.88571 6.49714 5.22C6.05143 5.57143 5.82857 6.06 5.83714 6.73714L5.84571 6.76286H7.5C7.50857 6.50571 7.58571 6.30857 7.74 6.17143C7.89872 6.03981 8.09957 5.96982 8.30571 5.97429C8.57143 5.97429 8.79429 6.06 8.94857 6.21429C9.10286 6.37714 9.17143 6.6 9.17143 6.85714C9.17143 7.13143 9.11143 7.36286 8.97429 7.56C8.85429 7.75714 8.67429 7.92857 8.45143 8.06571C8.01429 8.35714 7.71429 8.61429 7.55143 8.84571C7.38 9.06857 7.28571 9.42857 7.28571 9.85714H9C9 9.59143 9.03429 9.37714 9.11143 9.22286C9.18857 9.06857 9.33429 8.91429 9.54857 8.77714C9.93429 8.57143 10.2514 8.32286 10.5 7.98C10.7486 7.63714 10.8771 7.28571 10.8771 6.85714C10.8771 6.20571 10.6457 5.68286 10.1829 5.29714C9.72857 4.91143 9.10286 4.71429 8.30571 4.71429ZM7.28571 10.7143V12.4286H9V10.7143H7.28571ZM12.4286 12.4286H14.1429V10.7143H12.4286V12.4286ZM12.4286 4.71429V9.85714H14.1429V4.71429H12.4286Z" fill="black"/>
</svg>
