<svg width="24" height="24" viewBox="0 0 24 24" fill="none" xmlns="http://www.w3.org/2000/svg">
<path d="M15.3333 12C15.3333 11.0799 15.0078 10.2943 14.3568 9.64323C13.7057 8.99219 12.9201 8.66667 12 8.66667C11.0799 8.66667 10.2943 8.99219 9.64323 9.64323C8.99219 10.2943 8.66667 11.0799 8.66667 12C8.66667 12.9201 8.99219 13.7057 9.64323 14.3568C10.2943 15.0078 11.0799 15.3333 12 15.3333C12.9201 15.3333 13.7057 15.0078 14.3568 14.3568C15.0078 13.7057 15.3333 12.9201 15.3333 12ZM17.1302 12C17.1302 13.4236 16.6311 14.6345 15.6328 15.6328C14.6345 16.6311 13.4236 17.1302 12 17.1302C10.5764 17.1302 9.36545 16.6311 8.36719 15.6328C7.36892 14.6345 6.86979 13.4236 6.86979 12C6.86979 10.5764 7.36892 9.36545 8.36719 8.36719C9.36545 7.36892 10.5764 6.86979 12 6.86979C13.4236 6.86979 14.6345 7.36892 15.6328 8.36719C16.6311 9.36545 17.1302 10.5764 17.1302 12ZM18.5365 6.66146C18.5365 6.99132 18.4193 7.27344 18.1849 7.50781C17.9505 7.74219 17.6684 7.85937 17.3385 7.85937C17.0087 7.85937 16.7266 7.74219 16.4922 7.50781C16.2578 7.27344 16.1406 6.99132 16.1406 6.66146C16.1406 6.3316 16.2578 6.04948 16.4922 5.8151C16.7266 5.58073 17.0087 5.46354 17.3385 5.46354C17.6684 5.46354 17.9505 5.58073 18.1849 5.8151C18.4193 6.04948 18.5365 6.3316 18.5365 6.66146ZM12 3.79687C11.9392 3.79687 11.6072 3.7947 11.0039 3.79036C10.4006 3.78602 9.94271 3.78602 9.63021 3.79036C9.31771 3.7947 8.89887 3.80773 8.3737 3.82943C7.84852 3.85113 7.40148 3.89453 7.03255 3.95964C6.66363 4.02474 6.3533 4.10503 6.10156 4.20052C5.66753 4.37413 5.28559 4.62587 4.95573 4.95573C4.62587 5.28559 4.37413 5.66753 4.20052 6.10156C4.10503 6.3533 4.02474 6.66363 3.95964 7.03255C3.89453 7.40148 3.85113 7.84852 3.82943 8.3737C3.80773 8.89887 3.7947 9.31771 3.79036 9.63021C3.78602 9.94271 3.78602 10.4006 3.79036 11.0039C3.7947 11.6072 3.79687 11.9392 3.79687 12C3.79687 12.0608 3.7947 12.3928 3.79036 12.9961C3.78602 13.5994 3.78602 14.0573 3.79036 14.3698C3.7947 14.6823 3.80773 15.1011 3.82943 15.6263C3.85113 16.1515 3.89453 16.5985 3.95964 16.9674C4.02474 17.3364 4.10503 17.6467 4.20052 17.8984C4.37413 18.3325 4.62587 18.7144 4.95573 19.0443C5.28559 19.3741 5.66753 19.6259 6.10156 19.7995C6.3533 19.895 6.66363 19.9753 7.03255 20.0404C7.40148 20.1055 7.84852 20.1489 8.3737 20.1706C8.89887 20.1923 9.31771 20.2053 9.63021 20.2096C9.94271 20.214 10.4006 20.214 11.0039 20.2096C11.6072 20.2053 11.9392 20.2031 12 20.2031C12.0608 20.2031 12.3928 20.2053 12.9961 20.2096C13.5994 20.214 14.0573 20.214 14.3698 20.2096C14.6823 20.2053 15.1011 20.1923 15.6263 20.1706C16.1515 20.1489 16.5985 20.1055 16.9674 20.0404C17.3364 19.9753 17.6467 19.895 17.8984 19.7995C18.3325 19.6259 18.7144 19.3741 19.0443 19.0443C19.3741 18.7144 19.6259 18.3325 19.7995 17.8984C19.895 17.6467 19.9753 17.3364 20.0404 16.9674C20.1055 16.5985 20.1489 16.1515 20.1706 15.6263C20.1923 15.1011 20.2053 14.6823 20.2096 14.3698C20.214 14.0573 20.214 13.5994 20.2096 12.9961C20.2053 12.3928 20.2031 12.0608 20.2031 12C20.2031 11.9392 20.2053 11.6072 20.2096 11.0039C20.214 10.4006 20.214 9.94271 20.2096 9.63021C20.2053 9.31771 20.1923 8.89887 20.1706 8.3737C20.1489 7.84852 20.1055 7.40148 20.0404 7.03255C19.9753 6.66363 19.895 6.3533 19.7995 6.10156C19.6259 5.66753 19.3741 5.28559 19.0443 4.95573C18.7144 4.62587 18.3325 4.37413 17.8984 4.20052C17.6467 4.10503 17.3364 4.02474 16.9674 3.95964C16.5985 3.89453 16.1515 3.85113 15.6263 3.82943C15.1011 3.80773 14.6823 3.7947 14.3698 3.79036C14.0573 3.78602 13.5994 3.78602 12.9961 3.79036C12.3928 3.7947 12.0608 3.79687 12 3.79687ZM22 12C22 13.9878 21.9783 15.3637 21.9349 16.1276C21.8481 17.9332 21.3099 19.3307 20.3203 20.3203C19.3307 21.3099 17.9332 21.8481 16.1276 21.9349C15.3637 21.9783 13.9878 22 12 22C10.0122 22 8.63628 21.9783 7.8724 21.9349C6.06684 21.8481 4.66927 21.3099 3.67969 20.3203C2.6901 19.3307 2.15191 17.9332 2.0651 16.1276C2.0217 15.3637 2 13.9878 2 12C2 10.0122 2.0217 8.63628 2.0651 7.8724C2.15191 6.06684 2.6901 4.66927 3.67969 3.67969C4.66927 2.6901 6.06684 2.15191 7.8724 2.0651C8.63628 2.0217 10.0122 2 12 2C13.9878 2 15.3637 2.0217 16.1276 2.0651C17.9332 2.15191 19.3307 2.6901 20.3203 3.67969C21.3099 4.66927 21.8481 6.06684 21.9349 7.8724C21.9783 8.63628 22 10.0122 22 12Z" fill="#222222"/>
</svg>
