<svg width="20" height="20" viewBox="0 0 20 20" fill="none" xmlns="http://www.w3.org/2000/svg">
<g clip-path="url(#clip0_1_5352)">
<path d="M12.5 13.3329V11.6662C12.875 11.4804 13.9475 10.2037 14.06 9.2062C14.355 9.1837 14.8183 8.91287 14.955 7.8437C15.0283 7.26953 14.7367 6.94703 14.56 6.84537C14.56 6.84537 15 6.00953 15 5.00037C15 2.97703 14.2058 1.25037 12.5 1.25037C12.5 1.25037 11.9075 0.000366211 10 0.000366211C6.465 0.000366211 5 2.26787 5 5.00037C5 5.92037 5.44 6.84537 5.44 6.84537C5.26333 6.94703 4.97167 7.27037 5.045 7.8437C5.18167 8.91287 5.645 9.1837 5.94 9.2062C6.0525 10.2037 7.125 11.4804 7.5 11.6662V13.3329C6.66667 15.8329 0 14.1662 0 19.9995H20C20 14.1662 13.3333 15.8329 12.5 13.3329Z" fill="#2BAEEC"/>
</g>
<defs>
<clipPath id="clip0_1_5352">
<rect width="20" height="20" fill="white"/>
</clipPath>
</defs>
</svg>
