<svg width="20" height="20" viewBox="0 0 20 20" fill="none" xmlns="http://www.w3.org/2000/svg">
<path d="M15.5554 14.6297V15.0926C15.5554 15.8597 14.9336 16.4815 14.1665 16.4815H3.05539C2.28832 16.4815 1.6665 15.8597 1.6665 15.0926V7.68522C1.6665 6.91815 2.28832 6.29633 3.05539 6.29633H3.51836V12.3149C3.51836 13.5912 4.55678 14.6297 5.83317 14.6297H15.5554ZM18.3332 12.3149V4.90744C18.3332 4.14037 17.7114 3.51855 16.9443 3.51855H5.83317C5.0661 3.51855 4.44428 4.14037 4.44428 4.90744V12.3149C4.44428 13.0819 5.0661 13.7037 5.83317 13.7037H16.9443C17.7114 13.7037 18.3332 13.0819 18.3332 12.3149ZM9.07391 6.29633C9.07391 7.0634 8.45209 7.68522 7.68502 7.68522C6.91795 7.68522 6.29613 7.0634 6.29613 6.29633C6.29613 5.52926 6.91795 4.90744 7.68502 4.90744C8.45209 4.90744 9.07391 5.52926 9.07391 6.29633ZM6.29613 10.463L7.90247 8.85666C8.03806 8.72107 8.25791 8.72107 8.39353 8.85666L9.53687 10L13.458 6.07888C13.5936 5.94329 13.8135 5.94329 13.9491 6.07888L16.4813 8.61115V11.8519H6.29613V10.463Z" fill="white" fill-opacity="0.5"/>
</svg>
