<svg width="33" height="34" viewBox="0 0 33 34" fill="none" xmlns="http://www.w3.org/2000/svg">
<path fill-rule="evenodd" clip-rule="evenodd" d="M6.99935 0.666504H26.336V6.33317C26.336 6.88546 25.8883 7.33317 25.336 7.33317C24.7837 7.33317 24.336 6.88546 24.336 6.33317V2.6665H8.99935V7.99984H5.33268C4.7804 7.99984 4.33268 7.55212 4.33268 6.99984C4.33268 6.44755 4.7804 5.99984 5.33268 5.99984H6.99935V0.666504ZM6.64518 2.28684C7.03896 2.67408 7.04426 3.30722 6.65702 3.701L3.66602 6.74249V31.3332H24.3327V20.2784C21.6435 19.5468 19.666 17.0876 19.666 14.1666C19.666 10.6688 22.5015 7.83331 25.9993 7.83331C29.4972 7.83331 32.3327 10.6688 32.3327 14.1666C32.3327 16.5533 31.0125 18.6317 29.0626 19.7113L32.2651 27.9717C32.4647 28.4866 32.2091 29.0659 31.6942 29.2656C31.1792 29.4652 30.5999 29.2096 30.4003 28.6946L27.1807 20.39C26.9039 20.4422 26.6209 20.4764 26.3327 20.4914V33.3332H1.66602V5.92385L5.23102 2.29867C5.61826 1.90489 6.2514 1.89959 6.64518 2.28684ZM13.9993 8.6665C13.0789 8.6665 12.3327 9.4127 12.3327 10.3332V11.6665C12.3327 12.587 13.0789 13.3332 13.9993 13.3332C14.9198 13.3332 15.666 12.587 15.666 11.6665V10.3332C15.666 9.4127 14.9198 8.6665 13.9993 8.6665ZM10.3327 10.3332C10.3327 8.30813 11.9743 6.6665 13.9993 6.6665C16.0244 6.6665 17.666 8.30813 17.666 10.3332V11.6665C17.666 12.8051 17.147 13.8225 16.3327 14.4951V14.9457L17.6489 15.3845C18.1729 15.5591 18.456 16.1255 18.2814 16.6494C18.1067 17.1733 17.5404 17.4565 17.0165 17.2819L14.3327 16.3873V15.3182C14.2229 15.3281 14.1117 15.3332 13.9993 15.3332C13.887 15.3332 13.7758 15.3281 13.666 15.3182V16.3873L10.9822 17.2819C10.4583 17.4565 9.89198 17.1733 9.71733 16.6494C9.54269 16.1255 9.82584 15.5591 10.3498 15.3845L11.666 14.9457V14.4951C10.8517 13.8225 10.3327 12.8051 10.3327 11.6665V10.3332ZM25.9993 9.83331C23.6061 9.83331 21.666 11.7734 21.666 14.1666C21.666 16.5599 23.6061 18.5 25.9993 18.5C28.3926 18.5 30.3327 16.5599 30.3327 14.1666C30.3327 11.7734 28.3926 9.83331 25.9993 9.83331ZM15.3327 21.9998H7.33268V19.9998H15.3327V21.9998ZM20.666 21.9998H16.666V19.9998H20.666V21.9998ZM10.666 22.6665V24.6665H7.33268V22.6665H10.666ZM20.666 22.6665V24.6665H11.9993V22.6665H20.666ZM16.666 25.3332V27.3332H7.33268V25.3332H16.666ZM20.666 27.3332H17.9993V25.3332H20.666V27.3332Z" fill="#B7B7B7"/>
</svg>
