<svg width="24" height="24" viewBox="0 0 24 24" fill="none" xmlns="http://www.w3.org/2000/svg">
<path d="M12 21C10.755 21 9.585 20.7637 8.49 20.2912C7.395 19.8187 6.4425 19.1775 5.6325 18.3675C4.8225 17.5575 4.18125 16.605 3.70875 15.51C3.23625 14.415 3 13.245 3 12C3 10.755 3.23625 9.585 3.70875 8.49C4.18125 7.395 4.8225 6.4425 5.6325 5.6325C6.4425 4.8225 7.395 4.18125 8.49 3.70875C9.585 3.23625 10.755 3 12 3C13.245 3 14.415 3.23625 15.51 3.70875C16.605 4.18125 17.5575 4.8225 18.3675 5.6325C19.1775 6.4425 19.8187 7.395 20.2912 8.49C20.7637 9.585 21 10.755 21 12C21 13.245 20.7637 14.415 20.2912 15.51C19.8187 16.605 19.1775 17.5575 18.3675 18.3675C17.5575 19.1775 16.605 19.8187 15.51 20.2912C14.415 20.7637 13.245 21 12 21ZM9.39 18.705L10.47 16.23C9.84 16.005 9.29625 15.6563 8.83875 15.1838C8.38125 14.7113 8.025 14.16 7.77 13.53L5.295 14.565C5.64 15.525 6.1725 16.365 6.8925 17.085C7.6125 17.805 8.445 18.345 9.39 18.705ZM7.77 10.47C8.025 9.84 8.38125 9.28875 8.83875 8.81625C9.29625 8.34375 9.84 7.995 10.47 7.77L9.435 5.295C8.475 5.655 7.635 6.195 6.915 6.915C6.195 7.635 5.655 8.475 5.295 9.435L7.77 10.47ZM12 14.7C12.75 14.7 13.3875 14.4375 13.9125 13.9125C14.4375 13.3875 14.7 12.75 14.7 12C14.7 11.25 14.4375 10.6125 13.9125 10.0875C13.3875 9.5625 12.75 9.3 12 9.3C11.25 9.3 10.6125 9.5625 10.0875 10.0875C9.5625 10.6125 9.3 11.25 9.3 12C9.3 12.75 9.5625 13.3875 10.0875 13.9125C10.6125 14.4375 11.25 14.7 12 14.7ZM14.61 18.705C15.555 18.345 16.3837 17.8087 17.0962 17.0962C17.8087 16.3837 18.345 15.555 18.705 14.61L16.23 13.53C16.005 14.16 15.66 14.7037 15.195 15.1612C14.73 15.6187 14.19 15.975 13.575 16.23L14.61 18.705ZM16.23 10.425L18.705 9.39C18.345 8.445 17.8087 7.61625 17.0962 6.90375C16.3837 6.19125 15.555 5.655 14.61 5.295L13.575 7.815C14.19 8.04 14.7225 8.38125 15.1725 8.83875C15.6225 9.29625 15.975 9.825 16.23 10.425Z" fill="black"/>
</svg>
