<svg width="24" height="24" viewBox="0 0 24 24" fill="none" xmlns="http://www.w3.org/2000/svg">
<g clip-path="url(#clip0_2176_23404)">
<path d="M2 18.25C2 18.9404 2.55964 19.5 3.25 19.5H10.75C11.4404 19.5 12 18.9404 12 18.25C12 17.5596 11.4404 17 10.75 17H3.25C2.55964 17 2 17.5596 2 18.25ZM2 14.082C2 14.7724 2.55964 15.332 3.25 15.332H20.75C21.4404 15.332 22 14.7724 22 14.082C22 13.3917 21.4404 12.832 20.75 12.832H3.25C2.55964 12.832 2 13.3917 2 14.082ZM2 9.91797C2 10.6083 2.55964 11.168 3.25 11.168H20.75C21.4404 11.168 22 10.6083 22 9.91797C22 9.22761 21.4404 8.66797 20.75 8.66797H3.25C2.55964 8.66797 2 9.22761 2 9.91797ZM3.25 4.5C2.55964 4.5 2 5.05964 2 5.75C2 6.44036 2.55964 7 3.25 7H20.75C21.4404 7 22 6.44036 22 5.75C22 5.05964 21.4404 4.5 20.75 4.5H3.25Z" fill="#E65B7E"/>
</g>
<defs>
<clipPath id="clip0_2176_23404">
<rect width="24" height="24" fill="white"/>
</clipPath>
</defs>
</svg>
