<svg width="24" height="24" viewBox="0 0 24 24" fill="none" xmlns="http://www.w3.org/2000/svg">
<path d="M19.9442 8.29744C19.9569 8.48603 19.9569 8.67467 19.9569 8.86326C19.9569 14.6156 15.8326 21.2437 8.29444 21.2437C5.97209 21.2437 3.81473 20.5297 2 19.2903C2.32996 19.3307 2.64719 19.3442 2.98985 19.3442C4.90607 19.3442 6.67006 18.6572 8.0787 17.4851C6.27666 17.4447 4.7665 16.1918 4.24618 14.4675C4.50001 14.5078 4.7538 14.5348 5.02032 14.5348C5.38833 14.5348 5.75638 14.4809 6.099 14.3866C4.22083 13.9825 2.81215 12.2312 2.81215 10.1161V10.0622C3.35782 10.3856 3.99239 10.5876 4.66493 10.6146C3.56087 9.83318 2.83754 8.49951 2.83754 6.99067C2.83754 6.18239 3.04055 5.44145 3.3959 4.79481C5.41369 7.43525 8.44671 9.15959 11.8477 9.34822C11.7843 9.0249 11.7462 8.68814 11.7462 8.35134C11.7462 5.95337 13.5736 4 15.8452 4C17.0254 4 18.0914 4.52539 18.8401 5.37411C19.7665 5.18551 20.6548 4.82176 21.4416 4.32332C21.137 5.33372 20.4898 6.18243 19.6396 6.72126C20.4645 6.627 21.264 6.38446 22 6.0477C21.4417 6.90985 20.7437 7.67771 19.9442 8.29744V8.29744Z" fill="#222222"/>
</svg>
