<svg width="24" height="24" viewBox="0 0 24 24" fill="none" xmlns="http://www.w3.org/2000/svg">
<path d="M17.5607 11.0541L10.9393 4.38685C10.658 4.10359 10.2765 3.94446 9.87869 3.94446H3.5C2.67156 3.94446 2 4.62068 2 5.45488V11.8779C2 12.2784 2.15804 12.6626 2.43934 12.9459L9.06066 19.6132C9.64641 20.203 10.5962 20.2031 11.182 19.6132L17.5607 13.1902C18.1464 12.6003 18.1464 11.644 17.5607 11.0541ZM5.5 8.97918C4.67156 8.97918 4 8.30296 4 7.46877C4 6.63457 4.67156 5.95835 5.5 5.95835C6.32844 5.95835 7 6.63457 7 7.46877C7 8.30296 6.32844 8.97918 5.5 8.97918ZM21.5607 13.1902L15.182 19.6132C14.5962 20.203 13.6464 20.203 13.0607 19.6132L13.0494 19.6019L18.4888 14.1247C19.02 13.5898 19.3125 12.8786 19.3125 12.1222C19.3125 11.3657 19.0199 10.6545 18.4888 10.1196L12.3562 3.94446H13.8787C14.2765 3.94446 14.658 4.10359 14.9393 4.38685L21.5607 11.0541C22.1464 11.644 22.1464 12.6003 21.5607 13.1902Z" fill="#B7B7B7"/>
</svg>
