<svg width="20" height="20" viewBox="0 0 20 20" fill="none" xmlns="http://www.w3.org/2000/svg">
<path fill-rule="evenodd" clip-rule="evenodd" d="M10 0C10.5523 0 11 0.447715 11 1V2.38462C11 2.9369 10.5523 3.38462 10 3.38462C9.44772 3.38462 9 2.9369 9 2.38462V1C9 0.447715 9.44772 0 10 0Z" fill="#E65B7E"/>
<path fill-rule="evenodd" clip-rule="evenodd" d="M0 2.38477C0 1.83248 0.447715 1.38477 1 1.38477H19C19.5523 1.38477 20 1.83248 20 2.38477C20 2.93705 19.5523 3.38477 19 3.38477H1C0.447715 3.38477 0 2.93705 0 2.38477Z" fill="#E65B7E"/>
<path fill-rule="evenodd" clip-rule="evenodd" d="M10.2182 12.5807C10.7045 12.3188 11.311 12.5008 11.5728 12.987L13.9959 17.487C14.2577 17.9733 14.0758 18.5798 13.5895 18.8416C13.1032 19.1034 12.4968 18.9215 12.2349 18.4352L9.81186 13.9352C9.55002 13.449 9.73196 12.8425 10.2182 12.5807Z" fill="#E65B7E"/>
<path d="M1 2.38477V13.4617C1 14.2267 1.61962 14.8463 2.38462 14.8463H17.6154C18.3804 14.8463 19 14.2267 19 13.4617V2.38477H1ZM16.0279 6.33577L11.8741 10.4896C11.6034 10.7603 11.1658 10.7603 10.8952 10.4896L9.30769 8.90215L7.02792 11.1819C6.89292 11.3169 6.71569 11.3848 6.53846 11.3848C6.36123 11.3848 6.184 11.3169 6.049 11.1819L4.66438 9.7973C4.39369 9.52661 4.39369 9.08907 4.66438 8.81838C4.93508 8.54769 5.37262 8.54769 5.64331 8.81838L6.53846 9.71354L8.81823 7.43377C9.08892 7.16307 9.52646 7.16307 9.79715 7.43377L11.3846 9.02123L15.049 5.35684C15.3197 5.08615 15.7572 5.08615 16.0279 5.35684C16.2986 5.62754 16.2986 6.06507 16.0279 6.33577Z" fill="#E65B7E"/>
<path d="M13.1154 19.0008C13.6889 19.0008 14.1538 18.5358 14.1538 17.9623C14.1538 17.3888 13.6889 16.9238 13.1154 16.9238C12.5418 16.9238 12.0769 17.3888 12.0769 17.9623C12.0769 18.5358 12.5418 19.0008 13.1154 19.0008Z" fill="#E65B7E"/>
<path fill-rule="evenodd" clip-rule="evenodd" d="M9.78189 12.5807C10.2682 12.8425 10.4501 13.449 10.1883 13.9352L7.76519 18.4352C7.50335 18.9215 6.89689 19.1034 6.41062 18.8416C5.92434 18.5798 5.74241 17.9733 6.00424 17.487L8.42732 12.987C8.68916 12.5008 9.29562 12.3188 9.78189 12.5807Z" fill="#E65B7E"/>
<path d="M6.88465 19.0008C7.45818 19.0008 7.92311 18.5358 7.92311 17.9623C7.92311 17.3888 7.45818 16.9238 6.88465 16.9238C6.31113 16.9238 5.84619 17.3888 5.84619 17.9623C5.84619 18.5358 6.31113 19.0008 6.88465 19.0008Z" fill="#E65B7E"/>
</svg>
