<svg width="192" height="192" viewBox="0 0 192 192" fill="none" xmlns="http://www.w3.org/2000/svg">
<g clip-path="url(#clip0_2064_48103)">
<path d="M76.3058 161.981C76.1861 161.927 76.0631 161.881 75.945 161.824C22.1778 137.954 15.9982 98.0905 15.9982 98.0905L16.0123 98.0938C15.1586 94.0959 14.7186 89.9083 14.7186 85.5171C14.7186 70.4476 19.7167 57.6953 29.7162 47.2551C39.7124 36.8182 53.0341 31.5969 69.6788 31.5969C80.1951 31.5969 89.7017 33.6365 98.202 37.7132C100.242 38.6911 102.632 38.6131 104.586 37.4751L106.546 36.3338C109.674 34.511 109.678 30.0163 106.559 28.1787C95.7516 21.8103 83.7072 18.627 70.4243 18.627C48.9351 18.627 31.8264 25.0832 19.0975 37.9899C6.36447 50.8991 0 66.7421 0 85.5171C0 104.295 6.39584 120.137 19.19 133.044C19.8537 133.714 20.5365 134.356 21.2234 134.991C33.3513 147.107 58.128 165.591 101.35 173.299C103 173.594 104.599 172.989 105.655 171.847C94.5661 169.111 84.844 165.746 76.3058 161.981Z" fill="#E65B7E"/>
<path d="M177.768 51.3768C168.277 41.9613 156.882 37.2539 143.574 37.2539C130.266 37.2539 118.899 41.9613 109.472 51.3768C107.12 53.7264 105.06 56.1937 103.295 58.7773C103.292 58.7863 102.045 62.0988 107.306 64.0033C112.573 65.9111 116.022 64.0033 116.022 64.0033L116.024 64.005C117.002 62.6756 118.08 61.3879 119.268 60.146C125.983 53.1308 134.084 49.6228 143.574 49.6228C153.185 49.6228 161.346 53.1308 168.064 60.146C174.778 67.162 178.137 75.5926 178.137 85.4376C178.137 90.7757 177.356 95.6859 175.383 100.155C175.383 100.155 164.64 131.223 120.267 127.414C127.232 131.299 134.997 133.254 143.574 133.254C156.882 133.254 168.277 128.577 177.768 119.222C187.254 109.87 192 98.546 192 85.2535C192 72.0853 187.254 60.7923 177.768 51.3768Z" fill="#E65B7E"/>
<path d="M47.9173 59.7863C57.8119 50.3983 69.7221 44.7438 81.6716 42.8598C78.1719 42.0128 74.5215 41.5522 70.763 41.5522C45.1342 41.5522 24.3582 62.4129 24.3582 88.1453C24.3582 94.4832 25.6235 100.523 27.9053 106.03C27.495 89.8221 34.3101 72.6965 47.9173 59.7863Z" fill="#E65B7E"/>
</g>
<defs>
<clipPath id="clip0_2064_48103">
<rect width="192" height="192" rx="96" fill="white"/>
</clipPath>
</defs>
</svg>
