<svg width="223" height="223" viewBox="0 0 223 223" fill="none" xmlns="http://www.w3.org/2000/svg">
<g clip-path="url(#clip0_2240_39563)">
<path d="M197.849 78.597C187.267 39.1051 138.668 17.8439 89.3481 31.0592C40.028 44.2745 8.57079 86.9866 19.1526 126.479C29.7344 165.97 78.3332 187.232 127.653 174.016C137.497 171.385 146.94 167.438 155.727 162.28L203.92 172.733L191.567 126.63C199.797 112.035 202.048 94.8176 197.849 78.597ZM124.618 126.948L71.0089 141.313L66.2208 123.443L119.83 109.078L124.618 126.948ZM150.781 81.6326L61.4326 105.573L56.6444 87.7037L145.993 63.7629L150.781 81.6326Z" fill="white"/>
</g>
<defs>
<clipPath id="clip0_2240_39563">
<rect width="222" height="222" fill="white" transform="translate(0.0126953 0.0126953)"/>
</clipPath>
</defs>
</svg>
