<svg width="144" height="144" viewBox="0 0 144 144" fill="none" xmlns="http://www.w3.org/2000/svg">
<path d="M117.113 16H26.1309C19.431 16 14 21.4393 14 28.149V88.8939C14 95.6035 19.431 101.043 26.1309 101.043H32.1964V128.378L59.4912 101.043H117.113C123.813 101.043 129.244 95.6035 129.244 88.8939V28.149C129.244 21.4393 123.813 16 117.113 16Z" fill="white" fill-opacity="0.27"/>
<path d="M120.145 45.4468C118.469 45.4468 117.112 44.0884 117.112 42.4097V28.1489H103.202C101.525 28.1489 100.169 26.7904 100.169 25.1116C100.169 23.4328 101.525 22.0744 103.202 22.0744H117.112C120.456 22.0744 123.178 24.8002 123.178 28.1489V42.4097C123.178 44.0884 121.821 45.4468 120.145 45.4468Z" fill="white"/>
<path d="M76.0589 84.5892C135.443 62.0449 93.3041 22.2427 83.7882 43.9962C82.932 20.2709 29.1093 41.8304 76.0589 84.5892Z" fill="#FFE1F0"/>
<path d="M93.988 66.8472C93.0966 66.9778 92.1598 66.7134 91.4578 66.046C90.2415 64.8906 90.1951 62.9672 91.3479 61.7524C94.2196 58.7274 95.4753 55.7296 94.8817 53.317C94.4769 51.668 93.4534 50.643 92.8768 50.1791C91.5736 49.1261 91.3706 47.2169 92.4259 45.9085C93.4762 44.6067 95.386 44.396 96.693 45.4544C98.7087 47.0832 100.16 49.3611 100.773 51.8636C101.879 56.356 100.094 61.3527 95.7476 65.9333C95.2595 66.4483 94.636 66.7523 93.988 66.8472Z" fill="white"/>
<path d="M57.9579 83.6298C89.0977 51.9532 50.679 38.9743 50.9955 55.5774C43.5115 40.752 15.6175 70.1777 57.9579 83.6298Z" fill="#FFA6BD"/>
<path d="M58.29 71.0252C57.925 70.9717 57.5637 70.85 57.2235 70.6563C55.7696 69.8231 55.2625 67.9683 56.094 66.5137C58.0077 63.1585 58.1384 61.1607 57.9411 60.5715C56.5613 59.6201 56.1966 57.7027 57.149 56.3227C58.0996 54.9454 59.9703 54.572 61.3512 55.5264C62.4558 56.2905 63.2651 57.3652 63.6923 58.6385C64.635 61.441 63.8307 65.2074 61.3632 69.5274C60.726 70.6449 59.4893 71.2009 58.29 71.0252Z" fill="white"/>
</svg>
