<svg width="110" height="32" viewBox="0 0 110 32" fill="none" xmlns="http://www.w3.org/2000/svg">
<path d="M20.7583 8.74281L15.0682 22.2275H11.345L8.53512 11.4677C8.39463 10.8389 8.18389 10.5594 7.69215 10.2799C6.84917 9.86071 5.44422 9.37163 4.25 9.16203L4.32025 8.74281H10.2913C11.064 8.74281 11.7665 9.2319 11.907 10.1402L13.3822 17.9655L17.0351 8.81268H20.7583V8.74281ZM35.2996 17.8258C35.2996 14.2625 30.3822 14.0529 30.3822 12.5157C30.3822 12.0267 30.874 11.5376 31.8574 11.3978C32.3492 11.328 33.7541 11.2581 35.2996 12.0267L35.9318 9.16203C35.0888 8.88255 34.0351 8.5332 32.6302 8.5332C29.188 8.5332 26.7293 10.3498 26.7293 13.0048C26.7293 14.9612 28.4855 16.0092 29.8203 16.638C31.155 17.2668 31.6467 17.686 31.6467 18.3149C31.6467 19.2232 30.593 19.6424 29.5393 19.6424C27.7831 19.6424 26.7293 19.1533 25.9566 18.8039L25.3244 21.7384C26.1674 22.0878 27.6426 22.4371 29.188 22.4371C32.8409 22.4371 35.2293 20.6205 35.2996 17.8258ZM44.4318 22.2275H47.6632L44.8533 8.74281H41.8326C41.1302 8.74281 40.5682 9.16203 40.3574 9.72098L35.0888 22.2275H38.7417L39.4442 20.2013H43.9401L44.4318 22.2275ZM40.4979 17.4764L42.3244 12.4459L43.3781 17.4764H40.4979ZM25.7459 8.74281L22.8657 22.2275H19.3533L22.2335 8.74281H25.7459Z" fill="white"/>
<path d="M89.3977 6.77637H79.1712V25.2259H89.3977V6.77637Z" fill="#FF5F00"/>
<path d="M79.8211 15.9999C79.8195 14.2231 80.2205 12.4692 80.9939 10.871C81.7673 9.2728 82.8928 7.87219 84.285 6.77519C82.5609 5.41466 80.4902 4.56857 78.3098 4.33361C76.1293 4.09866 73.9269 4.48433 71.9545 5.44654C69.982 6.40876 68.319 7.9087 67.1555 9.77492C65.992 11.6411 65.375 13.7983 65.375 15.9999C65.375 18.2015 65.992 20.3587 67.1555 22.225C68.319 24.0912 69.982 25.5911 71.9545 26.5533C73.9269 27.5155 76.1293 27.9012 78.3098 27.6663C80.4902 27.4313 82.5609 26.5852 84.285 25.2247C82.8928 24.1277 81.7673 22.7271 80.994 21.1289C80.2206 19.5306 79.8195 17.7768 79.8211 15.9999V15.9999Z" fill="#EB001B"/>
<path d="M103.194 15.9999C103.194 18.2015 102.577 20.3587 101.414 22.2249C100.25 24.0911 98.5873 25.5911 96.6149 26.5533C94.6424 27.5155 92.4401 27.9012 90.2597 27.6663C88.0792 27.4313 86.0086 26.5852 84.2845 25.2247C85.6755 24.1266 86.8001 22.7257 87.5734 21.1278C88.3466 19.5298 88.7484 17.7765 88.7484 15.9999C88.7484 14.2234 88.3466 12.47 87.5734 10.8721C86.8001 9.27414 85.6755 7.8733 84.2845 6.77519C86.0086 5.41465 88.0792 4.56856 90.2597 4.33361C92.4401 4.09866 94.6424 4.48434 96.6149 5.44657C98.5873 6.4088 100.25 7.90874 101.414 9.77496C102.577 11.6412 103.194 13.7984 103.194 15.9999V15.9999Z" fill="#F79E1B"/>
<path d="M102.079 23.2728V22.8951H102.231V22.8181H101.844V22.8951H101.996V23.2728H102.079ZM102.829 23.2728V22.8174H102.711L102.574 23.1306L102.438 22.8174H102.32V23.2728H102.403V22.9293L102.531 23.2254H102.618L102.746 22.9285V23.2728H102.829Z" fill="#F79E1B"/>
</svg>
