<svg width="48" height="30" viewBox="0 0 48 30" fill="none" xmlns="http://www.w3.org/2000/svg">
<path d="M28.6096 6.35254H18.9846V23.6489H28.6096V6.35254Z" fill="#FF5F00"/>
<path d="M19.5963 15C19.5948 13.3342 19.9723 11.6899 20.7002 10.1916C21.4281 8.69332 22.4873 7.38024 23.7977 6.3518C22.175 5.0763 20.2261 4.28309 18.1739 4.06282C16.1217 3.84256 14.0489 4.20412 12.1924 5.1062C10.336 6.00827 8.77079 7.41447 7.67574 9.16405C6.5807 10.9136 6 12.936 6 15C6 17.064 6.5807 19.0864 7.67574 20.836C8.77079 22.5855 10.336 23.9917 12.1924 24.8938C14.0489 25.7959 16.1217 26.1574 18.1739 25.9372C20.2261 25.7169 22.175 24.9237 23.7977 23.6482C22.4873 22.6198 21.4281 21.3067 20.7002 19.8084C19.9723 18.31 19.5948 16.6658 19.5963 15Z" fill="#EB001B"/>
<path d="M41.5943 15C41.5944 17.064 41.0137 19.0863 39.9187 20.8359C38.8238 22.5855 37.2586 23.9917 35.4022 24.8938C33.5458 25.7959 31.473 26.1574 29.4208 25.9372C27.3687 25.7169 25.4204 24.9237 23.7977 23.6482C25.1069 22.6187 26.1648 21.3054 26.8926 19.8073C27.6203 18.3093 27.9985 16.6655 27.9985 15C27.9985 13.3345 27.6203 11.6907 26.8926 10.1926C26.1648 8.69456 25.1069 7.38128 23.7977 6.3518C25.4204 5.0763 27.3687 4.28309 29.4208 4.06282C31.473 3.84256 33.5458 4.20413 35.4022 5.10622C37.2586 6.00831 38.8238 7.4145 39.9187 9.16408C41.0137 10.9137 41.5944 12.936 41.5943 15Z" fill="#F79E1B"/>
<path d="M40.5449 21.8186V21.4645H40.6877V21.3923H40.324V21.4645H40.4669V21.8186H40.5449ZM41.2509 21.8186V21.3916H41.1394L41.0112 21.6853L40.883 21.3916H40.7714V21.8186H40.8501V21.4965L40.9704 21.7742H41.052L41.1722 21.4958V21.8186H41.2509Z" fill="#F79E1B"/>
</svg>
