<svg width="48" height="30" viewBox="0 0 48 30" fill="none" xmlns="http://www.w3.org/2000/svg">
<path d="M19.5372 8.19651L14.1818 20.8384H10.6777L8.03306 10.7511C7.90083 10.1616 7.70248 9.89956 7.23967 9.63755C6.44628 9.24454 5.12397 8.78603 4 8.58952L4.06611 8.19651H9.68595C10.4132 8.19651 11.0744 8.65502 11.2066 9.50655L12.595 16.8428L16.0331 8.26201H19.5372V8.19651ZM33.2231 16.7118C33.2231 13.3712 28.595 13.1747 28.595 11.7336C28.595 11.2751 29.0579 10.8166 29.9835 10.6856C30.4463 10.6201 31.7686 10.5546 33.2231 11.2751L33.8182 8.58952C33.0248 8.32751 32.0331 8 30.7107 8C27.4711 8 25.157 9.70306 25.157 12.1921C25.157 14.0262 26.8099 15.0087 28.0661 15.5983C29.3223 16.1878 29.7851 16.5808 29.7851 17.1703C29.7851 18.0218 28.7934 18.4148 27.8017 18.4148C26.1488 18.4148 25.157 17.9563 24.4298 17.6288L23.8347 20.3799C24.6281 20.7074 26.0165 21.0349 27.4711 21.0349C30.9091 21.0349 33.157 19.3319 33.2231 16.7118ZM41.8182 20.8384H44.8595L42.2149 8.19651H39.3719C38.7107 8.19651 38.1818 8.58952 37.9835 9.11354L33.0248 20.8384H36.4628L37.124 18.9389H41.3554L41.8182 20.8384ZM38.1157 16.3843L39.8347 11.6681L40.8265 16.3843H38.1157ZM24.2314 8.19651L21.5207 20.8384H18.2149L20.9256 8.19651H24.2314Z" fill="#1A1F71"/>
</svg>
