<svg width="130" height="32" viewBox="0 0 130 32" fill="none" xmlns="http://www.w3.org/2000/svg">
<path d="M5.27057 17.0353H16.0193L10.6449 3.23003L5.27057 17.0353ZM16.8254 19.185H4.49805L2.64013 23.9901C2.58566 24.1307 2.45035 24.2235 2.29957 24.2235H0.365299C0.107792 24.2235 -0.0685918 23.9642 0.0257775 23.7247L8.7533 1.58973C8.96243 1.05939 9.47447 0.710938 10.0444 0.710938H11.2453C11.8152 0.710938 12.3274 1.05939 12.5364 1.58973L21.2641 23.7247C21.3584 23.9642 21.1819 24.2235 20.9246 24.2235H19.0238C18.873 24.2235 18.7378 24.1307 18.6834 23.9901L16.8254 19.185Z" fill="white"/>
<path d="M80.8104 8.1756V23.5331C80.8104 23.9115 80.5037 24.2181 80.1254 24.2181H78.9761C78.5977 24.2181 78.2911 23.9115 78.2911 23.5331V8.1756C78.2911 7.79723 78.5977 7.4906 78.9761 7.4906H80.1254C80.5037 7.4906 80.8104 7.79723 80.8104 8.1756ZM78.2408 3.20796C77.8932 2.861 77.72 2.41862 77.72 1.88113C77.72 1.34365 77.8932 0.896062 78.2408 0.537488C78.5876 0.179659 79.0185 0 79.5338 0C80.0489 0 80.4854 0.179659 80.8439 0.537488C81.2018 0.896062 81.3814 1.34365 81.3814 1.88113C81.3814 2.41862 81.2018 2.861 80.8439 3.20796C80.4854 3.55537 80.0489 3.72863 79.5338 3.72863C79.0185 3.72863 78.5876 3.55537 78.2408 3.20796Z" fill="white"/>
<path d="M37.8503 20.456C36.6296 21.7102 35.1464 22.337 33.3996 22.337C31.6751 22.337 30.203 21.7102 28.9827 20.456C27.7619 19.2021 27.1521 17.6796 27.1521 15.8878C27.1521 14.0965 27.7619 12.5627 28.9827 11.2861C30.203 10.0098 31.6751 9.37152 33.3996 9.37152C35.1464 9.37152 36.6296 10.0098 37.8503 11.2861C39.0706 12.5627 39.681 14.0965 39.681 15.8878C39.681 17.6796 39.0706 19.2021 37.8503 20.456ZM39.6139 9.69065C37.8892 7.97756 35.8181 7.12109 33.3996 7.12109C30.9813 7.12109 28.9155 7.97756 27.2025 9.69065C25.4894 11.4037 24.6328 13.4584 24.6328 15.8543C24.6328 15.8656 24.6336 15.8766 24.6336 15.8878H24.6328V31.2165C24.6328 31.5068 24.8681 31.7421 25.1585 31.7421H26.6263C26.9167 31.7421 27.1521 31.5068 27.1521 31.2165V21.9822C27.1692 21.9996 27.1851 22.0175 27.2025 22.0346C28.9155 23.7366 30.9813 24.5876 33.3996 24.5876C35.8181 24.5876 37.8892 23.7366 39.6139 22.0346C41.3378 20.3331 42.2001 18.2727 42.2001 15.8543C42.2001 13.4584 41.3378 11.4037 39.6139 9.69065Z" fill="white"/>
<path d="M68.2198 24.2282H66.9177C66.5873 24.2282 66.3193 23.9602 66.3193 23.6298V15.1337C66.3193 11.1998 69.3217 7.95392 73.1555 7.56707C73.5669 7.52554 73.9249 7.84958 73.9249 8.26308V9.37229C73.9249 9.72387 73.6635 10.0217 73.3144 10.0635C70.7852 10.366 68.8182 12.5244 68.8182 15.1337V23.6298C68.8182 23.9602 68.5503 24.2282 68.2198 24.2282Z" fill="white"/>
<path d="M50.2088 10.4801C51.3508 9.71893 52.6383 9.33803 54.0717 9.33803C55.4152 9.33803 56.6076 9.69065 57.6488 10.396C58.6902 11.1013 59.4008 12.2602 59.7818 13.8724H47.7904C48.2606 12.3724 49.0667 11.2415 50.2088 10.4801ZM58.9624 21.5977C58.8104 21.3874 58.5273 21.3213 58.2976 21.442C57.1225 22.06 55.826 22.3705 54.4075 22.3705C52.325 22.3705 50.6566 21.7829 49.4027 20.6071C48.1483 19.4315 47.5215 17.9258 47.5215 16.0893V15.8208H61.0912C61.829 15.8208 62.3988 15.1745 62.3127 14.4417C62.0572 12.2682 61.264 10.5669 59.9329 9.33803C58.3317 7.86012 56.3558 7.12109 54.0044 7.12109C51.4291 7.12109 49.2851 7.97235 47.572 9.67383C45.8589 11.3759 45.0024 13.4584 45.0024 15.9214C45.0024 18.3625 45.8643 20.4172 47.5888 22.085C49.3129 23.7536 51.586 24.5876 54.4075 24.5876C56.3433 24.5876 58.0392 24.1616 59.4972 23.3127C59.7633 23.1578 59.8351 22.8043 59.6547 22.5546L58.9624 21.5977Z" fill="white"/>
<path d="M123.518 24.2282H122.216C121.885 24.2282 121.617 23.9602 121.617 23.6298V15.1337C121.617 11.1998 124.62 7.95392 128.453 7.56707C128.865 7.52554 129.223 7.84958 129.223 8.26308V9.37229C129.223 9.72387 128.961 10.0217 128.612 10.0635C126.083 10.366 124.116 12.5244 124.116 15.1337V23.6298C124.116 23.9602 123.848 24.2282 123.518 24.2282Z" fill="white"/>
<path d="M97.604 29.9346C97.5825 29.9247 97.5603 29.9164 97.539 29.9061C87.8452 25.579 86.731 18.3524 86.731 18.3524L86.7336 18.353C86.5797 17.6283 86.5003 16.8692 86.5003 16.0731C86.5003 13.3413 87.4015 11.0296 89.2043 9.13698C91.0065 7.24498 93.4083 6.29846 96.4092 6.29846C98.3053 6.29846 100.019 6.6682 101.552 7.40723C101.92 7.5845 102.35 7.57036 102.703 7.36406L103.056 7.15716C103.62 6.82672 103.621 6.01193 103.059 5.67881C101.11 4.52435 98.9384 3.94727 96.5436 3.94727C92.6693 3.94727 89.5847 5.11765 87.2898 7.45739C84.9941 9.79757 83.8467 12.6696 83.8467 16.0731C83.8467 19.4773 84.9998 22.349 87.3065 24.6889C87.4262 24.8103 87.5493 24.9266 87.6731 25.0418C89.8597 27.2382 94.3267 30.5889 102.119 31.9863C102.417 32.0397 102.705 31.93 102.896 31.7231C100.896 31.227 99.1434 30.617 97.604 29.9346Z" fill="#E65B7E"/>
<path d="M116.068 9.69065C114.344 7.97756 112.273 7.12109 109.854 7.12109C107.436 7.12109 105.37 7.97756 103.657 9.69065C103.23 10.1181 102.855 10.5671 102.535 11.0371C102.534 11.0388 102.307 11.6414 103.263 11.988C104.221 12.3351 104.847 11.988 104.847 11.988L104.848 11.9883C105.025 11.7464 105.221 11.5121 105.437 11.2861C106.658 10.0098 108.13 9.37152 109.854 9.37152C111.601 9.37152 113.084 10.0098 114.305 11.2861C115.525 12.5627 116.136 14.0965 116.136 15.8878C116.136 16.859 115.994 17.7524 115.635 18.5655C115.635 18.5655 113.683 24.218 105.619 23.5251C106.885 24.232 108.296 24.5876 109.854 24.5876C112.273 24.5876 114.344 23.7366 116.068 22.0346C117.792 20.3331 118.655 18.2727 118.655 15.8543C118.655 13.4584 117.792 11.4037 116.068 9.69065Z" fill="#E65B7E"/>
<path d="M92.5809 11.1637C94.3791 9.46443 96.5437 8.44096 98.7153 8.09995C98.0793 7.94664 97.4159 7.86328 96.7328 7.86328C92.0751 7.86328 88.2993 11.6391 88.2993 16.2967C88.2993 17.4438 88.5293 18.537 88.944 19.5338C88.8694 16.6002 90.108 13.5004 92.5809 11.1637Z" fill="#E65B7E"/>
</svg>
