<svg width="130" height="32" viewBox="0 0 130 32" fill="none" xmlns="http://www.w3.org/2000/svg">
<path d="M5.27057 17.0351H16.0193L10.6449 3.22979L5.27057 17.0351ZM16.8254 19.1847H4.49805L2.64013 23.9898C2.58566 24.1305 2.45035 24.2232 2.29957 24.2232H0.365299C0.107792 24.2232 -0.0685918 23.9639 0.0257775 23.7244L8.7533 1.58949C8.96243 1.05915 9.47447 0.710693 10.0444 0.710693H11.2453C11.8152 0.710693 12.3274 1.05915 12.5364 1.58949L21.2641 23.7244C21.3584 23.9639 21.1819 24.2232 20.9246 24.2232H19.0238C18.873 24.2232 18.7378 24.1305 18.6834 23.9898L16.8254 19.1847Z" fill="white"/>
<path d="M80.8104 8.1756V23.5331C80.8104 23.9115 80.5037 24.2181 80.1254 24.2181H78.9761C78.5977 24.2181 78.2911 23.9115 78.2911 23.5331V8.1756C78.2911 7.79723 78.5977 7.4906 78.9761 7.4906H80.1254C80.5037 7.4906 80.8104 7.79723 80.8104 8.1756ZM78.2408 3.20796C77.8932 2.861 77.72 2.41862 77.72 1.88113C77.72 1.34365 77.8932 0.896062 78.2408 0.537488C78.5876 0.179659 79.0185 0 79.5338 0C80.0489 0 80.4854 0.179659 80.8439 0.537488C81.2018 0.896062 81.3814 1.34365 81.3814 1.88113C81.3814 2.41862 81.2018 2.861 80.8439 3.20796C80.4854 3.55537 80.0489 3.72863 79.5338 3.72863C79.0185 3.72863 78.5876 3.55537 78.2408 3.20796Z" fill="white"/>
<path d="M37.8503 20.4563C36.6296 21.7105 35.1464 22.3373 33.3996 22.3373C31.6751 22.3373 30.203 21.7105 28.9827 20.4563C27.7619 19.2024 27.1521 17.6798 27.1521 15.888C27.1521 14.0968 27.7619 12.5629 28.9827 11.2864C30.203 10.01 31.6751 9.37176 33.3996 9.37176C35.1464 9.37176 36.6296 10.01 37.8503 11.2864C39.0706 12.5629 39.681 14.0968 39.681 15.888C39.681 17.6798 39.0706 19.2024 37.8503 20.4563ZM39.6139 9.69089C37.8892 7.97781 35.8181 7.12134 33.3996 7.12134C30.9813 7.12134 28.9155 7.97781 27.2025 9.69089C25.4894 11.404 24.6328 13.4587 24.6328 15.8545C24.6328 15.8658 24.6336 15.8768 24.6336 15.888H24.6328V31.2168C24.6328 31.507 24.8681 31.7423 25.1585 31.7423H26.6263C26.9167 31.7423 27.1521 31.507 27.1521 31.2168V21.9824C27.1692 21.9998 27.1851 22.0177 27.2025 22.0348C28.9155 23.7369 30.9813 24.5878 33.3996 24.5878C35.8181 24.5878 37.8892 23.7369 39.6139 22.0348C41.3378 20.3333 42.2001 18.273 42.2001 15.8545C42.2001 13.4587 41.3378 11.404 39.6139 9.69089Z" fill="white"/>
<path d="M68.2198 24.2284H66.9177C66.5873 24.2284 66.3193 23.9605 66.3193 23.63V15.134C66.3193 11.2001 69.3217 7.95417 73.1555 7.56731C73.5669 7.52578 73.9249 7.84982 73.9249 8.26332V9.37253C73.9249 9.72411 73.6635 10.022 73.3144 10.0638C70.7852 10.3662 68.8182 12.5247 68.8182 15.134V23.63C68.8182 23.9605 68.5503 24.2284 68.2198 24.2284Z" fill="white"/>
<path d="M50.2088 10.4804C51.3508 9.71917 52.6383 9.33827 54.0717 9.33827C55.4152 9.33827 56.6076 9.69089 57.6488 10.3963C58.6902 11.1015 59.4008 12.2604 59.7818 13.8726H47.7904C48.2606 12.3727 49.0667 11.2417 50.2088 10.4804ZM58.9624 21.5979C58.8104 21.3876 58.5273 21.3215 58.2976 21.4423C57.1225 22.0603 55.826 22.3708 54.4075 22.3708C52.325 22.3708 50.6566 21.7831 49.4027 20.6074C48.1483 19.4318 47.5215 17.926 47.5215 16.0895V15.821H61.0912C61.829 15.821 62.3988 15.1747 62.3127 14.442C62.0572 12.2685 61.264 10.5672 59.9329 9.33827C58.3317 7.86037 56.3558 7.12134 54.0044 7.12134C51.4291 7.12134 49.2851 7.9726 47.572 9.67407C45.8589 11.3761 45.0024 13.4587 45.0024 15.9216C45.0024 18.3627 45.8643 20.4174 47.5888 22.0853C49.3129 23.7539 51.586 24.5878 54.4075 24.5878C56.3433 24.5878 58.0392 24.1618 59.4972 23.313C59.7633 23.158 59.8351 22.8045 59.6547 22.5549L58.9624 21.5979Z" fill="white"/>
<path d="M123.518 24.2284H122.216C121.885 24.2284 121.617 23.9605 121.617 23.63V15.134C121.617 11.2001 124.62 7.95417 128.453 7.56731C128.865 7.52578 129.223 7.84982 129.223 8.26332V9.37253C129.223 9.72411 128.961 10.022 128.612 10.0638C126.083 10.3662 124.116 12.5247 124.116 15.134V23.63C124.116 23.9605 123.848 24.2284 123.518 24.2284Z" fill="white"/>
<path d="M97.604 29.9348C97.5825 29.925 97.5603 29.9166 97.539 29.9064C87.8452 25.5792 86.731 18.3527 86.731 18.3527L86.7336 18.3533C86.5797 17.6285 86.5003 16.8694 86.5003 16.0734C86.5003 13.3416 87.4015 11.0298 89.2043 9.13723C91.0065 7.24523 93.4083 6.29871 96.4092 6.29871C98.3053 6.29871 100.019 6.66844 101.552 7.40747C101.92 7.58475 102.35 7.57061 102.703 7.36431L103.056 7.15741C103.62 6.82697 103.621 6.01217 103.059 5.67905C101.11 4.52459 98.9384 3.94751 96.5436 3.94751C92.6693 3.94751 89.5847 5.1179 87.2898 7.45763C84.9941 9.79781 83.8467 12.6698 83.8467 16.0734C83.8467 19.4775 84.9998 22.3492 87.3065 24.6891C87.4262 24.8106 87.5493 24.9268 87.6731 25.042C89.8597 27.2384 94.3267 30.5891 102.119 31.9865C102.417 32.04 102.705 31.9303 102.896 31.7234C100.896 31.2272 99.1434 30.6173 97.604 29.9348Z" fill="#E65B7E"/>
<path d="M116.068 9.69089C114.344 7.97781 112.273 7.12134 109.854 7.12134C107.436 7.12134 105.37 7.97781 103.657 9.69089C103.23 10.1184 102.855 10.5673 102.535 11.0374C102.534 11.039 102.307 11.6417 103.263 11.9882C104.221 12.3353 104.847 11.9882 104.847 11.9882L104.848 11.9885C105.025 11.7466 105.221 11.5123 105.437 11.2864C106.658 10.01 108.13 9.37176 109.854 9.37176C111.601 9.37176 113.084 10.01 114.305 11.2864C115.525 12.5629 116.136 14.0968 116.136 15.888C116.136 16.8592 115.994 17.7526 115.635 18.5658C115.635 18.5658 113.683 24.2183 105.619 23.5254C106.885 24.2322 108.296 24.5878 109.854 24.5878C112.273 24.5878 114.344 23.7369 116.068 22.0348C117.792 20.3333 118.655 18.273 118.655 15.8545C118.655 13.4587 117.792 11.404 116.068 9.69089Z" fill="#E65B7E"/>
<path d="M92.5809 11.1639C94.3791 9.46468 96.5437 8.4412 98.7153 8.10019C98.0793 7.94688 97.4159 7.86353 96.7328 7.86353C92.0751 7.86353 88.2993 11.6393 88.2993 16.2969C88.2993 17.4441 88.5293 18.5372 88.944 19.5341C88.8694 16.6004 90.108 13.5007 92.5809 11.1639Z" fill="#E65B7E"/>
</svg>
