<svg width="48" height="30" viewBox="0 0 48 30" fill="none" xmlns="http://www.w3.org/2000/svg">
<path d="M28.602 6.35513H18.9789V23.6492H28.602V6.35513Z" fill="#7673C0"/>
<path d="M19.5929 15.0006C19.5916 13.3354 19.9691 11.6916 20.6969 10.1938C21.4246 8.69595 22.4835 7.38329 23.7935 6.35512C22.171 5.08005 20.2226 4.28716 18.1708 4.06707C16.1191 3.84698 14.0468 4.20856 12.1908 5.1105C10.3348 6.01245 8.77005 7.41836 7.6753 9.16755C6.58055 10.9167 6 12.9386 6 15.0022C6 17.0657 6.58055 19.0876 7.6753 20.8368C8.77005 22.586 10.3348 23.9919 12.1908 24.8938C14.0468 25.7958 16.1191 26.1574 18.1708 25.9373C20.2226 25.7172 22.171 24.9243 23.7935 23.6492C22.4831 22.6207 21.4239 21.3076 20.6962 19.8092C19.9684 18.3108 19.5911 16.6664 19.5929 15.0006Z" fill="#EB001B"/>
<path d="M40.5377 21.8162V21.4619H40.6813V21.3885H40.3177V21.4619H40.4613V21.8162H40.5377ZM41.2434 21.8162V21.3885H41.1334L41.0051 21.694L40.8768 21.3885H40.7638V21.8162H40.8432V21.4955L40.9623 21.7735H41.0448L41.1639 21.4955V21.8193L41.2434 21.8162Z" fill="#00A1DF"/>
<path d="M41.5855 15.0006C41.5855 17.0643 41.0048 19.0864 39.9098 20.8356C38.8149 22.5849 37.2499 23.9907 35.3937 24.8925C33.5375 25.7944 31.465 26.1557 29.4131 25.9353C27.3612 25.7149 25.4128 24.9216 23.7904 23.6462C25.0999 22.6171 26.1585 21.304 26.8864 19.8061C27.6144 18.3082 27.9926 16.6645 27.9926 14.9991C27.9926 13.3337 27.6144 11.69 26.8864 10.1921C26.1585 8.69417 25.0999 7.38115 23.7904 6.35207C25.413 5.07644 27.3617 4.28312 29.4139 4.06283C31.466 3.84254 33.5387 4.20416 35.395 5.10635C37.2514 6.00854 38.8163 7.41487 39.9111 9.16457C41.0058 10.9143 41.586 12.9367 41.5855 15.0006Z" fill="#00A1DF"/>
</svg>
