<?xml version="1.0" encoding="utf-8"?><svg viewBox="0 0 34 34" xmlns="http://www.w3.org/2000/svg" xmlns:xlink="http://www.w3.org/1999/xlink"><style>:root>svg{display:none}:root>svg:target{display:block}</style><svg viewBox="0 0 22 22" id="faq-icon_1" xmlns="http://www.w3.org/2000/svg"><path d="M17.6 8.067v-.734L15.4 8.8l-2.2-1.467v.734l2.2 1.466 2.2-1.466zm.733-3.667H3.668A1.467 1.467 0 002.2 5.867v10.266A1.467 1.467 0 003.667 17.6h14.667a1.466 1.466 0 001.466-1.467V5.867A1.466 1.466 0 0018.334 4.4zM8.068 6.6a2.2 2.2 0 110 4.4 2.2 2.2 0 010-4.4zm4.4 8.8h-8.8v-.733c0-1.467 2.933-2.274 4.4-2.274 1.467 0 4.4.807 4.4 2.274v.733zm5.867-4.4h-5.867V6.6h5.867"/></svg><svg viewBox="0 0 22 22" id="faq-icon_10" xmlns="http://www.w3.org/2000/svg"><path d="M18.521 4.392a5.444 5.444 0 00-3.858-1.608c-1.36 0-2.651.506-3.663 1.428a5.412 5.412 0 00-3.663-1.428 5.447 5.447 0 00-3.862 1.611c-2.157 2.167-2.156 5.555.002 7.711L11 19.63l7.523-7.524c2.158-2.156 2.159-5.544-.002-7.714z"/></svg><svg viewBox="0 0 22 22" id="faq-icon_2" xmlns="http://www.w3.org/2000/svg"><path d="M4.07 10.01c1.092 0 1.98-.888 1.98-1.98s-.888-1.98-1.98-1.98-1.98.888-1.98 1.98.888 1.98 1.98 1.98zm13.86 0c1.092 0 1.98-.888 1.98-1.98s-.888-1.98-1.98-1.98-1.98.888-1.98 1.98.888 1.98 1.98 1.98zm.99.99h-1.98c-.544 0-1.036.22-1.395.575a4.525 4.525 0 012.323 3.385h2.042c.548 0 .99-.442.99-.99v-.99c0-1.092-.888-1.98-1.98-1.98zM11 11a3.463 3.463 0 003.465-3.465A3.463 3.463 0 0011 4.07a3.463 3.463 0 00-3.465 3.465A3.463 3.463 0 0011 11zm2.376.99h-.257a4.874 4.874 0 01-2.119.495 4.885 4.885 0 01-2.12-.495h-.256a3.565 3.565 0 00-3.564 3.564v.891c0 .82.665 1.485 1.485 1.485h8.91c.82 0 1.485-.665 1.485-1.485v-.89a3.565 3.565 0 00-3.564-3.565zm-6.92-.415A1.974 1.974 0 005.06 11H3.08c-1.092 0-1.98.888-1.98 1.98v.99c0 .548.442.99.99.99h2.04a4.537 4.537 0 012.326-3.385z"/></svg><svg viewBox="0 0 22 22" id="faq-icon_3" xmlns="http://www.w3.org/2000/svg"><path d="M20.9 11a3.402 3.402 0 00-2.208-3.186 3.403 3.403 0 00-4.505-4.506 3.402 3.402 0 00-6.373 0 3.402 3.402 0 00-4.506 4.506 3.402 3.402 0 000 6.373 3.402 3.402 0 004.506 4.505 3.402 3.402 0 006.373 0 3.403 3.403 0 004.505-4.505A3.402 3.402 0 0020.9 11zm-8.972 3.652v.68a.619.619 0 01-.619.618h-.618a.619.619 0 01-.619-.619v-.685a2.824 2.824 0 01-1.229-.444.464.464 0 01-.06-.71l.678-.678a.477.477 0 01.545-.078.948.948 0 00.397.085h1.268a.326.326 0 00.09-.639l-1.937-.553c-.86-.245-1.547-.955-1.66-1.843a2.176 2.176 0 011.908-2.438v-.68c0-.341.277-.618.619-.618h.618a.62.62 0 01.62.619v.686c.44.052.86.2 1.228.443.24.159.264.507.06.71l-.677.678a.477.477 0 01-.546.079.948.948 0 00-.397-.086H10.33a.326.326 0 00-.09.639l1.937.553c.86.246 1.547.955 1.66 1.843a2.176 2.176 0 01-1.908 2.438z"/></svg><svg viewBox="0 0 22 22" id="faq-icon_4" xmlns="http://www.w3.org/2000/svg"><path d="M19.931 11.303l-8.25-9.166c-.347-.387-1.015-.387-1.362 0l-8.25 9.166a.915.915 0 00.681 1.53h1.833v6.417c0 .506.41.917.917.917h2.75c.507 0 .917-.41.917-.917v-3.667h3.666v3.667c0 .506.41.917.917.917h2.75c.507 0 .917-.41.917-.917v-6.417h1.833a.915.915 0 00.681-1.53z"/></svg><svg viewBox="0 0 22 22" id="faq-icon_5" xmlns="http://www.w3.org/2000/svg"><path d="M11 3.3c4.84 0 8.8 3.15 8.8 7.04s-3.96 7.04-8.8 7.04c-1.091 0-2.138-.158-3.106-.44-2.57 2.2-5.694 2.2-5.694 2.2 2.05-2.05 2.376-3.432 2.42-3.96-1.496-1.258-2.42-2.966-2.42-4.84C2.2 6.45 6.16 3.3 11 3.3zm4.4 7.92V9.46h-1.76v1.76h1.76zm-3.52 0V9.46h-1.76v1.76h1.76zm-3.52 0V9.46H6.6v1.76h1.76z"/></svg><svg viewBox="0 0 22 22" id="faq-icon_6" xmlns="http://www.w3.org/2000/svg"><path d="M17.16 7.48L11 11.33 4.84 7.48V5.94L11 9.79l6.16-3.85v1.54zm0-3.08H4.84c-.854 0-1.54.685-1.54 1.54v9.24a1.54 1.54 0 001.54 1.54h12.32a1.54 1.54 0 001.54-1.54V5.94a1.54 1.54 0 00-1.54-1.54z"/></svg><svg viewBox="0 0 22 22" id="faq-icon_7" xmlns="http://www.w3.org/2000/svg"><g clip-path="url(#aha)"><path fill-rule="evenodd" clip-rule="evenodd" d="M8.8 7.15v7.7a.55.55 0 00.88.44l5.137-3.85a.546.546 0 000-.88L9.68 6.71a.55.55 0 00-.88.44zm1.1-5.797C9.9.649 9.251.11 8.57.264c-1.233.286-2.399.77-3.433 1.43a1.106 1.106 0 00-.176 1.705c.352.352.913.44 1.331.176A8.581 8.581 0 019.086 2.42c.484-.11.814-.561.814-1.067zM3.41 4.961c-.506-.495-1.33-.418-1.705.176a11.013 11.013 0 00-1.43 3.432A1.098 1.098 0 001.353 9.9c.495 0 .957-.33 1.056-.814a8.768 8.768 0 011.155-2.783c.286-.429.198-.99-.154-1.342zM1.353 12.1c-.704 0-1.243.649-1.089 1.331.286 1.232.77 2.387 1.43 3.432.374.594 1.21.671 1.705.176.352-.352.44-.913.165-1.331a8.425 8.425 0 01-1.155-2.783c-.099-.495-.55-.825-1.056-.825zm3.784 8.195c1.045.66 2.2 1.144 3.432 1.43.682.154 1.331-.385 1.331-1.078 0-.495-.33-.957-.814-1.056a8.768 8.768 0 01-2.783-1.155 1.07 1.07 0 00-1.33.176 1.07 1.07 0 00.164 1.683zM22 11c0 5.203-3.63 9.581-8.503 10.714-.682.165-1.342-.374-1.342-1.078 0-.506.341-.946.825-1.067 3.905-.902 6.82-4.4 6.82-8.569 0-4.169-2.915-7.667-6.82-8.569-.484-.11-.825-.561-.825-1.067 0-.704.66-1.243 1.342-1.078C18.37 1.419 22 5.797 22 11z"/></g><defs><clipPath id="aha"><path d="M0 0h22v22H0z"/></clipPath></defs></svg><svg viewBox="0 0 22 22" id="faq-icon_8" xmlns="http://www.w3.org/2000/svg"><path d="M7.909 18.67c0 .244.072.482.207.684l.66.994a1.237 1.237 0 001.031.552h2.386a1.237 1.237 0 001.03-.552l.661-.994a1.24 1.24 0 00.208-.684l.001-1.483H7.907l.002 1.483zm3.07-17.57c-3.945.012-6.785 3.209-6.785 6.806a6.77 6.77 0 001.684 4.478c.64.729 1.638 2.251 2.02 3.536 0 .01.002.02.004.03h6.196l.004-.03c.381-1.285 1.38-2.807 2.02-3.536a6.768 6.768 0 001.684-4.478A6.806 6.806 0 0010.98 1.1zM11 13.475A1.238 1.238 0 1111 11a1.238 1.238 0 010 2.475zm1.479-9.22l-.495 4.95a.619.619 0 01-.616.557h-.736a.619.619 0 01-.616-.557l-.495-4.95a.619.619 0 01.616-.68h1.726a.62.62 0 01.616.68z"/></svg><svg viewBox="0 0 22 22" id="faq-icon_9" xmlns="http://www.w3.org/2000/svg"><path d="M8.781 3.3c-1.543-.008-3.045 1.478-2.36 3.323H3.833A1.633 1.633 0 002.2 8.256V9.89a.816.816 0 00.817.817h7.348v-2.45h1.633v2.45h7.349a.816.816 0 00.816-.817V8.256a1.633 1.633 0 00-1.633-1.633h-2.588c.955-2.67-2.637-4.556-4.295-2.253l-.465.62-.466-.637c-.514-.726-1.224-1.045-1.935-1.053zm-.049 1.69c.727 0 1.094.882.58 1.396-.514.515-1.396.147-1.396-.58a.817.817 0 01.816-.816zm4.9 0c.726 0 1.093.882.579 1.396-.514.515-1.396.147-1.396-.58a.817.817 0 01.816-.816zM3.016 11.522v6.532a1.633 1.633 0 001.633 1.633h13.064a1.633 1.633 0 001.633-1.633v-6.532h-7.349v6.532h-1.633v-6.532H3.017z"/></svg><svg viewBox="0 0 34 34" id="ic-advancedsearch" xmlns="http://www.w3.org/2000/svg"><path fill-rule="evenodd" clip-rule="evenodd" d="M5.497 5.498a9.666 9.666 0 000 13.67 9.665 9.665 0 0013.671 0c3.775-3.774 3.775-9.895 0-13.67-3.775-3.775-9.896-3.775-13.67 0zM4.083 20.583c-4.556-4.556-4.556-11.943 0-16.5 4.556-4.556 11.943-4.556 16.5 0 4.555 4.557 4.555 11.944 0 16.5-4.557 4.556-11.944 4.556-16.5 0z"/><path fill-rule="evenodd" clip-rule="evenodd" d="M13.983 12.65a2.333 2.333 0 00.683-1.65h2a4.333 4.333 0 01-4.333 4.333v-2c.618 0 1.212-.246 1.65-.683z"/><path fill-rule="evenodd" clip-rule="evenodd" d="M9.269 6.602a4.333 4.333 0 017.397 3.064v1.336a4.317 4.317 0 01-1.333 3.11v.889l3.309 1.076a1 1 0 01-.619 1.902l-4-1.3a1 1 0 01-.69-.952v-2.076a1 1 0 01.402-.801 2.317 2.317 0 00.931-1.851V9.666a2.333 2.333 0 10-4.667 0V11a2.318 2.318 0 00.932 1.85 1 1 0 01.402.802v2.076a1 1 0 01-.686.95L6.948 17.9A1 1 0 016.32 16l3.013-.995v-.892a4.317 4.317 0 01-1.334-3.111V9.666c0-1.149.457-2.251 1.27-3.064zM20.11 18.225a1 1 0 011.414 0L32.65 29.35a2.333 2.333 0 01-3.3 3.3L18.224 21.525a1 1 0 011.415-1.415l11.125 11.125a.333.333 0 10.471-.47L20.11 19.638a1 1 0 010-1.414z"/><path fill-rule="evenodd" clip-rule="evenodd" d="M7.383 5.97a1 1 0 010 1.413 7 7 0 000 9.9 1 1 0 11-1.414 1.414 9 9 0 010-12.728 1 1 0 011.414 0zM1.666 18a1 1 0 011 1v7h22.333a1 1 0 010 2H1.666a1 1 0 01-1-1v-8a1 1 0 011-1zm-1 11.666a1 1 0 011-1h26a1 1 0 110 2h-26a1 1 0 01-1-1zm0 2.667a1 1 0 011-1h28.778a1 1 0 110 2H1.666a1 1 0 01-1-1zM21.333 3.667a1 1 0 011-1h11V28h-4.334a1 1 0 010-2h2.334V4.666h-9a1 1 0 01-1-1z"/><path fill-rule="evenodd" clip-rule="evenodd" d="M29 8.666h-4v-2h4v2zm0 2.667h-4v-2h4v2zM29 14h-4v-2h4v2z"/></svg><svg viewBox="0 0 20 20" id="ic-arrow_btn" xmlns="http://www.w3.org/2000/svg"><path fill-rule="evenodd" clip-rule="evenodd" d="M14.655 10.833H2.5V9.167h12.155L9.41 3.923l1.178-1.179L17.845 10l-7.256 7.256-1.178-1.178 5.244-5.245z"/></svg><svg viewBox="0 0 20 20" id="ic-arrow_next" xmlns="http://www.w3.org/2000/svg"><path d="M6.15 2.492a1.041 1.041 0 011.475 0l6.925 6.925a.83.83 0 010 1.175l-6.925 6.925a1.041 1.041 0 01-1.475 0 1.041 1.041 0 010-1.475L12.184 10 6.142 3.958c-.4-.4-.4-1.066.008-1.466z"/></svg><svg viewBox="0 0 20 20" id="ic-arrow_prev" xmlns="http://www.w3.org/2000/svg"><path d="M13.85 2.492a1.041 1.041 0 00-1.475 0L5.45 9.417a.83.83 0 000 1.175l6.925 6.925a1.041 1.041 0 001.475 0 1.041 1.041 0 000-1.475L7.816 10l6.042-6.042c.4-.4.4-1.066-.008-1.466z"/></svg><svg viewBox="0 0 20 20" id="ic-balance" xmlns="http://www.w3.org/2000/svg"><path d="M17.5 10a2.577 2.577 0 00-1.673-2.414 2.578 2.578 0 00-3.413-3.413 2.577 2.577 0 00-4.828 0 2.577 2.577 0 00-3.413 3.413 2.577 2.577 0 000 4.828 2.577 2.577 0 003.413 3.413 2.577 2.577 0 004.828 0 2.578 2.578 0 003.413-3.413A2.577 2.577 0 0017.5 10zm-6.797 2.767v.514c0 .26-.21.469-.469.469h-.468a.469.469 0 01-.47-.469v-.52a2.14 2.14 0 01-.93-.335.351.351 0 01-.046-.538l.514-.514c.11-.11.272-.124.413-.06a.718.718 0 00.3.066h.961a.247.247 0 00.068-.484l-1.467-.42c-.652-.185-1.172-.723-1.257-1.396a1.649 1.649 0 011.445-1.847v-.514c0-.26.21-.469.469-.469h.468c.26 0 .47.21.47.469v.52c.334.039.652.151.93.335.182.12.2.384.046.538l-.514.514c-.11.11-.272.124-.413.06a.718.718 0 00-.3-.066h-.961a.247.247 0 00-.068.484l1.467.42c.652.186 1.172.723 1.257 1.396.119.94-.557 1.74-1.445 1.847z"/></svg><svg viewBox="0 0 20 20" id="ic-chat" xmlns="http://www.w3.org/2000/svg"><path d="M10 3c4.4 0 8 2.864 8 6.4 0 3.536-3.6 6.4-8 6.4a10.12 10.12 0 01-2.824-.4C4.84 17.4 2 17.4 2 17.4c1.864-1.864 2.16-3.12 2.2-3.6C2.84 12.656 2 11.104 2 9.4 2 5.864 5.6 3 10 3zm4 7.2V8.6h-1.6v1.6H14zm-3.2 0V8.6H9.2v1.6h1.6zm-3.2 0V8.6H6v1.6h1.6z"/></svg><svg viewBox="0 0 24 24" id="ic-contacts" xmlns="http://www.w3.org/2000/svg"><path d="M19.2 8.8V8l-2.4 1.6L14.4 8v.8l2.4 1.6 2.4-1.6zm.8-4H4a1.6 1.6 0 00-1.6 1.6v11.2A1.6 1.6 0 004 19.2h16a1.6 1.6 0 001.6-1.6V6.4A1.6 1.6 0 0020 4.8zM8.8 7.2a2.4 2.4 0 110 4.8 2.4 2.4 0 010-4.8zm4.8 9.6H4V16c0-1.6 3.2-2.48 4.8-2.48 1.6 0 4.8.88 4.8 2.48v.8zM20 12h-6.4V7.2H20"/></svg><svg viewBox="0 0 24 24" id="ic-discover" xmlns="http://www.w3.org/2000/svg"><path d="M3.693 3.033A.694.694 0 003 3.727v11.09c0 .383.311.694.693.694h11.091a.694.694 0 00.694-.693V3.727a.694.694 0 00-.694-.694H3.694zm.693 1.387h9.705v8.318H4.386V4.42zm11.785.628v1.408l1.257.217-1.257 7.278v.867c0 .765-.622 1.386-1.387 1.386H7.441l8.795 1.517a.693.693 0 00.801-.564l1.864-10.939a.69.69 0 00-.564-.802l-2.166-.368zm-6.932.715c-.798 0-1.473.549-1.473 1.581 0 .676.3 1.354.714 1.776.163.423-.113.584-.173.607-.836.302-1.82.863-1.82 1.408v.889h5.503v-.888c0-.562-.986-1.12-1.863-1.409-.04-.013-.29-.125-.13-.607.413-.422.736-1.104.736-1.776 0-1.032-.696-1.581-1.494-1.581zm9.986 2.752l-.238 1.364.498.108-1.906 8.102-.282-.065a1.354 1.354 0 01-1.191.368L6.51 16.746l-.197.824a.71.71 0 00.52.844l10.789 2.535a.71.71 0 00.844-.52L20.98 9.64c.088-.37-.125-.756-.497-.844l-1.257-.282-.001.002z"/></svg><svg viewBox="0 0 20 20" id="ic-dollar" xmlns="http://www.w3.org/2000/svg"><path d="M17.5 10a2.577 2.577 0 00-1.673-2.414 2.578 2.578 0 00-3.413-3.413 2.577 2.577 0 00-4.828 0 2.577 2.577 0 00-3.413 3.413 2.577 2.577 0 000 4.828 2.577 2.577 0 003.413 3.413 2.577 2.577 0 004.828 0 2.578 2.578 0 003.413-3.413A2.577 2.577 0 0017.5 10zm-6.797 2.767v.514c0 .26-.21.469-.469.469h-.468a.469.469 0 01-.47-.469v-.52a2.14 2.14 0 01-.93-.335.351.351 0 01-.046-.538l.514-.514c.11-.11.272-.124.413-.06a.718.718 0 00.3.066h.961a.247.247 0 00.068-.484l-1.467-.42c-.652-.185-1.172-.723-1.257-1.396a1.649 1.649 0 011.445-1.847v-.514c0-.26.21-.469.469-.469h.468c.26 0 .47.21.47.469v.52c.334.039.652.151.93.335.182.12.2.384.046.538l-.514.514c-.11.11-.272.124-.413.06a.718.718 0 00-.3-.066h-.961a.247.247 0 00-.068.484l1.467.42c.652.186 1.172.723 1.257 1.396.119.94-.557 1.74-1.445 1.847z"/></svg><svg viewBox="0 0 24 24" id="ic-favorite_no" xmlns="http://www.w3.org/2000/svg"><path d="M12 4.595a5.904 5.904 0 00-3.996-1.558 5.942 5.942 0 00-4.213 1.758c-2.353 2.363-2.352 6.059.002 8.412l7.333 7.332c.17.299.498.492.875.492a.99.99 0 00.792-.409l7.415-7.415c2.354-2.354 2.354-6.049-.002-8.416a5.938 5.938 0 00-4.21-1.754 5.906 5.906 0 00-3.995 1.558zm6.791 1.61c1.564 1.571 1.564 4.025.003 5.588L12 18.586l-6.794-6.793c-1.562-1.563-1.56-4.017-.002-5.584a3.953 3.953 0 012.8-1.172c1.044 0 2.034.416 2.788 1.17l.5.5a.999.999 0 001.415 0l.5-.5c1.511-1.509 4.074-1.505 5.583-.002z"/></svg><svg viewBox="0 0 24 24" id="ic-favorite_yes" xmlns="http://www.w3.org/2000/svg"><path d="M20.206 4.791a5.938 5.938 0 00-4.21-1.754 5.906 5.906 0 00-3.995 1.558 5.904 5.904 0 00-3.997-1.558 5.942 5.942 0 00-4.213 1.758c-2.353 2.363-2.352 6.059.002 8.412L12 21.414l8.207-8.207c2.354-2.353 2.355-6.049-.002-8.416z"/></svg><svg viewBox="0 0 24 24" id="ic-fb" xmlns="http://www.w3.org/2000/svg"><path d="M9.996 22v-8.945H7V9.5h2.996V6.7c0-3.044 1.86-4.7 4.574-4.7 1.301 0 2.418.098 2.742.14v3.18H15.43c-1.477 0-1.762.703-1.762 1.73V9.5H17l-.457 3.555h-2.875V22"/></svg><svg viewBox="0 0 24 24" id="ic-gift" xmlns="http://www.w3.org/2000/svg"><path d="M9.58 3.6c-1.684-.009-3.323 1.612-2.575 3.625H4.182A1.781 1.781 0 002.4 9.007v1.781a.89.89 0 00.891.891h8.017V9.007h1.781v2.672h8.017a.89.89 0 00.89-.89V9.006a1.781 1.781 0 00-1.781-1.782H17.39c1.043-2.912-2.877-4.97-4.685-2.458l-.508.677-.507-.695c-.562-.793-1.336-1.14-2.111-1.149zm-.054 1.844c.793 0 1.194.962.633 1.523-.562.561-1.524.16-1.524-.632a.89.89 0 01.891-.891zm5.345 0c.792 0 1.193.962.632 1.523-.561.561-1.523.16-1.523-.632a.89.89 0 01.89-.891zM3.29 12.57v7.125a1.782 1.782 0 001.782 1.782h14.251a1.781 1.781 0 001.782-1.782V12.57h-8.017v7.125h-1.781V12.57H3.29z"/></svg><svg viewBox="0 0 24 24" id="ic-help" xmlns="http://www.w3.org/2000/svg"><path d="M16.714 14.143H6.43L3 17.57V3.857A.857.857 0 013.857 3h12.857a.857.857 0 01.857.857v9.429a.857.857 0 01-.857.857zM21 9v12l-3.429-3.429H8.143a.857.857 0 01-.857-.857v-.857h12V8.143h.857A.857.857 0 0121 9zM8.306 4.714c-.746 0-1.346.172-1.809.506-.446.351-.668.84-.66 1.517l.009.026H7.5c.009-.257.086-.454.24-.592a.857.857 0 01.566-.197c.265 0 .488.086.643.24.154.163.222.386.222.643 0 .274-.06.506-.197.703-.12.197-.3.369-.523.506-.437.291-.737.548-.9.78-.171.223-.265.583-.265 1.011H9c0-.266.034-.48.111-.634.078-.154.223-.309.438-.446.385-.206.702-.454.951-.797s.377-.694.377-1.123c0-.651-.231-1.174-.694-1.56-.454-.386-1.08-.583-1.877-.583zm-1.02 6v1.715H9v-1.715H7.286zm5.143 1.715h1.714v-1.715h-1.714v1.715zm0-7.715v5.143h1.714V4.714h-1.714z"/></svg><svg viewBox="0 0 24 24" id="ic-insta" xmlns="http://www.w3.org/2000/svg"><path d="M15.333 12c0-.92-.325-1.706-.976-2.357A3.212 3.212 0 0012 8.667c-.92 0-1.706.325-2.357.976A3.212 3.212 0 008.667 12c0 .92.325 1.706.976 2.357a3.212 3.212 0 002.357.976c.92 0 1.706-.325 2.357-.976A3.212 3.212 0 0015.333 12zm1.797 0c0 1.424-.499 2.634-1.497 3.633-.998.998-2.21 1.497-3.633 1.497-1.424 0-2.635-.499-3.633-1.497C7.37 14.635 6.87 13.423 6.87 12c0-1.424.499-2.635 1.497-3.633C9.365 7.37 10.577 6.87 12 6.87c1.424 0 2.634.499 3.633 1.497.998.998 1.497 2.21 1.497 3.633zm1.407-5.339c0 .33-.118.612-.352.847a1.154 1.154 0 01-.846.351c-.33 0-.612-.117-.847-.351a1.154 1.154 0 01-.351-.847c0-.33.117-.612.351-.846.235-.234.517-.351.846-.351.33 0 .613.117.847.351.234.234.352.517.352.846zM12 3.797l-.996-.007a70.641 70.641 0 00-1.374 0c-.312.005-.731.018-1.256.04-.525.021-.973.065-1.341.13a5.22 5.22 0 00-.931.24 3.378 3.378 0 00-1.146.756c-.33.33-.582.712-.755 1.146a5.22 5.22 0 00-.241.93c-.065.37-.109.817-.13 1.342-.022.525-.035.944-.04 1.256-.004.313-.004.77 0 1.374l.007.996-.007.996a70.642 70.642 0 000 1.374c.005.312.018.731.04 1.256.021.525.065.973.13 1.341.065.37.145.68.24.931.174.434.426.816.756 1.146.33.33.712.582 1.146.755.251.096.562.176.93.241.37.066.817.109 1.342.13.525.022.944.035 1.256.04.313.004.77.004 1.374 0l.996-.007.996.007a69.68 69.68 0 001.374 0 48.02 48.02 0 001.256-.04c.525-.021.973-.065 1.341-.13.37-.065.68-.145.931-.24a3.379 3.379 0 001.146-.756c.33-.33.582-.712.755-1.146a5.16 5.16 0 00.241-.93c.066-.37.109-.817.13-1.342.022-.525.035-.944.04-1.256.004-.313.004-.77 0-1.374L20.203 12l.007-.996c.004-.603.004-1.061 0-1.374a48.017 48.017 0 00-.04-1.256 10.32 10.32 0 00-.13-1.341 5.22 5.22 0 00-.24-.931 3.379 3.379 0 00-.756-1.146 3.378 3.378 0 00-1.146-.755 5.218 5.218 0 00-.93-.241 10.316 10.316 0 00-1.342-.13 48.252 48.252 0 00-1.256-.04c-.313-.004-.77-.004-1.374 0L12 3.797zM22 12c0 1.988-.022 3.364-.065 4.128-.087 1.805-.625 3.203-1.615 4.192-.99.99-2.387 1.528-4.192 1.615-.764.043-2.14.065-4.128.065s-3.364-.022-4.128-.065c-1.805-.087-3.203-.625-4.192-1.615-.99-.99-1.528-2.387-1.615-4.192C2.022 15.364 2 13.988 2 12s.022-3.364.065-4.128C2.152 6.067 2.69 4.67 3.68 3.68c.99-.99 2.387-1.528 4.192-1.615C8.636 2.022 10.012 2 12 2s3.364.022 4.128.065c1.805.087 3.203.625 4.192 1.615.99.99 1.528 2.387 1.615 4.192.043.764.065 2.14.065 4.128z"/></svg><svg viewBox="0 0 24 24" id="ic-location" xmlns="http://www.w3.org/2000/svg"><path fill-rule="evenodd" clip-rule="evenodd" d="M12 3a6.295 6.295 0 00-6.3 6.3c0 3.753 3.978 8.928 5.616 10.9a.894.894 0 001.377 0c1.63-1.972 5.607-7.147 5.607-10.9C18.3 5.817 15.483 3 12 3zm0 8.55a2.25 2.25 0 11.002-4.502A2.25 2.25 0 0112 11.55z"/></svg><svg viewBox="0 0 24 24" id="ic-mail" xmlns="http://www.w3.org/2000/svg"><path d="M19.2 8.4L12 12.9 4.8 8.4V6.6l7.2 4.5 7.2-4.5v1.8zm0-3.6H4.8c-.999 0-1.8.801-1.8 1.8v10.8a1.8 1.8 0 001.8 1.8h14.4a1.8 1.8 0 001.8-1.8V6.6a1.8 1.8 0 00-1.8-1.8z"/></svg><svg viewBox="0 0 20 20" id="ic-media" xmlns="http://www.w3.org/2000/svg"><path d="M15.555 14.63v.463c0 .767-.621 1.389-1.389 1.389H3.056a1.389 1.389 0 01-1.39-1.39V7.686a1.39 1.39 0 011.39-1.389h.462v6.019a2.317 2.317 0 002.315 2.315h9.722zm2.778-2.315V4.907c0-.767-.622-1.388-1.389-1.388H5.834c-.768 0-1.39.621-1.39 1.388v7.408a1.39 1.39 0 001.39 1.389h11.11a1.39 1.39 0 001.39-1.39zm-9.26-6.019a1.389 1.389 0 11-2.777 0 1.389 1.389 0 012.778 0zm-2.777 4.167l1.606-1.606a.347.347 0 01.492 0L9.537 10l3.921-3.921a.347.347 0 01.491 0l2.532 2.532v3.24H6.296v-1.388z" fill-opacity=".5"/></svg><svg viewBox="0 0 24 24" id="ic-news" xmlns="http://www.w3.org/2000/svg"><path d="M21 3H2.99A.991.991 0 002 4v16c0 .553.438 1 .99 1H21a1 1 0 001-1V4a1 1 0 00-1-1zM5 12V7h7v6H5v-1zm14 5H5v-2h14v2zm0-4h-5v-2h5v2zm0-4h-5V7h5v2z"/><path d="M7 9h3v2H7V9z"/></svg><svg viewBox="0 0 33 34" id="ic-quicksearch" xmlns="http://www.w3.org/2000/svg"><path fill-rule="evenodd" clip-rule="evenodd" d="M7 .667h19.336v5.666a1 1 0 11-2 0V2.666H8.999V8H5.333a1 1 0 010-2h1.666V.667zm-.355 1.62A1 1 0 016.657 3.7L3.666 6.742v24.591h20.667V20.278a6.333 6.333 0 114.73-.567l3.202 8.26a1 1 0 01-1.865.724l-3.22-8.305c-.276.052-.56.086-.847.101v12.842H1.666V5.923L5.231 2.3a1 1 0 011.414-.012zM14 8.667c-.92 0-1.666.746-1.666 1.666v1.333a1.667 1.667 0 103.333 0v-1.333c0-.92-.746-1.667-1.667-1.667zm-3.666 1.666a3.667 3.667 0 117.333 0v1.333a3.66 3.66 0 01-1.333 2.83v.45l1.316.438a1 1 0 11-.633 1.898l-2.683-.895v-1.069a3.712 3.712 0 01-.667 0v1.07l-2.684.894a1 1 0 01-.632-1.898l1.316-.438v-.45a3.66 3.66 0 01-1.333-2.83v-1.333zM26 9.833a4.333 4.333 0 100 8.667 4.333 4.333 0 000-8.667zM15.333 22h-8v-2h8v2zm5.333 0h-4v-2h4v2zm-10 .666v2H7.333v-2h3.333zm10 0v2h-8.667v-2h8.667zm-4 2.667v2H7.333v-2h9.333zm4 2h-2.667v-2h2.667v2z"/></svg><svg viewBox="0 0 24 24" id="ic-readmore" xmlns="http://www.w3.org/2000/svg"><path d="M13.2 6H24v2.4H13.2V6zm0 9.6H24V18H13.2v-2.4zm3.6-4.8H24v2.4h-7.2v-2.4zM13.2 12l-6-6v4.8H0v2.4h7.2V18l6-6z"/></svg><svg viewBox="0 0 24 24" id="ic-report" xmlns="http://www.w3.org/2000/svg"><path d="M12 20c-.55 0-1.02-.196-1.412-.587A1.926 1.926 0 0110 18c0-.55.196-1.02.588-1.413A1.926 1.926 0 0112 16c.55 0 1.02.196 1.412.587.392.392.588.863.588 1.413s-.196 1.02-.588 1.413A1.926 1.926 0 0112 20zm0-6c-.55 0-1.02-.196-1.412-.588A1.926 1.926 0 0110 12c0-.55.196-1.02.588-1.412A1.926 1.926 0 0112 10c.55 0 1.02.196 1.412.588.392.391.588.862.588 1.412 0 .55-.196 1.02-.588 1.412A1.926 1.926 0 0112 14zm0-6c-.55 0-1.02-.196-1.412-.588A1.926 1.926 0 0110 6c0-.55.196-1.02.588-1.412A1.926 1.926 0 0112 4c.55 0 1.02.196 1.412.588.392.391.588.862.588 1.412 0 .55-.196 1.02-.588 1.412A1.926 1.926 0 0112 8z" fill-opacity=".4"/></svg><svg viewBox="0 0 24 24" id="ic-send" xmlns="http://www.w3.org/2000/svg"><path fill-rule="evenodd" clip-rule="evenodd" d="M3.06 20.4l15.705-7.48c.729-.35.729-1.49 0-1.84L3.06 3.6c-.594-.29-1.251.2-1.251.91l-.01 4.61c0 .5.334.93.784.99L15.3 12 2.583 13.88c-.45.07-.783.5-.783 1l.009 4.61c0 .71.657 1.2 1.25.91z"/></svg><svg viewBox="0 0 20 21" id="ic-send-mail" xmlns="http://www.w3.org/2000/svg"><path d="M10 2.625c-4.971 0-9 3.273-9 7.313 0 1.743.752 3.34 2.004 4.594-.44 1.772-1.91 3.35-1.927 3.368a.28.28 0 00-.052.306.275.275 0 00.256.169c2.331 0 4.078-1.118 4.943-1.807 1.15.432 2.426.682 3.776.682 4.971 0 9-3.273 9-7.313 0-4.039-4.029-7.312-9-7.312zm-1.427 10.92l-1.695.19a.357.357 0 01-.394-.394l.19-1.695 3.386-3.385 1.898 1.898-3.385 3.385zm5.298-5.299l-1.118 1.118-1.899-1.898 1.118-1.118a.71.71 0 011.006 0l.893.893a.71.71 0 010 1.005z"/></svg><svg viewBox="0 0 24 24" id="ic-signout" xmlns="http://www.w3.org/2000/svg"><path d="M5 21c-.55 0-1.02-.196-1.413-.587A1.926 1.926 0 013 19V5c0-.55.196-1.02.587-1.413A1.926 1.926 0 015 3h7v2H5v14h7v2H5zm11-4l-1.375-1.45 2.55-2.55H9v-2h8.175l-2.55-2.55L16 7l5 5-5 5z"/></svg><svg viewBox="0 0 24 24" id="ic-sort" xmlns="http://www.w3.org/2000/svg"><path d="M8 13V5.825L5.425 8.4 4 7l5-5 5 5-1.425 1.4L10 5.825V13H8zm7 9l-5-5 1.425-1.4L14 18.175V11h2v7.175l2.575-2.575L20 17l-5 5z"/></svg><svg viewBox="0 0 24 24" id="ic-support" xmlns="http://www.w3.org/2000/svg"><path d="M12 21a8.764 8.764 0 01-3.51-.709 9.089 9.089 0 01-2.857-1.924 9.089 9.089 0 01-1.924-2.857A8.764 8.764 0 013 12c0-1.245.236-2.415.709-3.51a9.089 9.089 0 011.924-2.857A9.089 9.089 0 018.49 3.709 8.764 8.764 0 0112 3c1.245 0 2.415.236 3.51.709a9.089 9.089 0 012.857 1.924 9.089 9.089 0 011.924 2.857A8.764 8.764 0 0121 12a8.764 8.764 0 01-.709 3.51 9.089 9.089 0 01-1.924 2.857 9.089 9.089 0 01-2.857 1.924A8.764 8.764 0 0112 21zm-2.61-2.295l1.08-2.475a4.209 4.209 0 01-1.631-1.046A5.105 5.105 0 017.77 13.53l-2.475 1.035c.345.96.878 1.8 1.598 2.52.72.72 1.552 1.26 2.497 1.62zM7.77 10.47a5.105 5.105 0 011.069-1.654A4.21 4.21 0 0110.47 7.77L9.435 5.295c-.96.36-1.8.9-2.52 1.62-.72.72-1.26 1.56-1.62 2.52L7.77 10.47zM12 14.7c.75 0 1.387-.262 1.912-.787A2.604 2.604 0 0014.7 12c0-.75-.262-1.387-.787-1.912A2.604 2.604 0 0012 9.3c-.75 0-1.387.262-1.912.787A2.604 2.604 0 009.3 12c0 .75.262 1.387.787 1.912A2.604 2.604 0 0012 14.7zm2.61 4.005a7.002 7.002 0 002.486-1.609 7.002 7.002 0 001.609-2.486l-2.475-1.08a4.271 4.271 0 01-1.035 1.631 5.037 5.037 0 01-1.62 1.069l1.035 2.475zm1.62-8.28l2.475-1.035a7.002 7.002 0 00-1.609-2.486 7.002 7.002 0 00-2.486-1.609l-1.035 2.52a4.267 4.267 0 011.598 1.024c.45.457.802.986 1.057 1.586z"/></svg><svg viewBox="0 0 24 24" id="ic-tag" xmlns="http://www.w3.org/2000/svg"><path d="M17.56 11.054l-6.62-6.667a1.495 1.495 0 00-1.061-.443H3.5c-.828 0-1.5.677-1.5 1.51v6.424c0 .4.158.785.44 1.068l6.62 6.667c.586.59 1.536.59 2.122 0l6.379-6.423a1.518 1.518 0 000-2.136zM5.5 8.98c-.828 0-1.5-.676-1.5-1.51s.672-1.51 1.5-1.51S7 6.634 7 7.468s-.672 1.51-1.5 1.51zm16.06 4.211l-6.378 6.423c-.586.59-1.536.59-2.121 0l-.012-.011 5.44-5.477a2.823 2.823 0 00.823-2.003c0-.756-.292-1.467-.823-2.002l-6.133-6.176h1.523c.398 0 .779.16 1.06.443l6.622 6.667a1.52 1.52 0 010 2.136z"/></svg><svg viewBox="0 0 24 24" id="ic-text" xmlns="http://www.w3.org/2000/svg"><g clip-path="url(#bma)"><path d="M2 18.25c0 .69.56 1.25 1.25 1.25h7.5a1.25 1.25 0 100-2.5h-7.5C2.56 17 2 17.56 2 18.25zm0-4.168c0 .69.56 1.25 1.25 1.25h17.5a1.25 1.25 0 100-2.5H3.25c-.69 0-1.25.56-1.25 1.25zm0-4.164c0 .69.56 1.25 1.25 1.25h17.5a1.25 1.25 0 000-2.5H3.25c-.69 0-1.25.56-1.25 1.25zM3.25 4.5a1.25 1.25 0 100 2.5h17.5a1.25 1.25 0 100-2.5H3.25z"/></g><defs><clipPath id="bma"><path d="M0 0h24v24H0z"/></clipPath></defs></svg><svg viewBox="0 0 20 20" id="ic-transactions" xmlns="http://www.w3.org/2000/svg"><path fill-rule="evenodd" clip-rule="evenodd" d="M10 0a1 1 0 011 1v1.385a1 1 0 11-2 0V1a1 1 0 011-1z"/><path fill-rule="evenodd" clip-rule="evenodd" d="M0 2.385a1 1 0 011-1h18a1 1 0 110 2H1a1 1 0 01-1-1zM10.218 12.58a1 1 0 011.355.407l2.423 4.5a1 1 0 01-1.761.948l-2.423-4.5a1 1 0 01.406-1.354z"/><path d="M1 2.385v11.077c0 .765.62 1.384 1.385 1.384h15.23c.765 0 1.385-.62 1.385-1.384V2.385H1zm15.028 3.95l-4.154 4.155a.691.691 0 01-.979 0L9.308 8.902l-2.28 2.28a.69.69 0 01-.979 0L4.664 9.797a.692.692 0 11.98-.979l.894.896 2.28-2.28c.27-.27.708-.27.98 0l1.587 1.587 3.664-3.664a.692.692 0 11.979.979zM13.115 19a1.038 1.038 0 100-2.076 1.038 1.038 0 000 2.077z"/><path fill-rule="evenodd" clip-rule="evenodd" d="M9.782 12.58a1 1 0 01.406 1.355l-2.423 4.5a1 1 0 11-1.76-.948l2.422-4.5a1 1 0 011.355-.406z"/><path d="M6.885 19a1.039 1.039 0 100-2.076 1.039 1.039 0 000 2.077z"/></svg><svg viewBox="0 0 24 24" id="ic-tw" xmlns="http://www.w3.org/2000/svg"><path d="M19.944 8.297c.013.189.013.378.013.566 0 5.753-4.124 12.38-11.663 12.38A11.1 11.1 0 012 19.29c.33.04.647.054.99.054 1.916 0 3.68-.687 5.089-1.859-1.802-.04-3.313-1.293-3.833-3.018.254.04.508.068.774.068.368 0 .736-.054 1.079-.148-1.878-.405-3.287-2.156-3.287-4.27v-.055a3.95 3.95 0 001.853.553C3.56 9.833 2.838 8.5 2.838 6.99c0-.809.203-1.55.558-2.196 2.018 2.64 5.05 4.365 8.452 4.553a5.206 5.206 0 01-.102-.997c0-2.398 1.828-4.351 4.1-4.351 1.18 0 2.245.525 2.994 1.374a7.79 7.79 0 002.602-1.05A4.303 4.303 0 0119.64 6.72 7.845 7.845 0 0022 6.048a9.127 9.127 0 01-2.056 2.25z"/></svg><svg viewBox="0 0 24 24" id="ic-verification" xmlns="http://www.w3.org/2000/svg"><path d="M8.91 21.546l-1.728-2.91-3.273-.727.318-3.363L2 12l2.227-2.545L3.91 6.09l3.273-.727 1.727-2.91L12 3.774l3.09-1.318 1.728 2.909 3.273.727-.318 3.364L22 12l-2.227 2.546.318 3.363-3.273.727-1.727 2.91L12 20.227l-3.09 1.319zm2.136-6.319l5.136-5.136-1.273-1.318-3.864 3.863-1.954-1.909L7.818 12l3.228 3.227z"/></svg></svg>